<svg width="127" height="158" viewBox="0 0 127 158" fill="none" xmlns="http://www.w3.org/2000/svg">
<path d="M126.726 63.4058C126.726 98.4239 98.3575 126.812 63.363 126.812C28.3686 126.812 0 98.4239 0 63.4058C0 28.3877 28.3686 0 63.363 0C98.3575 0 126.726 28.3877 126.726 63.4058ZM17.7416 63.4058C17.7416 88.6188 38.167 109.058 63.363 109.058C88.559 109.058 108.984 88.6188 108.984 63.4058C108.984 38.1928 88.559 17.7536 63.363 17.7536C38.167 17.7536 17.7416 38.1928 17.7416 63.4058Z" fill="#928A97" fill-opacity="0.27"/>
<path d="M63.363 126.812C47.4187 126.812 32.0604 120.796 20.3522 109.966C8.64387 99.1358 1.4463 84.2865 0.195327 68.3806C-1.05565 52.4746 3.73193 36.6815 13.603 24.1516C23.474 11.6218 37.7028 3.27655 53.4509 0.780629C69.1989 -1.7153 85.3084 1.82163 98.5657 10.6858C111.823 19.55 121.253 33.0898 124.975 48.604C128.697 64.1183 126.438 80.4665 118.647 94.3872C110.856 108.308 98.1072 118.778 82.9433 123.708L77.4608 106.824C88.3789 103.274 97.5582 95.7354 103.168 85.7124C108.777 75.6895 110.404 63.9188 107.724 52.7485C105.044 41.5782 98.2541 31.8296 88.7089 25.4474C79.1637 19.0652 67.5649 16.5186 56.2263 18.3157C44.8877 20.1127 34.6429 26.1213 27.5358 35.1428C20.4286 44.1643 16.9816 55.5354 17.8823 66.9876C18.783 78.4399 23.9652 89.1314 32.3952 96.9292C40.8252 104.727 51.8831 109.058 63.363 109.058L63.363 126.812Z" fill="#000C24"/>
<path d="M51.5177 70H53.4257L56.2157 66.64C56.4997 66.296 56.7417 65.964 56.9417 65.644C57.1457 65.32 57.2997 64.978 57.4037 64.618C57.5117 64.254 57.5637 63.842 57.5597 63.382C57.5597 62.734 57.4037 62.148 57.0917 61.624C56.7797 61.1 56.3437 60.684 55.7837 60.376C55.2237 60.068 54.5717 59.914 53.8277 59.914C53.0917 59.914 52.4577 60.064 51.9257 60.364C51.3937 60.664 50.9817 61.07 50.6897 61.582C50.4017 62.094 50.2577 62.668 50.2577 63.304C50.2577 63.804 50.3437 64.262 50.5157 64.678C50.6917 65.094 50.9297 65.456 51.2297 65.764C51.5337 66.068 51.8797 66.304 52.2677 66.472C52.6557 66.636 53.0637 66.718 53.4917 66.718C53.8917 66.718 54.2377 66.622 54.5297 66.43L51.5177 70ZM53.8997 65.35C53.5077 65.35 53.1557 65.26 52.8437 65.08C52.5317 64.896 52.2857 64.648 52.1057 64.336C51.9257 64.024 51.8357 63.67 51.8357 63.274C51.8357 62.882 51.9257 62.534 52.1057 62.23C52.2857 61.926 52.5297 61.686 52.8377 61.51C53.1497 61.334 53.5037 61.246 53.8997 61.246C54.2917 61.246 54.6397 61.334 54.9437 61.51C55.2517 61.682 55.4917 61.92 55.6637 62.224C55.8397 62.528 55.9277 62.878 55.9277 63.274C55.9277 63.658 55.8357 64.008 55.6517 64.324C55.4717 64.636 55.2277 64.886 54.9197 65.074C54.6157 65.258 54.2757 65.35 53.8997 65.35ZM63.0607 70.192C63.8687 70.192 64.5767 69.978 65.1847 69.55C65.7927 69.118 66.2667 68.516 66.6067 67.744C66.9467 66.972 67.1167 66.076 67.1167 65.056C67.1167 64.036 66.9467 63.14 66.6067 62.368C66.2667 61.596 65.7927 60.996 65.1847 60.568C64.5767 60.136 63.8687 59.92 63.0607 59.92C62.2527 59.92 61.5447 60.136 60.9367 60.568C60.3287 60.996 59.8547 61.596 59.5147 62.368C59.1747 63.14 59.0047 64.036 59.0047 65.056C59.0047 66.076 59.1747 66.972 59.5147 67.744C59.8547 68.516 60.3287 69.118 60.9367 69.55C61.5447 69.978 62.2527 70.192 63.0607 70.192ZM63.0607 68.8C62.5727 68.8 62.1487 68.648 61.7887 68.344C61.4287 68.04 61.1507 67.608 60.9547 67.048C60.7587 66.484 60.6607 65.82 60.6607 65.056C60.6607 64.288 60.7587 63.624 60.9547 63.064C61.1507 62.504 61.4287 62.072 61.7887 61.768C62.1487 61.464 62.5727 61.312 63.0607 61.312C63.5487 61.312 63.9727 61.464 64.3327 61.768C64.6927 62.072 64.9707 62.504 65.1667 63.064C65.3627 63.624 65.4607 64.288 65.4607 65.056C65.4607 65.82 65.3627 66.484 65.1667 67.048C64.9707 67.608 64.6927 68.04 64.3327 68.344C63.9727 68.648 63.5487 68.8 63.0607 68.8ZM71.2518 64.648C71.7358 64.648 72.1698 64.548 72.5538 64.348C72.9418 64.148 73.2478 63.87 73.4718 63.514C73.6998 63.158 73.8138 62.748 73.8138 62.284C73.8138 61.82 73.6998 61.41 73.4718 61.054C73.2478 60.698 72.9418 60.42 72.5538 60.22C72.1698 60.02 71.7358 59.92 71.2518 59.92C70.7678 59.92 70.3318 60.02 69.9438 60.22C69.5558 60.42 69.2478 60.698 69.0198 61.054C68.7958 61.41 68.6838 61.82 68.6838 62.284C68.6838 62.748 68.7958 63.158 69.0198 63.514C69.2478 63.87 69.5558 64.148 69.9438 64.348C70.3318 64.548 70.7678 64.648 71.2518 64.648ZM70.8078 70H71.8518L77.6118 60.1H76.5678L70.8078 70ZM71.2518 63.718C70.8478 63.718 70.5078 63.584 70.2318 63.316C69.9558 63.048 69.8178 62.704 69.8178 62.284C69.8178 61.864 69.9558 61.52 70.2318 61.252C70.5078 60.984 70.8478 60.85 71.2518 60.85C71.6558 60.85 71.9958 60.984 72.2718 61.252C72.5478 61.516 72.6858 61.86 72.6858 62.284C72.6858 62.704 72.5478 63.048 72.2718 63.316C71.9958 63.584 71.6558 63.718 71.2518 63.718ZM77.1678 70.186C77.6518 70.186 78.0878 70.086 78.4758 69.886C78.8638 69.686 79.1698 69.408 79.3938 69.052C79.6218 68.696 79.7358 68.286 79.7358 67.822C79.7358 67.358 79.6218 66.948 79.3938 66.592C79.1698 66.236 78.8638 65.958 78.4758 65.758C78.0878 65.558 77.6518 65.458 77.1678 65.458C76.6838 65.458 76.2478 65.558 75.8598 65.758C75.4718 65.958 75.1638 66.236 74.9358 66.592C74.7118 66.948 74.5998 67.358 74.5998 67.822C74.5998 68.286 74.7118 68.696 74.9358 69.052C75.1638 69.408 75.4718 69.686 75.8598 69.886C76.2478 70.086 76.6838 70.186 77.1678 70.186ZM77.1678 69.256C76.7678 69.256 76.4278 69.122 76.1478 68.854C75.8718 68.586 75.7338 68.242 75.7338 67.822C75.7338 67.402 75.8718 67.058 76.1478 66.79C76.4278 66.522 76.7678 66.388 77.1678 66.388C77.5718 66.388 77.9118 66.522 78.1878 66.79C78.4638 67.058 78.6018 67.402 78.6018 67.822C78.6018 68.242 78.4638 68.586 78.1878 68.854C77.9118 69.122 77.5718 69.256 77.1678 69.256Z" fill="#928A97"/>
<path d="M37.1637 148.957H38.9977V143.973H44.0307V148.957H45.8577V137.407H44.0307V142.363H38.9977V137.407H37.1637V148.957ZM50.477 148.957H52.304V139.038H55.454V137.407H47.334V139.038H50.477V148.957ZM57.0084 148.957H58.8424L59.7594 140.725L62.6364 148.523H63.8054L66.6754 140.725L67.5994 148.957H69.4264L68.1524 137.407H66.2064L63.2174 145.282L60.2284 137.407H58.2824L57.0084 148.957ZM72.2183 148.957H78.4623V147.347H74.0523V137.407H72.2183V148.957ZM83.5952 149.174C84.3792 149.174 85.0885 149.02 85.7232 148.712C86.3625 148.399 86.8689 147.949 87.2422 147.361C87.6202 146.773 87.8092 146.059 87.8092 145.219C87.8092 144.313 87.5689 143.553 87.0882 142.937C86.6075 142.316 85.9729 141.919 85.1842 141.747C84.2555 141.457 83.2942 141.485 82.3002 141.831L82.7342 139.017H87.0672V137.407H81.1732L80.2072 143.616C80.9585 142.995 81.8172 142.685 82.7832 142.685C83.4179 142.685 83.9755 142.792 84.4562 143.007C84.9369 143.217 85.3125 143.52 85.5832 143.917C85.8539 144.309 85.9892 144.778 85.9892 145.324C85.9892 146.019 85.7699 146.579 85.3312 147.004C84.8925 147.428 84.3045 147.641 83.5672 147.641C82.9465 147.641 82.4029 147.489 81.9362 147.186C81.4695 146.878 81.1522 146.469 80.9842 145.961L79.5282 146.668C79.7242 147.2 80.0229 147.652 80.4242 148.026C80.8302 148.399 81.3062 148.684 81.8522 148.88C82.3982 149.076 82.9792 149.174 83.5952 149.174Z" fill="#000C24"/>
</svg>
