<svg width="128" height="158" viewBox="0 0 128 158" fill="none" xmlns="http://www.w3.org/2000/svg">
<path d="M127.031 63.4058C127.031 98.4239 98.6626 126.812 63.6682 126.812C28.6738 126.812 0.305176 98.4239 0.305176 63.4058C0.305176 28.3877 28.6738 0 63.6682 0C98.6626 0 127.031 28.3877 127.031 63.4058ZM18.0468 63.4058C18.0468 88.6188 38.4722 109.058 63.6682 109.058C88.8642 109.058 109.29 88.6188 109.29 63.4058C109.29 38.1928 88.8642 17.7536 63.6682 17.7536C38.4722 17.7536 18.0468 38.1928 18.0468 63.4058Z" fill="#928A97" fill-opacity="0.27"/>
<path d="M63.6682 126.812C51.989 126.812 40.5371 123.581 30.5771 117.478C20.6172 111.374 12.5368 102.635 7.22839 92.2249C1.91999 81.8148 -0.409878 70.1391 0.496108 58.4872C1.40209 46.8354 5.50868 35.6608 12.3623 26.1976C19.216 16.7345 28.55 9.35094 39.3335 4.8625C50.117 0.374057 61.9305 -1.04464 73.4691 0.763093C85.0077 2.57082 95.8225 7.53464 104.719 15.1063C113.616 22.678 120.248 32.563 123.883 43.6694L107.023 49.1956C104.406 41.1989 99.6305 34.0818 93.2249 28.6302C86.8193 23.1786 79.0326 19.6046 70.7248 18.303C62.417 17.0015 53.9114 18.0229 46.1472 21.2546C38.3831 24.4863 31.6626 29.8024 26.728 36.6159C21.7933 43.4294 18.8366 51.4751 18.1843 59.8644C17.532 68.2538 19.2095 76.6603 23.0315 84.1556C26.8536 91.6508 32.6715 97.9432 39.8426 102.338C47.0138 106.732 55.2592 109.058 63.6682 109.058L63.6682 126.812Z" fill="#000C24"/>
<path d="M51.444 70H53.304L58.536 60.574V60.1H51.642V61.48H56.214L51.444 70ZM63.647 70.192C64.455 70.192 65.163 69.978 65.771 69.55C66.379 69.118 66.853 68.516 67.193 67.744C67.533 66.972 67.703 66.076 67.703 65.056C67.703 64.036 67.533 63.14 67.193 62.368C66.853 61.596 66.379 60.996 65.771 60.568C65.163 60.136 64.455 59.92 63.647 59.92C62.839 59.92 62.131 60.136 61.523 60.568C60.915 60.996 60.441 61.596 60.101 62.368C59.761 63.14 59.591 64.036 59.591 65.056C59.591 66.076 59.761 66.972 60.101 67.744C60.441 68.516 60.915 69.118 61.523 69.55C62.131 69.978 62.839 70.192 63.647 70.192ZM63.647 68.8C63.159 68.8 62.735 68.648 62.375 68.344C62.015 68.04 61.737 67.608 61.541 67.048C61.345 66.484 61.247 65.82 61.247 65.056C61.247 64.288 61.345 63.624 61.541 63.064C61.737 62.504 62.015 62.072 62.375 61.768C62.735 61.464 63.159 61.312 63.647 61.312C64.135 61.312 64.559 61.464 64.919 61.768C65.279 62.072 65.557 62.504 65.753 63.064C65.949 63.624 66.047 64.288 66.047 65.056C66.047 65.82 65.949 66.484 65.753 67.048C65.557 67.608 65.279 68.04 64.919 68.344C64.559 68.648 64.135 68.8 63.647 68.8ZM71.8381 64.648C72.3221 64.648 72.7561 64.548 73.1401 64.348C73.5281 64.148 73.8341 63.87 74.0581 63.514C74.2861 63.158 74.4001 62.748 74.4001 62.284C74.4001 61.82 74.2861 61.41 74.0581 61.054C73.8341 60.698 73.5281 60.42 73.1401 60.22C72.7561 60.02 72.3221 59.92 71.8381 59.92C71.3541 59.92 70.9181 60.02 70.5301 60.22C70.1421 60.42 69.8341 60.698 69.6061 61.054C69.3821 61.41 69.2701 61.82 69.2701 62.284C69.2701 62.748 69.3821 63.158 69.6061 63.514C69.8341 63.87 70.1421 64.148 70.5301 64.348C70.9181 64.548 71.3541 64.648 71.8381 64.648ZM71.3941 70H72.4381L78.1981 60.1H77.1541L71.3941 70ZM71.8381 63.718C71.4341 63.718 71.0941 63.584 70.8181 63.316C70.5421 63.048 70.4041 62.704 70.4041 62.284C70.4041 61.864 70.5421 61.52 70.8181 61.252C71.0941 60.984 71.4341 60.85 71.8381 60.85C72.2421 60.85 72.5821 60.984 72.8581 61.252C73.1341 61.516 73.2721 61.86 73.2721 62.284C73.2721 62.704 73.1341 63.048 72.8581 63.316C72.5821 63.584 72.2421 63.718 71.8381 63.718ZM77.7541 70.186C78.2381 70.186 78.6741 70.086 79.0621 69.886C79.4501 69.686 79.7561 69.408 79.9801 69.052C80.2081 68.696 80.3221 68.286 80.3221 67.822C80.3221 67.358 80.2081 66.948 79.9801 66.592C79.7561 66.236 79.4501 65.958 79.0621 65.758C78.6741 65.558 78.2381 65.458 77.7541 65.458C77.2701 65.458 76.8341 65.558 76.4461 65.758C76.0581 65.958 75.7501 66.236 75.5221 66.592C75.2981 66.948 75.1861 67.358 75.1861 67.822C75.1861 68.286 75.2981 68.696 75.5221 69.052C75.7501 69.408 76.0581 69.686 76.4461 69.886C76.8341 70.086 77.2701 70.186 77.7541 70.186ZM77.7541 69.256C77.3541 69.256 77.0141 69.122 76.7341 68.854C76.4581 68.586 76.3201 68.242 76.3201 67.822C76.3201 67.402 76.4581 67.058 76.7341 66.79C77.0141 66.522 77.3541 66.388 77.7541 66.388C78.1581 66.388 78.4981 66.522 78.7741 66.79C79.0501 67.058 79.1881 67.402 79.1881 67.822C79.1881 68.242 79.0501 68.586 78.7741 68.854C78.4981 69.122 78.1581 69.256 77.7541 69.256Z" fill="#928A97"/>
<path d="M49.6479 149.181C50.3712 149.181 51.0502 149.076 51.6849 148.866C52.3242 148.656 52.8702 148.385 53.3229 148.054L52.5179 146.5C52.1679 146.78 51.7526 146.997 51.2719 147.151C50.7912 147.305 50.2849 147.382 49.7529 147.382C48.9129 147.382 48.1639 147.197 47.5059 146.829C46.8479 146.455 46.3299 145.954 45.9519 145.324C45.5739 144.689 45.3849 143.977 45.3849 143.189C45.3849 142.4 45.5739 141.691 45.9519 141.061C46.3299 140.426 46.8479 139.924 47.5059 139.556C48.1639 139.182 48.9129 138.996 49.7529 138.996C50.2849 138.996 50.7912 139.073 51.2719 139.227C51.7526 139.381 52.1679 139.598 52.5179 139.878L53.3229 138.324C52.8562 137.983 52.3032 137.71 51.6639 137.505C51.0246 137.299 50.3479 137.197 49.6339 137.197C48.7659 137.197 47.9539 137.351 47.1979 137.659C46.4466 137.962 45.7839 138.387 45.2099 138.933C44.6406 139.479 44.1949 140.116 43.8729 140.844C43.5509 141.567 43.3899 142.349 43.3899 143.189C43.3899 144.029 43.5509 144.813 43.8729 145.541C44.1949 146.264 44.6406 146.899 45.2099 147.445C45.7839 147.991 46.4489 148.418 47.2049 148.726C47.9609 149.029 48.7752 149.181 49.6479 149.181ZM58.3741 149.181C59.1627 149.181 59.8581 149.048 60.4601 148.782C61.0667 148.511 61.5404 148.121 61.8811 147.613C62.2264 147.099 62.3991 146.481 62.3991 145.758C62.3991 145.072 62.2451 144.514 61.9371 144.085C61.6337 143.651 61.2161 143.287 60.6841 142.993C60.1521 142.694 59.5454 142.409 58.8641 142.139C58.5187 142.003 58.1991 141.87 57.9051 141.74C57.6157 141.604 57.3847 141.439 57.2121 141.243C57.0394 141.042 56.9531 140.778 56.9531 140.452C56.9531 140.032 57.1094 139.663 57.4221 139.346C57.7347 139.024 58.1781 138.863 58.7521 138.863C59.2421 138.863 59.6971 138.97 60.1171 139.185C60.5371 139.395 60.8777 139.637 61.1391 139.913L61.9371 138.52C61.7177 138.291 61.4377 138.076 61.0971 137.876C60.7611 137.675 60.3877 137.512 59.9771 137.386C59.5711 137.26 59.1511 137.197 58.7171 137.197C58.0124 137.197 57.3941 137.351 56.8621 137.659C56.3301 137.967 55.9147 138.37 55.6161 138.87C55.3221 139.369 55.1751 139.908 55.1751 140.487C55.1751 141.019 55.2964 141.471 55.5391 141.845C55.7817 142.213 56.0897 142.524 56.4631 142.776C56.8411 143.023 57.2284 143.231 57.6251 143.399C58.1804 143.627 58.6681 143.844 59.0881 144.05C59.5081 144.25 59.8347 144.486 60.0681 144.757C60.3014 145.023 60.4181 145.37 60.4181 145.8C60.4181 146.355 60.2267 146.775 59.8441 147.06C59.4614 147.34 58.9877 147.48 58.4231 147.48C57.8911 147.48 57.4174 147.379 57.0021 147.179C56.5867 146.973 56.2321 146.74 55.9381 146.479C55.6441 146.217 55.4107 145.998 55.2381 145.821L54.2721 147.305C54.3934 147.445 54.5707 147.62 54.8041 147.83C55.0374 148.035 55.3244 148.243 55.6651 148.453C56.0104 148.658 56.4071 148.831 56.8551 148.971C57.3077 149.111 57.8141 149.181 58.3741 149.181ZM67.6573 149.181C68.4459 149.181 69.1413 149.048 69.7433 148.782C70.3499 148.511 70.8236 148.121 71.1643 147.613C71.5096 147.099 71.6823 146.481 71.6823 145.758C71.6823 145.072 71.5283 144.514 71.2203 144.085C70.9169 143.651 70.4993 143.287 69.9673 142.993C69.4353 142.694 68.8286 142.409 68.1473 142.139C67.8019 142.003 67.4823 141.87 67.1883 141.74C66.8989 141.604 66.6679 141.439 66.4953 141.243C66.3226 141.042 66.2363 140.778 66.2363 140.452C66.2363 140.032 66.3926 139.663 66.7053 139.346C67.0179 139.024 67.4613 138.863 68.0353 138.863C68.5253 138.863 68.9803 138.97 69.4003 139.185C69.8203 139.395 70.1609 139.637 70.4223 139.913L71.2203 138.52C71.0009 138.291 70.7209 138.076 70.3803 137.876C70.0443 137.675 69.6709 137.512 69.2603 137.386C68.8543 137.26 68.4343 137.197 68.0003 137.197C67.2956 137.197 66.6773 137.351 66.1453 137.659C65.6133 137.967 65.1979 138.37 64.8993 138.87C64.6053 139.369 64.4583 139.908 64.4583 140.487C64.4583 141.019 64.5796 141.471 64.8223 141.845C65.0649 142.213 65.3729 142.524 65.7463 142.776C66.1243 143.023 66.5116 143.231 66.9083 143.399C67.4636 143.627 67.9513 143.844 68.3713 144.05C68.7913 144.25 69.1179 144.486 69.3513 144.757C69.5846 145.023 69.7013 145.37 69.7013 145.8C69.7013 146.355 69.5099 146.775 69.1273 147.06C68.7446 147.34 68.2709 147.48 67.7063 147.48C67.1743 147.48 66.7006 147.379 66.2853 147.179C65.8699 146.973 65.5153 146.74 65.2213 146.479C64.9273 146.217 64.6939 145.998 64.5213 145.821L63.5553 147.305C63.6766 147.445 63.8539 147.62 64.0873 147.83C64.3206 148.035 64.6076 148.243 64.9483 148.453C65.2936 148.658 65.6903 148.831 66.1383 148.971C66.5909 149.111 67.0973 149.181 67.6573 149.181ZM77.0669 149.181C77.8556 149.181 78.5439 149.029 79.1319 148.726C79.7199 148.418 80.1772 147.998 80.5039 147.466C80.8306 146.934 80.9939 146.332 80.9939 145.66C80.9939 144.997 80.8329 144.425 80.5109 143.945C80.1889 143.464 79.7712 143.107 79.2579 142.874C79.6966 142.636 80.0419 142.302 80.2939 141.873C80.5459 141.439 80.6719 140.958 80.6719 140.431C80.6719 139.815 80.5179 139.264 80.2099 138.779C79.9066 138.289 79.4889 137.904 78.9569 137.624C78.4296 137.339 77.8299 137.197 77.1579 137.197C76.5699 137.197 76.0286 137.311 75.5339 137.54C75.0392 137.768 74.6262 138.086 74.2949 138.492C73.9636 138.893 73.7466 139.36 73.6439 139.892L75.1209 140.536C75.1536 140.186 75.2632 139.873 75.4499 139.598C75.6366 139.318 75.8769 139.098 76.1709 138.94C76.4649 138.776 76.7846 138.695 77.1299 138.695C77.4752 138.695 77.7879 138.774 78.0679 138.933C78.3479 139.087 78.5696 139.299 78.7329 139.57C78.9009 139.836 78.9849 140.134 78.9849 140.466C78.9849 140.802 78.8986 141.114 78.7259 141.404C78.5579 141.688 78.3316 141.919 78.0469 142.097C77.7622 142.274 77.4426 142.363 77.0879 142.363H76.6119V143.616C76.7379 143.569 76.8989 143.546 77.0949 143.546C77.4729 143.546 77.8159 143.639 78.1239 143.826C78.4319 144.012 78.6769 144.267 78.8589 144.589C79.0456 144.911 79.1389 145.272 79.1389 145.674C79.1389 146.243 78.9499 146.703 78.5719 147.053C78.1986 147.398 77.6992 147.571 77.0739 147.571C76.4066 147.571 75.8629 147.379 75.4429 146.997C75.0229 146.609 74.7989 146.11 74.7709 145.499L73.0489 146.262C73.1749 146.845 73.4222 147.356 73.7909 147.795C74.1642 148.233 74.6309 148.574 75.1909 148.817C75.7509 149.059 76.3762 149.181 77.0669 149.181Z" fill="#000C24"/>
</svg>
