<svg width="127" height="158" viewBox="0 0 127 158" fill="none" xmlns="http://www.w3.org/2000/svg">
<path d="M127 63.4058C127 98.4239 98.6314 126.812 63.637 126.812C28.6425 126.812 0.273926 98.4239 0.273926 63.4058C0.273926 28.3877 28.6425 0 63.637 0C98.6314 0 127 28.3877 127 63.4058ZM18.0156 63.4058C18.0156 88.6188 38.441 109.058 63.637 109.058C88.8329 109.058 109.258 88.6188 109.258 63.4058C109.258 38.1928 88.8329 17.7536 63.637 17.7536C38.441 17.7536 18.0156 38.1928 18.0156 63.4058Z" fill="#928A97" fill-opacity="0.27"/>
<path d="M63.637 126.812C53.6365 126.812 43.7781 124.443 34.8679 119.899C25.9577 115.356 18.2488 108.766 12.3715 100.67C6.49421 92.5732 2.6155 83.1995 1.05256 73.3153C-0.510383 63.4312 0.286833 53.3171 3.37901 43.8004C6.47119 34.2836 11.7705 25.6344 18.8436 18.56C25.9167 11.4857 34.5627 6.18704 44.0746 3.09748C53.5865 0.00792939 63.6941 -0.784817 73.5708 0.784072C83.4475 2.35296 92.8129 6.23893 100.901 12.1242L90.4671 26.483C84.6437 22.2456 77.9006 19.4478 70.7893 18.3182C63.6781 17.1886 56.4006 17.7593 49.5521 19.9838C42.7035 22.2083 36.4784 26.0233 31.3858 31.1168C26.2931 36.2104 22.4776 42.4378 20.2512 49.2899C18.0249 56.142 17.4509 63.4241 18.5762 70.5407C19.7015 77.6573 22.4942 84.4063 26.7258 90.2358C30.9575 96.0653 36.5079 100.81 42.9233 104.081C49.3386 107.353 56.4367 109.058 63.637 109.058L63.637 126.812Z" fill="#000C24"/>
<path d="M55.356 70.192C56.06 70.192 56.68 70.048 57.216 69.76C57.756 69.472 58.176 69.072 58.476 68.56C58.78 68.044 58.932 67.45 58.932 66.778C58.932 66.114 58.792 65.528 58.512 65.02C58.232 64.508 57.852 64.108 57.372 63.82C56.896 63.528 56.36 63.382 55.764 63.382C55.368 63.382 55.014 63.462 54.702 63.622L57.666 60.1H55.764L52.968 63.46C52.556 63.956 52.23 64.496 51.99 65.08C51.75 65.664 51.63 66.218 51.63 66.742C51.63 67.366 51.784 67.94 52.092 68.464C52.4 68.988 52.832 69.408 53.388 69.724C53.948 70.036 54.604 70.192 55.356 70.192ZM55.284 68.872C54.876 68.872 54.518 68.782 54.21 68.602C53.906 68.418 53.668 68.172 53.496 67.864C53.328 67.556 53.244 67.216 53.244 66.844C53.244 66.444 53.336 66.086 53.52 65.77C53.708 65.45 53.96 65.198 54.276 65.014C54.592 64.826 54.942 64.732 55.326 64.732C55.706 64.732 56.048 64.824 56.352 65.008C56.66 65.188 56.904 65.436 57.084 65.752C57.268 66.064 57.36 66.422 57.36 66.826C57.36 67.218 57.27 67.57 57.09 67.882C56.91 68.19 56.664 68.432 56.352 68.608C56.04 68.784 55.684 68.872 55.284 68.872ZM64.397 70.192C65.205 70.192 65.913 69.978 66.521 69.55C67.129 69.118 67.603 68.516 67.943 67.744C68.283 66.972 68.453 66.076 68.453 65.056C68.453 64.036 68.283 63.14 67.943 62.368C67.603 61.596 67.129 60.996 66.521 60.568C65.913 60.136 65.205 59.92 64.397 59.92C63.589 59.92 62.881 60.136 62.273 60.568C61.665 60.996 61.191 61.596 60.851 62.368C60.511 63.14 60.341 64.036 60.341 65.056C60.341 66.076 60.511 66.972 60.851 67.744C61.191 68.516 61.665 69.118 62.273 69.55C62.881 69.978 63.589 70.192 64.397 70.192ZM64.397 68.8C63.909 68.8 63.485 68.648 63.125 68.344C62.765 68.04 62.487 67.608 62.291 67.048C62.095 66.484 61.997 65.82 61.997 65.056C61.997 64.288 62.095 63.624 62.291 63.064C62.487 62.504 62.765 62.072 63.125 61.768C63.485 61.464 63.909 61.312 64.397 61.312C64.885 61.312 65.309 61.464 65.669 61.768C66.029 62.072 66.307 62.504 66.503 63.064C66.699 63.624 66.797 64.288 66.797 65.056C66.797 65.82 66.699 66.484 66.503 67.048C66.307 67.608 66.029 68.04 65.669 68.344C65.309 68.648 64.885 68.8 64.397 68.8ZM72.5881 64.648C73.0721 64.648 73.5061 64.548 73.8901 64.348C74.2781 64.148 74.5841 63.87 74.8081 63.514C75.0361 63.158 75.1501 62.748 75.1501 62.284C75.1501 61.82 75.0361 61.41 74.8081 61.054C74.5841 60.698 74.2781 60.42 73.8901 60.22C73.5061 60.02 73.0721 59.92 72.5881 59.92C72.1041 59.92 71.6681 60.02 71.2801 60.22C70.8921 60.42 70.5841 60.698 70.3561 61.054C70.1321 61.41 70.0201 61.82 70.0201 62.284C70.0201 62.748 70.1321 63.158 70.3561 63.514C70.5841 63.87 70.8921 64.148 71.2801 64.348C71.6681 64.548 72.1041 64.648 72.5881 64.648ZM72.1441 70H73.1881L78.9481 60.1H77.9041L72.1441 70ZM72.5881 63.718C72.1841 63.718 71.8441 63.584 71.5681 63.316C71.2921 63.048 71.1541 62.704 71.1541 62.284C71.1541 61.864 71.2921 61.52 71.5681 61.252C71.8441 60.984 72.1841 60.85 72.5881 60.85C72.9921 60.85 73.3321 60.984 73.6081 61.252C73.8841 61.516 74.0221 61.86 74.0221 62.284C74.0221 62.704 73.8841 63.048 73.6081 63.316C73.3321 63.584 72.9921 63.718 72.5881 63.718ZM78.5041 70.186C78.9881 70.186 79.4241 70.086 79.8121 69.886C80.2001 69.686 80.5061 69.408 80.7301 69.052C80.9581 68.696 81.0721 68.286 81.0721 67.822C81.0721 67.358 80.9581 66.948 80.7301 66.592C80.5061 66.236 80.2001 65.958 79.8121 65.758C79.4241 65.558 78.9881 65.458 78.5041 65.458C78.0201 65.458 77.5841 65.558 77.1961 65.758C76.8081 65.958 76.5001 66.236 76.2721 66.592C76.0481 66.948 75.9361 67.358 75.9361 67.822C75.9361 68.286 76.0481 68.696 76.2721 69.052C76.5001 69.408 76.8081 69.686 77.1961 69.886C77.5841 70.086 78.0201 70.186 78.5041 70.186ZM78.5041 69.256C78.1041 69.256 77.7641 69.122 77.4841 68.854C77.2081 68.586 77.0701 68.242 77.0701 67.822C77.0701 67.402 77.2081 67.058 77.4841 66.79C77.7641 66.522 78.1041 66.388 78.5041 66.388C78.9081 66.388 79.2481 66.522 79.5241 66.79C79.8001 67.058 79.9381 67.402 79.9381 67.822C79.9381 68.242 79.8001 68.586 79.5241 68.854C79.2481 69.122 78.9081 69.256 78.5041 69.256Z" fill="#928A97"/>
<path d="M23.9232 149.181C25.0012 149.181 25.8459 148.877 26.4572 148.271C27.0686 147.659 27.3742 146.805 27.3742 145.709V137.407H25.5402V145.219C25.5402 145.909 25.3746 146.451 25.0432 146.843C24.7119 147.235 24.2499 147.431 23.6572 147.431C23.0272 147.431 22.4182 147.146 21.8302 146.577L21.1932 148.096C21.9586 148.819 22.8686 149.181 23.9232 149.181ZM33.301 149.181C33.8424 149.181 34.3417 149.062 34.799 148.824C35.261 148.581 35.6507 148.243 35.968 147.809V148.957H37.711V141.789H35.968V142.888C35.6927 142.472 35.317 142.148 34.841 141.915C34.3697 141.681 33.8564 141.565 33.301 141.565C32.6104 141.565 31.9967 141.73 31.46 142.062C30.928 142.393 30.508 142.846 30.2 143.42C29.8967 143.994 29.745 144.642 29.745 145.366C29.745 146.103 29.9014 146.759 30.214 147.333C30.5314 147.907 30.9584 148.359 31.495 148.691C32.0364 149.017 32.6384 149.181 33.301 149.181ZM33.798 147.69C33.3687 147.69 32.986 147.589 32.65 147.389C32.314 147.188 32.0504 146.915 31.859 146.57C31.6677 146.22 31.572 145.821 31.572 145.373C31.572 144.925 31.6677 144.526 31.859 144.176C32.0504 143.826 32.314 143.553 32.65 143.357C32.986 143.156 33.3687 143.056 33.798 143.056C34.232 143.056 34.6147 143.156 34.946 143.357C35.282 143.553 35.5434 143.826 35.73 144.176C35.9214 144.521 36.017 144.92 36.017 145.373C36.017 145.821 35.9214 146.22 35.73 146.57C35.5434 146.92 35.282 147.195 34.946 147.396C34.6147 147.592 34.232 147.69 33.798 147.69ZM42.7752 148.957H43.9372L47.6052 141.789H45.5472L43.3562 146.612L41.1652 141.789H39.1072L42.7752 148.957ZM51.9768 149.181C52.5182 149.181 53.0175 149.062 53.4748 148.824C53.9368 148.581 54.3265 148.243 54.6438 147.809V148.957H56.3868V141.789H54.6438V142.888C54.3685 142.472 53.9928 142.148 53.5168 141.915C53.0455 141.681 52.5322 141.565 51.9768 141.565C51.2862 141.565 50.6725 141.73 50.1358 142.062C49.6038 142.393 49.1838 142.846 48.8758 143.42C48.5725 143.994 48.4208 144.642 48.4208 145.366C48.4208 146.103 48.5772 146.759 48.8898 147.333C49.2072 147.907 49.6342 148.359 50.1708 148.691C50.7122 149.017 51.3142 149.181 51.9768 149.181ZM52.4738 147.69C52.0445 147.69 51.6618 147.589 51.3258 147.389C50.9898 147.188 50.7262 146.915 50.5348 146.57C50.3435 146.22 50.2478 145.821 50.2478 145.373C50.2478 144.925 50.3435 144.526 50.5348 144.176C50.7262 143.826 50.9898 143.553 51.3258 143.357C51.6618 143.156 52.0445 143.056 52.4738 143.056C52.9078 143.056 53.2905 143.156 53.6218 143.357C53.9578 143.553 54.2192 143.826 54.4058 144.176C54.5972 144.521 54.6928 144.92 54.6928 145.373C54.6928 145.821 54.5972 146.22 54.4058 146.57C54.2192 146.92 53.9578 147.195 53.6218 147.396C53.2905 147.592 52.9078 147.69 52.4738 147.69ZM65.8193 149.181C66.608 149.181 67.3033 149.048 67.9053 148.782C68.512 148.511 68.9857 148.121 69.3263 147.613C69.6717 147.099 69.8443 146.481 69.8443 145.758C69.8443 145.072 69.6903 144.514 69.3823 144.085C69.079 143.651 68.6613 143.287 68.1293 142.993C67.5973 142.694 66.9907 142.409 66.3093 142.139C65.964 142.003 65.6443 141.87 65.3503 141.74C65.061 141.604 64.83 141.439 64.6573 141.243C64.4847 141.042 64.3983 140.778 64.3983 140.452C64.3983 140.032 64.5547 139.663 64.8673 139.346C65.18 139.024 65.6233 138.863 66.1973 138.863C66.6873 138.863 67.1423 138.97 67.5623 139.185C67.9823 139.395 68.323 139.637 68.5843 139.913L69.3823 138.52C69.163 138.291 68.883 138.076 68.5423 137.876C68.2063 137.675 67.833 137.512 67.4223 137.386C67.0163 137.26 66.5963 137.197 66.1623 137.197C65.4577 137.197 64.8393 137.351 64.3073 137.659C63.7753 137.967 63.36 138.37 63.0613 138.87C62.7673 139.369 62.6203 139.908 62.6203 140.487C62.6203 141.019 62.7417 141.471 62.9843 141.845C63.227 142.213 63.535 142.524 63.9083 142.776C64.2863 143.023 64.6737 143.231 65.0703 143.399C65.6257 143.627 66.1133 143.844 66.5333 144.05C66.9533 144.25 67.28 144.486 67.5133 144.757C67.7467 145.023 67.8633 145.37 67.8633 145.8C67.8633 146.355 67.672 146.775 67.2893 147.06C66.9067 147.34 66.433 147.48 65.8683 147.48C65.3363 147.48 64.8627 147.379 64.4473 147.179C64.032 146.973 63.6773 146.74 63.3833 146.479C63.0893 146.217 62.856 145.998 62.6833 145.821L61.7173 147.305C61.8387 147.445 62.016 147.62 62.2493 147.83C62.4827 148.035 62.7697 148.243 63.1103 148.453C63.4557 148.658 63.8523 148.831 64.3003 148.971C64.753 149.111 65.2593 149.181 65.8193 149.181ZM75.425 149.181C75.8963 149.181 76.342 149.111 76.762 148.971C77.182 148.835 77.5343 148.66 77.819 148.446L77.189 147.27C76.7876 147.582 76.2883 147.739 75.691 147.739C75.215 147.739 74.795 147.634 74.431 147.424C74.0716 147.214 73.7893 146.931 73.584 146.577C73.3833 146.217 73.283 145.816 73.283 145.373C73.283 144.953 73.3786 144.563 73.57 144.204C73.766 143.844 74.0413 143.555 74.396 143.336C74.7553 143.116 75.1823 143.007 75.677 143.007C76.2836 143.007 76.79 143.163 77.196 143.476L77.819 142.3C77.539 142.08 77.1843 141.903 76.755 141.768C76.3303 141.632 75.8846 141.565 75.418 141.565C74.8533 141.565 74.3306 141.665 73.85 141.866C73.3693 142.066 72.9493 142.342 72.59 142.692C72.2353 143.042 71.9576 143.448 71.757 143.91C71.561 144.367 71.463 144.855 71.463 145.373C71.463 145.909 71.5656 146.409 71.771 146.871C71.9763 147.333 72.261 147.736 72.625 148.082C72.989 148.427 73.409 148.698 73.885 148.894C74.3656 149.085 74.879 149.181 75.425 149.181ZM79.6942 148.957H81.4372V144.687C81.4372 144.407 81.5189 144.145 81.6822 143.903C81.8502 143.655 82.0672 143.457 82.3332 143.308C82.5992 143.154 82.8815 143.077 83.1802 143.077C83.3575 143.077 83.5465 143.105 83.7472 143.161C83.9479 143.217 84.1252 143.291 84.2792 143.385L85.0002 141.908C84.8229 141.805 84.6082 141.723 84.3562 141.663C84.1089 141.597 83.8662 141.565 83.6282 141.565C82.6809 141.565 81.9505 141.987 81.4372 142.832V141.789H79.6942V148.957ZM87.3161 140.319C87.6054 140.319 87.8528 140.216 88.0581 140.011C88.2634 139.801 88.3661 139.551 88.3661 139.262C88.3661 138.968 88.2634 138.718 88.0581 138.513C87.8528 138.307 87.6054 138.205 87.3161 138.205C87.0268 138.205 86.7771 138.307 86.5671 138.513C86.3618 138.718 86.2591 138.968 86.2591 139.262C86.2591 139.551 86.3618 139.801 86.5671 140.011C86.7771 140.216 87.0268 140.319 87.3161 140.319ZM86.4411 148.957H88.1841V141.789H86.4411V148.957ZM90.8915 152.597H92.6345V147.809C92.9518 148.243 93.3415 148.581 93.8035 148.824C94.2701 149.062 94.7741 149.181 95.3155 149.181C95.9921 149.181 96.5965 149.015 97.1285 148.684C97.6651 148.348 98.0875 147.893 98.3955 147.319C98.7081 146.745 98.8645 146.096 98.8645 145.373C98.8645 144.64 98.7081 143.989 98.3955 143.42C98.0828 142.846 97.6558 142.393 97.1145 142.062C96.5778 141.73 95.9641 141.565 95.2735 141.565C94.7275 141.565 94.2235 141.681 93.7615 141.915C93.2995 142.143 92.9238 142.465 92.6345 142.881V141.789H90.8915V152.597ZM94.8185 147.69C94.3891 147.69 94.0041 147.592 93.6635 147.396C93.3275 147.195 93.0638 146.92 92.8725 146.57C92.6811 146.22 92.5855 145.821 92.5855 145.373C92.5855 144.925 92.6811 144.526 92.8725 144.176C93.0638 143.826 93.3275 143.553 93.6635 143.357C94.0041 143.156 94.3891 143.056 94.8185 143.056C95.2431 143.056 95.6211 143.156 95.9525 143.357C96.2885 143.557 96.5521 143.833 96.7435 144.183C96.9395 144.528 97.0375 144.927 97.0375 145.38C97.0375 145.828 96.9418 146.227 96.7505 146.577C96.5591 146.922 96.2955 147.195 95.9595 147.396C95.6281 147.592 95.2478 147.69 94.8185 147.69ZM103.166 149.181C103.726 149.181 104.233 149.052 104.685 148.796L104.244 147.403C104.044 147.552 103.822 147.627 103.579 147.627C103.094 147.627 102.851 147.305 102.851 146.661V143.112H104.503V141.789H102.851V139.108H101.108V141.789H100.233V143.112H101.108V146.78C101.108 147.536 101.288 148.126 101.647 148.551C102.011 148.971 102.518 149.181 103.166 149.181Z" fill="#000C24"/>
</svg>
