<svg width="128" height="159" viewBox="0 0 128 159" fill="none" xmlns="http://www.w3.org/2000/svg">
<path d="M127.176 64.1304C127.176 99.4286 98.8074 128.043 63.813 128.043C28.8185 128.043 0.449951 99.4286 0.449951 64.1304C0.449951 28.8322 28.8185 0.217392 63.813 0.217392C98.8074 0.217392 127.176 28.8322 127.176 64.1304ZM18.1916 64.1304C18.1916 89.5451 38.617 110.148 63.813 110.148C89.009 110.148 109.434 89.5451 109.434 64.1304C109.434 38.7157 89.009 18.113 63.813 18.113C38.617 18.113 18.1916 38.7157 18.1916 64.1304Z" fill="#928A97" fill-opacity="0.27"/>
<path d="M63.813 128.043C53.8131 128.043 43.9553 125.656 35.0454 121.077C26.1356 116.497 18.4268 109.856 12.5495 101.695C6.67208 93.5346 2.79298 84.0868 1.22936 74.1242C-0.334268 64.1616 0.461983 53.9672 3.553 44.3745C6.64402 34.7818 11.942 26.0633 19.0138 18.9318C26.0856 11.8003 34.7304 6.45833 44.2412 3.34273C53.7521 0.22714 63.859 -0.573626 73.7354 1.00591C83.6119 2.58545 92.9775 6.50045 101.066 12.4308L90.6355 26.9067C84.8115 22.6368 78.0682 19.818 70.9572 18.6808C63.8461 17.5435 56.5691 18.1201 49.7213 20.3633C42.8735 22.6065 36.6493 26.4527 31.5576 31.5874C26.4659 36.7221 22.6513 42.9994 20.4258 49.9062C18.2003 56.8129 17.627 64.1529 18.7528 71.3259C19.8786 78.499 22.6715 85.3014 26.9032 91.177C31.135 97.0526 36.6853 101.835 43.1003 105.132C49.5154 108.429 56.6131 110.148 63.813 110.148L63.813 128.043Z" fill="#000C24"/>
<path d="M55.4341 70.192C56.1381 70.192 56.7581 70.048 57.2941 69.76C57.8341 69.472 58.2541 69.072 58.5541 68.56C58.8581 68.044 59.0101 67.45 59.0101 66.778C59.0101 66.114 58.8701 65.528 58.5901 65.02C58.3101 64.508 57.9301 64.108 57.4501 63.82C56.9741 63.528 56.4381 63.382 55.8421 63.382C55.4461 63.382 55.0921 63.462 54.7801 63.622L57.7441 60.1H55.8421L53.0461 63.46C52.6341 63.956 52.3081 64.496 52.0681 65.08C51.8281 65.664 51.7081 66.218 51.7081 66.742C51.7081 67.366 51.8621 67.94 52.1701 68.464C52.4781 68.988 52.9101 69.408 53.4661 69.724C54.0261 70.036 54.6821 70.192 55.4341 70.192ZM55.3621 68.872C54.9541 68.872 54.5961 68.782 54.2881 68.602C53.9841 68.418 53.7461 68.172 53.5741 67.864C53.4061 67.556 53.3221 67.216 53.3221 66.844C53.3221 66.444 53.4141 66.086 53.5981 65.77C53.7861 65.45 54.0381 65.198 54.3541 65.014C54.6701 64.826 55.0201 64.732 55.4041 64.732C55.7841 64.732 56.1261 64.824 56.4301 65.008C56.7381 65.188 56.9821 65.436 57.1621 65.752C57.3461 66.064 57.4381 66.422 57.4381 66.826C57.4381 67.218 57.3481 67.57 57.1681 67.882C56.9881 68.19 56.7421 68.432 56.4301 68.608C56.1181 68.784 55.7621 68.872 55.3621 68.872ZM64.4751 70.192C65.2831 70.192 65.9911 69.978 66.5991 69.55C67.2071 69.118 67.6811 68.516 68.0211 67.744C68.3611 66.972 68.5311 66.076 68.5311 65.056C68.5311 64.036 68.3611 63.14 68.0211 62.368C67.6811 61.596 67.2071 60.996 66.5991 60.568C65.9911 60.136 65.2831 59.92 64.4751 59.92C63.6671 59.92 62.9591 60.136 62.3511 60.568C61.7431 60.996 61.2691 61.596 60.9291 62.368C60.5891 63.14 60.4191 64.036 60.4191 65.056C60.4191 66.076 60.5891 66.972 60.9291 67.744C61.2691 68.516 61.7431 69.118 62.3511 69.55C62.9591 69.978 63.6671 70.192 64.4751 70.192ZM64.4751 68.8C63.9871 68.8 63.5631 68.648 63.2031 68.344C62.8431 68.04 62.5651 67.608 62.3691 67.048C62.1731 66.484 62.0751 65.82 62.0751 65.056C62.0751 64.288 62.1731 63.624 62.3691 63.064C62.5651 62.504 62.8431 62.072 63.2031 61.768C63.5631 61.464 63.9871 61.312 64.4751 61.312C64.9631 61.312 65.3871 61.464 65.7471 61.768C66.1071 62.072 66.3851 62.504 66.5811 63.064C66.7771 63.624 66.8751 64.288 66.8751 65.056C66.8751 65.82 66.7771 66.484 66.5811 67.048C66.3851 67.608 66.1071 68.04 65.7471 68.344C65.3871 68.648 64.9631 68.8 64.4751 68.8ZM72.6662 64.648C73.1502 64.648 73.5842 64.548 73.9682 64.348C74.3562 64.148 74.6622 63.87 74.8862 63.514C75.1142 63.158 75.2282 62.748 75.2282 62.284C75.2282 61.82 75.1142 61.41 74.8862 61.054C74.6622 60.698 74.3562 60.42 73.9682 60.22C73.5842 60.02 73.1502 59.92 72.6662 59.92C72.1822 59.92 71.7462 60.02 71.3582 60.22C70.9702 60.42 70.6622 60.698 70.4342 61.054C70.2102 61.41 70.0982 61.82 70.0982 62.284C70.0982 62.748 70.2102 63.158 70.4342 63.514C70.6622 63.87 70.9702 64.148 71.3582 64.348C71.7462 64.548 72.1822 64.648 72.6662 64.648ZM72.2222 70H73.2662L79.0262 60.1H77.9822L72.2222 70ZM72.6662 63.718C72.2622 63.718 71.9222 63.584 71.6462 63.316C71.3702 63.048 71.2322 62.704 71.2322 62.284C71.2322 61.864 71.3702 61.52 71.6462 61.252C71.9222 60.984 72.2622 60.85 72.6662 60.85C73.0702 60.85 73.4102 60.984 73.6862 61.252C73.9622 61.516 74.1002 61.86 74.1002 62.284C74.1002 62.704 73.9622 63.048 73.6862 63.316C73.4102 63.584 73.0702 63.718 72.6662 63.718ZM78.5822 70.186C79.0662 70.186 79.5022 70.086 79.8902 69.886C80.2782 69.686 80.5842 69.408 80.8082 69.052C81.0362 68.696 81.1502 68.286 81.1502 67.822C81.1502 67.358 81.0362 66.948 80.8082 66.592C80.5842 66.236 80.2782 65.958 79.8902 65.758C79.5022 65.558 79.0662 65.458 78.5822 65.458C78.0982 65.458 77.6622 65.558 77.2742 65.758C76.8862 65.958 76.5782 66.236 76.3502 66.592C76.1262 66.948 76.0142 67.358 76.0142 67.822C76.0142 68.286 76.1262 68.696 76.3502 69.052C76.5782 69.408 76.8862 69.686 77.2742 69.886C77.6622 70.086 78.0982 70.186 78.5822 70.186ZM78.5822 69.256C78.1822 69.256 77.8422 69.122 77.5622 68.854C77.2862 68.586 77.1482 68.242 77.1482 67.822C77.1482 67.402 77.2862 67.058 77.5622 66.79C77.8422 66.522 78.1822 66.388 78.5822 66.388C78.9862 66.388 79.3262 66.522 79.6022 66.79C79.8782 67.058 80.0162 67.402 80.0162 67.822C80.0162 68.242 79.8782 68.586 79.6022 68.854C79.3262 69.122 78.9862 69.256 78.5822 69.256Z" fill="#928A97"/>
<path d="M27.5062 150.494C28.1735 150.494 28.8222 150.384 29.4522 150.165C30.0822 149.941 30.6492 149.621 31.1532 149.206C31.6618 148.786 32.0655 148.279 32.3642 147.687C32.6628 147.089 32.8122 146.42 32.8122 145.678V144.187H27.4712V145.622H30.9432V145.874C30.9432 146.452 30.7822 146.963 30.4602 147.407C30.1428 147.845 29.7275 148.188 29.2142 148.436C28.7008 148.683 28.1572 148.807 27.5832 148.807C26.8785 148.807 26.2415 148.62 25.6722 148.247C25.1028 147.869 24.6502 147.351 24.3142 146.693C23.9828 146.035 23.8172 145.279 23.8172 144.425C23.8172 143.636 23.9665 142.92 24.2652 142.276C24.5685 141.627 25.0048 141.111 25.5742 140.729C26.1482 140.341 26.8435 140.148 27.6602 140.148C28.2948 140.148 28.9155 140.269 29.5222 140.512C30.1288 140.75 30.6422 141.079 31.0622 141.499L31.9442 140.085C31.3935 139.585 30.7402 139.198 29.9842 138.923C29.2328 138.647 28.4535 138.51 27.6462 138.51C26.7502 138.51 25.9428 138.671 25.2242 138.993C24.5102 139.31 23.9012 139.749 23.3972 140.309C22.8932 140.869 22.5082 141.508 22.2422 142.227C21.9762 142.945 21.8432 143.704 21.8432 144.502C21.8432 145.342 21.9878 146.126 22.2772 146.854C22.5665 147.582 22.9678 148.219 23.4812 148.765C23.9945 149.306 24.5942 149.731 25.2802 150.039C25.9662 150.342 26.7082 150.494 27.5062 150.494ZM35.8807 141.632C36.17 141.632 36.4173 141.529 36.6227 141.324C36.828 141.114 36.9307 140.864 36.9307 140.575C36.9307 140.281 36.828 140.031 36.6227 139.826C36.4173 139.62 36.17 139.518 35.8807 139.518C35.5913 139.518 35.3417 139.62 35.1317 139.826C34.9263 140.031 34.8237 140.281 34.8237 140.575C34.8237 140.864 34.9263 141.114 35.1317 141.324C35.3417 141.529 35.5913 141.632 35.8807 141.632ZM35.0057 150.27H36.7487V143.102H35.0057V150.27ZM41.682 150.494C42.242 150.494 42.7484 150.365 43.201 150.109L42.76 148.716C42.5594 148.865 42.3377 148.94 42.095 148.94C41.6097 148.94 41.367 148.618 41.367 147.974V144.425H43.019V143.102H41.367V140.421H39.624V143.102H38.749V144.425H39.624V148.093C39.624 148.849 39.8037 149.439 40.163 149.864C40.527 150.284 41.0334 150.494 41.682 150.494ZM43.8122 151.95H45.2822L51.0502 138.23H49.5802L43.8122 151.95ZM57.5843 150.494C58.2516 150.494 58.9003 150.384 59.5303 150.165C60.1603 149.941 60.7273 149.621 61.2313 149.206C61.74 148.786 62.1436 148.279 62.4423 147.687C62.741 147.089 62.8903 146.42 62.8903 145.678V144.187H57.5493V145.622H61.0213V145.874C61.0213 146.452 60.8603 146.963 60.5383 147.407C60.221 147.845 59.8056 148.188 59.2923 148.436C58.779 148.683 58.2353 148.807 57.6613 148.807C56.9566 148.807 56.3196 148.62 55.7503 148.247C55.181 147.869 54.7283 147.351 54.3923 146.693C54.061 146.035 53.8953 145.279 53.8953 144.425C53.8953 143.636 54.0446 142.92 54.3433 142.276C54.6466 141.627 55.083 141.111 55.6523 140.729C56.2263 140.341 56.9216 140.148 57.7383 140.148C58.373 140.148 58.9936 140.269 59.6003 140.512C60.207 140.75 60.7203 141.079 61.1403 141.499L62.0223 140.085C61.4716 139.585 60.8183 139.198 60.0623 138.923C59.311 138.647 58.5316 138.51 57.7243 138.51C56.8283 138.51 56.021 138.671 55.3023 138.993C54.5883 139.31 53.9793 139.749 53.4753 140.309C52.9713 140.869 52.5863 141.508 52.3203 142.227C52.0543 142.945 51.9213 143.704 51.9213 144.502C51.9213 145.342 52.066 146.126 52.3553 146.854C52.6446 147.582 53.046 148.219 53.5593 148.765C54.0726 149.306 54.6723 149.731 55.3583 150.039C56.0443 150.342 56.7863 150.494 57.5843 150.494ZM65.9588 141.632C66.2481 141.632 66.4955 141.529 66.7008 141.324C66.9061 141.114 67.0088 140.864 67.0088 140.575C67.0088 140.281 66.9061 140.031 66.7008 139.826C66.4955 139.62 66.2481 139.518 65.9588 139.518C65.6695 139.518 65.4198 139.62 65.2098 139.826C65.0045 140.031 64.9018 140.281 64.9018 140.575C64.9018 140.864 65.0045 141.114 65.2098 141.324C65.4198 141.529 65.6695 141.632 65.9588 141.632ZM65.0838 150.27H66.8268V143.102H65.0838V150.27ZM71.7602 150.494C72.3202 150.494 72.8265 150.365 73.2792 150.109L72.8382 148.716C72.6375 148.865 72.4158 148.94 72.1732 148.94C71.6878 148.94 71.4452 148.618 71.4452 147.974V144.425H73.0972V143.102H71.4452V140.421H69.7022V143.102H68.8272V144.425H69.7022V148.093C69.7022 148.849 69.8818 149.439 70.2412 149.864C70.6052 150.284 71.1115 150.494 71.7602 150.494ZM75.6123 150.27H77.4463V145.286H82.4793V150.27H84.3063V138.72H82.4793V143.676H77.4463V138.72H75.6123V150.27ZM90.6456 150.494C91.8729 150.494 92.7549 150.242 93.2916 149.738C93.8329 149.229 94.1036 148.391 94.1036 147.225V143.102H92.3606V146.833C92.3606 147.645 92.2299 148.221 91.9686 148.562C91.7119 148.898 91.2709 149.066 90.6456 149.066C90.0249 149.066 89.5839 148.898 89.3226 148.562C89.0613 148.221 88.9306 147.645 88.9306 146.833V143.102H87.1876V147.225C87.1876 148.391 87.4559 149.229 87.9926 149.738C88.5293 150.242 89.4136 150.494 90.6456 150.494ZM101.069 150.494C101.727 150.494 102.325 150.33 102.861 150.004C103.398 149.677 103.825 149.229 104.142 148.66C104.46 148.086 104.618 147.428 104.618 146.686C104.618 145.958 104.462 145.307 104.149 144.733C103.841 144.159 103.417 143.706 102.875 143.375C102.339 143.043 101.725 142.878 101.034 142.878C100.484 142.878 99.9775 142.994 99.5155 143.228C99.0535 143.461 98.6778 143.785 98.3885 144.201V138.23H96.6455V150.27H98.3885V149.122C98.7012 149.551 99.0885 149.887 99.5505 150.13C100.017 150.372 100.523 150.494 101.069 150.494ZM100.572 149.003C100.138 149.003 99.7535 148.905 99.4175 148.709C99.0815 148.508 98.8178 148.235 98.6265 147.89C98.4352 147.54 98.3395 147.141 98.3395 146.693C98.3395 146.24 98.4352 145.841 98.6265 145.496C98.8178 145.146 99.0815 144.87 99.4175 144.67C99.7582 144.469 100.143 144.369 100.572 144.369C100.997 144.369 101.375 144.469 101.706 144.67C102.042 144.87 102.306 145.146 102.497 145.496C102.693 145.841 102.791 146.24 102.791 146.693C102.791 147.136 102.696 147.533 102.504 147.883C102.318 148.233 102.056 148.508 101.72 148.709C101.389 148.905 101.006 149.003 100.572 149.003Z" fill="#000C24"/>
</svg>
