<svg width="129" height="160" viewBox="0 0 129 160" fill="none" xmlns="http://www.w3.org/2000/svg">
<path d="M128.145 64.1304C128.145 99.4286 99.7762 128.043 64.7817 128.043C29.7873 128.043 1.4187 99.4286 1.4187 64.1304C1.4187 28.8322 29.7873 0.217392 64.7817 0.217392C99.7762 0.217392 128.145 28.8322 128.145 64.1304ZM19.1603 64.1304C19.1603 89.5451 39.5857 110.148 64.7817 110.148C89.9777 110.148 110.403 89.5451 110.403 64.1304C110.403 38.7157 89.9777 18.113 64.7817 18.113C39.5857 18.113 19.1603 38.7157 19.1603 64.1304Z" fill="#928A97" fill-opacity="0.27"/>
<path d="M64.7817 128.043C53.9399 128.043 43.2795 125.237 33.8201 119.894C24.3608 114.55 16.419 106.847 10.7546 97.5228C5.0901 88.1981 1.89241 77.5634 1.46741 66.6359C1.0424 55.7084 3.40428 44.8536 8.32712 35.11C13.25 25.3665 20.5691 17.06 29.5843 10.9852C38.5995 4.91041 49.0093 1.27056 59.8178 0.413823C70.6263 -0.442913 81.4719 1.51213 91.3172 6.09192C101.162 10.6717 109.678 17.7231 116.049 26.5714L101.694 37.0879C97.1071 30.7171 90.9759 25.6402 83.8873 22.3427C76.7987 19.0453 68.9898 17.6376 61.2077 18.2545C53.4256 18.8713 45.9305 21.492 39.4396 25.8659C32.9486 30.2397 27.6789 36.2204 24.1344 43.2358C20.59 50.2511 18.8894 58.0665 19.1954 65.9344C19.5014 73.8022 21.8038 81.4592 25.8822 88.1729C29.9606 94.8867 35.6786 100.433 42.4894 104.28C49.3001 108.127 56.9756 110.148 64.7817 110.148L64.7817 128.043Z" fill="#000C24"/>
<path d="M57.5845 70.192C58.2885 70.192 58.9085 70.048 59.4445 69.76C59.9845 69.472 60.4045 69.072 60.7045 68.56C61.0085 68.044 61.1605 67.45 61.1605 66.778C61.1605 66.114 61.0205 65.528 60.7405 65.02C60.4605 64.508 60.0805 64.108 59.6005 63.82C59.1245 63.528 58.5885 63.382 57.9925 63.382C57.5965 63.382 57.2425 63.462 56.9305 63.622L59.8945 60.1H57.9925L55.1965 63.46C54.7845 63.956 54.4585 64.496 54.2185 65.08C53.9785 65.664 53.8585 66.218 53.8585 66.742C53.8585 67.366 54.0125 67.94 54.3205 68.464C54.6285 68.988 55.0605 69.408 55.6165 69.724C56.1765 70.036 56.8325 70.192 57.5845 70.192ZM57.5125 68.872C57.1045 68.872 56.7465 68.782 56.4385 68.602C56.1345 68.418 55.8965 68.172 55.7245 67.864C55.5565 67.556 55.4725 67.216 55.4725 66.844C55.4725 66.444 55.5645 66.086 55.7485 65.77C55.9365 65.45 56.1885 65.198 56.5045 65.014C56.8205 64.826 57.1705 64.732 57.5545 64.732C57.9345 64.732 58.2765 64.824 58.5805 65.008C58.8885 65.188 59.1325 65.436 59.3125 65.752C59.4965 66.064 59.5885 66.422 59.5885 66.826C59.5885 67.218 59.4985 67.57 59.3185 67.882C59.1385 68.19 58.8925 68.432 58.5805 68.608C58.2685 68.784 57.9125 68.872 57.5125 68.872ZM65.7855 70.186C66.4575 70.186 67.0655 70.054 67.6095 69.79C68.1575 69.522 68.5915 69.136 68.9115 68.632C69.2355 68.128 69.3975 67.516 69.3975 66.796C69.3975 66.02 69.1915 65.368 68.7795 64.84C68.3675 64.308 67.8235 63.968 67.1475 63.82C66.3515 63.572 65.5275 63.596 64.6755 63.892L65.0475 61.48H68.7615V60.1H63.7095L62.8815 65.422C63.5255 64.89 64.2615 64.624 65.0895 64.624C65.6335 64.624 66.1115 64.716 66.5235 64.9C66.9355 65.08 67.2575 65.34 67.4895 65.68C67.7215 66.016 67.8375 66.418 67.8375 66.886C67.8375 67.482 67.6495 67.962 67.2735 68.326C66.8975 68.69 66.3935 68.872 65.7615 68.872C65.2295 68.872 64.7635 68.742 64.3635 68.482C63.9635 68.218 63.6915 67.868 63.5475 67.432L62.2995 68.038C62.4675 68.494 62.7235 68.882 63.0675 69.202C63.4155 69.522 63.8235 69.766 64.2915 69.934C64.7595 70.102 65.2575 70.186 65.7855 70.186ZM73.5158 64.648C73.9998 64.648 74.4338 64.548 74.8178 64.348C75.2058 64.148 75.5118 63.87 75.7358 63.514C75.9638 63.158 76.0778 62.748 76.0778 62.284C76.0778 61.82 75.9638 61.41 75.7358 61.054C75.5118 60.698 75.2058 60.42 74.8178 60.22C74.4338 60.02 73.9998 59.92 73.5158 59.92C73.0318 59.92 72.5958 60.02 72.2078 60.22C71.8198 60.42 71.5118 60.698 71.2838 61.054C71.0598 61.41 70.9478 61.82 70.9478 62.284C70.9478 62.748 71.0598 63.158 71.2838 63.514C71.5118 63.87 71.8198 64.148 72.2078 64.348C72.5958 64.548 73.0318 64.648 73.5158 64.648ZM73.0718 70H74.1158L79.8758 60.1H78.8318L73.0718 70ZM73.5158 63.718C73.1118 63.718 72.7718 63.584 72.4958 63.316C72.2198 63.048 72.0818 62.704 72.0818 62.284C72.0818 61.864 72.2198 61.52 72.4958 61.252C72.7718 60.984 73.1118 60.85 73.5158 60.85C73.9198 60.85 74.2598 60.984 74.5358 61.252C74.8118 61.516 74.9498 61.86 74.9498 62.284C74.9498 62.704 74.8118 63.048 74.5358 63.316C74.2598 63.584 73.9198 63.718 73.5158 63.718ZM79.4318 70.186C79.9158 70.186 80.3518 70.086 80.7398 69.886C81.1278 69.686 81.4338 69.408 81.6578 69.052C81.8858 68.696 81.9998 68.286 81.9998 67.822C81.9998 67.358 81.8858 66.948 81.6578 66.592C81.4338 66.236 81.1278 65.958 80.7398 65.758C80.3518 65.558 79.9158 65.458 79.4318 65.458C78.9478 65.458 78.5118 65.558 78.1238 65.758C77.7358 65.958 77.4278 66.236 77.1998 66.592C76.9758 66.948 76.8638 67.358 76.8638 67.822C76.8638 68.286 76.9758 68.696 77.1998 69.052C77.4278 69.408 77.7358 69.686 78.1238 69.886C78.5118 70.086 78.9478 70.186 79.4318 70.186ZM79.4318 69.256C79.0318 69.256 78.6918 69.122 78.4118 68.854C78.1358 68.586 77.9978 68.242 77.9978 67.822C77.9978 67.402 78.1358 67.058 78.4118 66.79C78.6918 66.522 79.0318 66.388 79.4318 66.388C79.8358 66.388 80.1758 66.522 80.4518 66.79C80.7278 67.058 80.8658 67.402 80.8658 67.822C80.8658 68.242 80.7278 68.586 80.4518 68.854C80.1758 69.122 79.8358 69.256 79.4318 69.256Z" fill="#928A97"/>
<path d="M41.3714 150.27H43.2054V145.286H47.3144V143.676H43.2054V140.33H47.6224V138.72H41.3714V150.27ZM50.6534 141.632C50.9427 141.632 51.1901 141.529 51.3954 141.324C51.6007 141.114 51.7034 140.864 51.7034 140.575C51.7034 140.281 51.6007 140.031 51.3954 139.826C51.1901 139.62 50.9427 139.518 50.6534 139.518C50.3641 139.518 50.1144 139.62 49.9044 139.826C49.6991 140.031 49.5964 140.281 49.5964 140.575C49.5964 140.864 49.6991 141.114 49.9044 141.324C50.1144 141.529 50.3641 141.632 50.6534 141.632ZM49.7784 150.27H51.5214V143.102H49.7784V150.27ZM57.5748 154.12C58.9141 154.12 59.9291 153.786 60.6198 153.119C61.3104 152.451 61.6558 151.567 61.6558 150.466V143.102H59.9128V144.201C59.6281 143.785 59.2548 143.461 58.7928 143.228C58.3354 142.994 57.8291 142.878 57.2738 142.878C56.5831 142.878 55.9671 143.043 55.4258 143.375C54.8891 143.706 54.4644 144.159 54.1518 144.733C53.8438 145.307 53.6898 145.958 53.6898 146.686C53.6898 147.428 53.8484 148.086 54.1658 148.66C54.4831 149.229 54.9101 149.677 55.4468 150.004C55.9834 150.33 56.5784 150.494 57.2318 150.494C57.7824 150.494 58.2888 150.372 58.7508 150.13C59.2174 149.887 59.6048 149.551 59.9128 149.122V150.396C59.9128 151.072 59.6934 151.611 59.2548 152.013C58.8161 152.419 58.2561 152.622 57.5748 152.622C57.0568 152.622 56.5831 152.505 56.1538 152.272C55.7244 152.043 55.4071 151.735 55.2018 151.348L53.7738 152.034C54.0771 152.715 54.5508 153.233 55.1948 153.588C55.8388 153.942 56.6321 154.12 57.5748 154.12ZM57.7288 149.003C57.2994 149.003 56.9168 148.905 56.5808 148.709C56.2494 148.508 55.9881 148.233 55.7968 147.883C55.6101 147.533 55.5168 147.136 55.5168 146.693C55.5168 146.24 55.6124 145.841 55.8038 145.496C55.9951 145.146 56.2588 144.87 56.5948 144.67C56.9308 144.469 57.3134 144.369 57.7428 144.369C58.1721 144.369 58.5524 144.469 58.8838 144.67C59.2198 144.87 59.4834 145.146 59.6748 145.496C59.8708 145.841 59.9688 146.24 59.9688 146.693C59.9688 147.141 59.8731 147.54 59.6818 147.89C59.4904 148.235 59.2268 148.508 58.8908 148.709C58.5548 148.905 58.1674 149.003 57.7288 149.003ZM64.3596 150.27H66.1026V145.734C66.1026 145.477 66.1749 145.239 66.3196 145.02C66.4689 144.796 66.6719 144.616 66.9286 144.481C67.1853 144.345 67.4723 144.278 67.7896 144.278C68.2563 144.278 68.6249 144.429 68.8956 144.733C69.1663 145.031 69.3016 145.433 69.3016 145.937V150.27H71.0446V145.741C71.0446 145.353 71.2009 145.013 71.5136 144.719C71.8309 144.425 72.2299 144.278 72.7106 144.278C73.1773 144.278 73.5483 144.434 73.8236 144.747C74.1036 145.055 74.2436 145.475 74.2436 146.007V150.27H75.9866V145.531C75.9866 144.98 75.8723 144.506 75.6436 144.11C75.4149 143.713 75.0999 143.41 74.6986 143.2C74.2973 142.985 73.8399 142.878 73.3266 142.878C72.7853 142.878 72.3093 143.001 71.8986 143.249C71.4879 143.491 71.1216 143.841 70.7996 144.299C70.6129 143.865 70.3003 143.519 69.8616 143.263C69.4229 143.006 68.9213 142.878 68.3566 142.878C67.5026 142.878 66.7513 143.239 66.1026 143.963V143.102H64.3596V150.27ZM81.5817 150.494C82.123 150.494 82.6224 150.375 83.0797 150.137C83.5417 149.894 83.9314 149.556 84.2487 149.122V150.27H85.9917V143.102H84.2487V144.201C83.9734 143.785 83.5977 143.461 83.1217 143.228C82.6504 142.994 82.137 142.878 81.5817 142.878C80.891 142.878 80.2774 143.043 79.7407 143.375C79.2087 143.706 78.7887 144.159 78.4807 144.733C78.1774 145.307 78.0257 145.955 78.0257 146.679C78.0257 147.416 78.182 148.072 78.4947 148.646C78.812 149.22 79.239 149.672 79.7757 150.004C80.317 150.33 80.919 150.494 81.5817 150.494ZM82.0787 149.003C81.6494 149.003 81.2667 148.902 80.9307 148.702C80.5947 148.501 80.331 148.228 80.1397 147.883C79.9484 147.533 79.8527 147.134 79.8527 146.686C79.8527 146.238 79.9484 145.839 80.1397 145.489C80.331 145.139 80.5947 144.866 80.9307 144.67C81.2667 144.469 81.6494 144.369 82.0787 144.369C82.5127 144.369 82.8954 144.469 83.2267 144.67C83.5627 144.866 83.824 145.139 84.0107 145.489C84.202 145.834 84.2977 146.233 84.2977 146.686C84.2977 147.134 84.202 147.533 84.0107 147.883C83.824 148.233 83.5627 148.508 83.2267 148.709C82.8954 148.905 82.5127 149.003 82.0787 149.003Z" fill="#000C24"/>
</svg>
