<svg width="569" height="350" viewBox="0 0 569 350" fill="none" xmlns="http://www.w3.org/2000/svg">
<path d="M233.176 254.13C233.176 289.429 204.807 318.043 169.813 318.043C134.819 318.043 106.45 289.429 106.45 254.13C106.45 218.832 134.819 190.217 169.813 190.217C204.807 190.217 233.176 218.832 233.176 254.13ZM124.192 254.13C124.192 279.545 144.617 300.148 169.813 300.148C195.009 300.148 215.434 279.545 215.434 254.13C215.434 228.716 195.009 208.113 169.813 208.113C144.617 208.113 124.192 228.716 124.192 254.13Z" fill="#928A97" fill-opacity="0.27"/>
<path d="M169.813 318.043C159.813 318.043 149.955 315.656 141.045 311.077C132.136 306.497 124.427 299.856 118.549 291.695C112.672 283.535 108.793 274.087 107.229 264.124C105.666 254.162 106.462 243.967 109.553 234.375C112.644 224.782 117.942 216.063 125.014 208.932C132.086 201.8 140.73 196.458 150.241 193.343C159.752 190.227 169.859 189.426 179.735 191.006C189.612 192.585 198.978 196.5 207.066 202.431L196.636 216.907C190.811 212.637 184.068 209.818 176.957 208.681C169.846 207.544 162.569 208.12 155.721 210.363C148.874 212.607 142.649 216.453 137.558 221.587C132.466 226.722 128.651 232.999 126.426 239.906C124.2 246.813 123.627 254.153 124.753 261.326C125.879 268.499 128.672 275.301 132.903 281.177C137.135 287.053 142.685 291.835 149.1 295.132C155.515 298.429 162.613 300.148 169.813 300.148L169.813 318.043Z" fill="#000C24"/>
<path d="M158.113 255.375C158.817 255.375 159.437 255.231 159.973 254.943C160.513 254.655 160.933 254.255 161.233 253.743C161.537 253.227 161.689 252.633 161.689 251.961C161.689 251.297 161.549 250.711 161.269 250.203C160.989 249.691 160.609 249.291 160.129 249.003C159.653 248.711 159.117 248.565 158.521 248.565C158.125 248.565 157.771 248.645 157.459 248.805L160.423 245.283H158.521L155.725 248.643C155.313 249.139 154.987 249.679 154.747 250.263C154.507 250.847 154.387 251.401 154.387 251.925C154.387 252.549 154.541 253.123 154.849 253.647C155.157 254.171 155.589 254.591 156.145 254.907C156.705 255.219 157.361 255.375 158.113 255.375ZM158.041 254.055C157.633 254.055 157.275 253.965 156.967 253.785C156.663 253.601 156.425 253.355 156.253 253.047C156.085 252.739 156.001 252.399 156.001 252.027C156.001 251.627 156.093 251.269 156.277 250.953C156.465 250.633 156.717 250.381 157.033 250.197C157.349 250.009 157.699 249.915 158.083 249.915C158.463 249.915 158.805 250.007 159.109 250.191C159.417 250.371 159.661 250.619 159.841 250.935C160.025 251.247 160.117 251.605 160.117 252.009C160.117 252.401 160.027 252.753 159.847 253.065C159.667 253.373 159.421 253.615 159.109 253.791C158.797 253.967 158.441 254.055 158.041 254.055ZM167.154 255.375C167.962 255.375 168.67 255.161 169.278 254.733C169.886 254.301 170.36 253.699 170.7 252.927C171.04 252.155 171.21 251.259 171.21 250.239C171.21 249.219 171.04 248.323 170.7 247.551C170.36 246.779 169.886 246.179 169.278 245.751C168.67 245.319 167.962 245.103 167.154 245.103C166.346 245.103 165.638 245.319 165.03 245.751C164.422 246.179 163.948 246.779 163.608 247.551C163.268 248.323 163.098 249.219 163.098 250.239C163.098 251.259 163.268 252.155 163.608 252.927C163.948 253.699 164.422 254.301 165.03 254.733C165.638 255.161 166.346 255.375 167.154 255.375ZM167.154 253.983C166.666 253.983 166.242 253.831 165.882 253.527C165.522 253.223 165.244 252.791 165.048 252.231C164.852 251.667 164.754 251.003 164.754 250.239C164.754 249.471 164.852 248.807 165.048 248.247C165.244 247.687 165.522 247.255 165.882 246.951C166.242 246.647 166.666 246.495 167.154 246.495C167.642 246.495 168.066 246.647 168.426 246.951C168.786 247.255 169.064 247.687 169.26 248.247C169.456 248.807 169.554 249.471 169.554 250.239C169.554 251.003 169.456 251.667 169.26 252.231C169.064 252.791 168.786 253.223 168.426 253.527C168.066 253.831 167.642 253.983 167.154 253.983ZM175.346 249.831C175.83 249.831 176.264 249.731 176.648 249.531C177.036 249.331 177.342 249.053 177.566 248.697C177.794 248.341 177.908 247.931 177.908 247.467C177.908 247.003 177.794 246.593 177.566 246.237C177.342 245.881 177.036 245.603 176.648 245.403C176.264 245.203 175.83 245.103 175.346 245.103C174.862 245.103 174.426 245.203 174.038 245.403C173.65 245.603 173.342 245.881 173.113 246.237C172.89 246.593 172.778 247.003 172.778 247.467C172.778 247.931 172.89 248.341 173.113 248.697C173.342 249.053 173.65 249.331 174.038 249.531C174.426 249.731 174.862 249.831 175.346 249.831ZM174.902 255.183H175.946L181.706 245.283H180.662L174.902 255.183ZM175.346 248.901C174.942 248.901 174.602 248.767 174.326 248.499C174.05 248.231 173.912 247.887 173.912 247.467C173.912 247.047 174.05 246.703 174.326 246.435C174.602 246.167 174.942 246.033 175.346 246.033C175.75 246.033 176.09 246.167 176.366 246.435C176.642 246.699 176.78 247.043 176.78 247.467C176.78 247.887 176.642 248.231 176.366 248.499C176.09 248.767 175.75 248.901 175.346 248.901ZM181.262 255.369C181.746 255.369 182.182 255.269 182.57 255.069C182.958 254.869 183.264 254.591 183.488 254.235C183.716 253.879 183.83 253.469 183.83 253.005C183.83 252.541 183.716 252.131 183.488 251.775C183.264 251.419 182.958 251.141 182.57 250.941C182.182 250.741 181.746 250.641 181.262 250.641C180.778 250.641 180.342 250.741 179.954 250.941C179.566 251.141 179.258 251.419 179.03 251.775C178.806 252.131 178.694 252.541 178.694 253.005C178.694 253.469 178.806 253.879 179.03 254.235C179.258 254.591 179.566 254.869 179.954 255.069C180.342 255.269 180.778 255.369 181.262 255.369ZM181.262 254.439C180.862 254.439 180.522 254.305 180.242 254.037C179.966 253.769 179.828 253.425 179.828 253.005C179.828 252.585 179.966 252.241 180.242 251.973C180.522 251.705 180.862 251.571 181.262 251.571C181.666 251.571 182.006 251.705 182.282 251.973C182.558 252.241 182.696 252.585 182.696 253.005C182.696 253.425 182.558 253.769 182.282 254.037C182.006 254.305 181.666 254.439 181.262 254.439Z" fill="#928A97"/>
<path d="M133.506 340.494C134.173 340.494 134.822 340.384 135.452 340.165C136.082 339.941 136.649 339.621 137.153 339.206C137.662 338.786 138.065 338.279 138.364 337.687C138.663 337.089 138.812 336.42 138.812 335.678V334.187H133.471V335.622H136.943V335.874C136.943 336.452 136.782 336.963 136.46 337.407C136.143 337.845 135.727 338.188 135.214 338.436C134.701 338.683 134.157 338.807 133.583 338.807C132.878 338.807 132.241 338.62 131.672 338.247C131.103 337.869 130.65 337.351 130.314 336.693C129.983 336.035 129.817 335.279 129.817 334.425C129.817 333.636 129.966 332.92 130.265 332.276C130.568 331.627 131.005 331.111 131.574 330.729C132.148 330.341 132.843 330.148 133.66 330.148C134.295 330.148 134.915 330.269 135.522 330.512C136.129 330.75 136.642 331.079 137.062 331.499L137.944 330.085C137.393 329.585 136.74 329.198 135.984 328.923C135.233 328.647 134.453 328.51 133.646 328.51C132.75 328.51 131.943 328.671 131.224 328.993C130.51 329.31 129.901 329.749 129.397 330.309C128.893 330.869 128.508 331.508 128.242 332.227C127.976 332.945 127.843 333.704 127.843 334.502C127.843 335.342 127.988 336.126 128.277 336.854C128.566 337.582 128.968 338.219 129.481 338.765C129.994 339.306 130.594 339.731 131.28 340.039C131.966 340.342 132.708 340.494 133.506 340.494ZM141.881 331.632C142.17 331.632 142.417 331.529 142.623 331.324C142.828 331.114 142.931 330.864 142.931 330.575C142.931 330.281 142.828 330.031 142.623 329.826C142.417 329.62 142.17 329.518 141.881 329.518C141.591 329.518 141.342 329.62 141.132 329.826C140.926 330.031 140.824 330.281 140.824 330.575C140.824 330.864 140.926 331.114 141.132 331.324C141.342 331.529 141.591 331.632 141.881 331.632ZM141.006 340.27H142.749V333.102H141.006V340.27ZM147.682 340.494C148.242 340.494 148.748 340.365 149.201 340.109L148.76 338.716C148.559 338.865 148.338 338.94 148.095 338.94C147.61 338.94 147.367 338.618 147.367 337.974V334.425H149.019V333.102H147.367V330.421H145.624V333.102H144.749V334.425H145.624V338.093C145.624 338.849 145.804 339.439 146.163 339.864C146.527 340.284 147.033 340.494 147.682 340.494ZM149.812 341.95H151.282L157.05 328.23H155.58L149.812 341.95ZM163.584 340.494C164.252 340.494 164.9 340.384 165.53 340.165C166.16 339.941 166.727 339.621 167.231 339.206C167.74 338.786 168.144 338.279 168.442 337.687C168.741 337.089 168.89 336.42 168.89 335.678V334.187H163.549V335.622H167.021V335.874C167.021 336.452 166.86 336.963 166.538 337.407C166.221 337.845 165.806 338.188 165.292 338.436C164.779 338.683 164.235 338.807 163.661 338.807C162.957 338.807 162.32 338.62 161.75 338.247C161.181 337.869 160.728 337.351 160.392 336.693C160.061 336.035 159.895 335.279 159.895 334.425C159.895 333.636 160.045 332.92 160.343 332.276C160.647 331.627 161.083 331.111 161.652 330.729C162.226 330.341 162.922 330.148 163.738 330.148C164.373 330.148 164.994 330.269 165.6 330.512C166.207 330.75 166.72 331.079 167.14 331.499L168.022 330.085C167.472 329.585 166.818 329.198 166.062 328.923C165.311 328.647 164.532 328.51 163.724 328.51C162.828 328.51 162.021 328.671 161.302 328.993C160.588 329.31 159.979 329.749 159.475 330.309C158.971 330.869 158.586 331.508 158.32 332.227C158.054 332.945 157.921 333.704 157.921 334.502C157.921 335.342 158.066 336.126 158.355 336.854C158.645 337.582 159.046 338.219 159.559 338.765C160.073 339.306 160.672 339.731 161.358 340.039C162.044 340.342 162.786 340.494 163.584 340.494ZM171.959 331.632C172.248 331.632 172.495 331.529 172.701 331.324C172.906 331.114 173.009 330.864 173.009 330.575C173.009 330.281 172.906 330.031 172.701 329.826C172.495 329.62 172.248 329.518 171.959 329.518C171.669 329.518 171.42 329.62 171.21 329.826C171.004 330.031 170.902 330.281 170.902 330.575C170.902 330.864 171.004 331.114 171.21 331.324C171.42 331.529 171.669 331.632 171.959 331.632ZM171.084 340.27H172.827V333.102H171.084V340.27ZM177.76 340.494C178.32 340.494 178.826 340.365 179.279 340.109L178.838 338.716C178.637 338.865 178.416 338.94 178.173 338.94C177.688 338.94 177.445 338.618 177.445 337.974V334.425H179.097V333.102H177.445V330.421H175.702V333.102H174.827V334.425H175.702V338.093C175.702 338.849 175.882 339.439 176.241 339.864C176.605 340.284 177.111 340.494 177.76 340.494ZM181.612 340.27H183.446V335.286H188.479V340.27H190.306V328.72H188.479V333.676H183.446V328.72H181.612V340.27ZM196.646 340.494C197.873 340.494 198.755 340.242 199.292 339.738C199.833 339.229 200.104 338.391 200.104 337.225V333.102H198.361V336.833C198.361 337.645 198.23 338.221 197.969 338.562C197.712 338.898 197.271 339.066 196.646 339.066C196.025 339.066 195.584 338.898 195.323 338.562C195.061 338.221 194.931 337.645 194.931 336.833V333.102H193.188V337.225C193.188 338.391 193.456 339.229 193.993 339.738C194.529 340.242 195.414 340.494 196.646 340.494ZM207.069 340.494C207.727 340.494 208.325 340.33 208.861 340.004C209.398 339.677 209.825 339.229 210.142 338.66C210.46 338.086 210.618 337.428 210.618 336.686C210.618 335.958 210.462 335.307 210.149 334.733C209.841 334.159 209.417 333.706 208.875 333.375C208.339 333.043 207.725 332.878 207.034 332.878C206.484 332.878 205.977 332.994 205.515 333.228C205.053 333.461 204.678 333.785 204.388 334.201V328.23H202.645V340.27H204.388V339.122C204.701 339.551 205.088 339.887 205.55 340.13C206.017 340.372 206.523 340.494 207.069 340.494ZM206.572 339.003C206.138 339.003 205.753 338.905 205.417 338.709C205.081 338.508 204.818 338.235 204.626 337.89C204.435 337.54 204.339 337.141 204.339 336.693C204.339 336.24 204.435 335.841 204.626 335.496C204.818 335.146 205.081 334.87 205.417 334.67C205.758 334.469 206.143 334.369 206.572 334.369C206.997 334.369 207.375 334.469 207.706 334.67C208.042 334.87 208.306 335.146 208.497 335.496C208.693 335.841 208.791 336.24 208.791 336.693C208.791 337.136 208.696 337.533 208.504 337.883C208.318 338.233 208.056 338.508 207.72 338.709C207.389 338.905 207.006 339.003 206.572 339.003Z" fill="#000C24"/>
<path d="M451.145 254.13C451.145 289.429 422.776 318.043 387.782 318.043C352.787 318.043 324.419 289.429 324.419 254.13C324.419 218.832 352.787 190.217 387.782 190.217C422.776 190.217 451.145 218.832 451.145 254.13ZM342.16 254.13C342.16 279.545 362.586 300.148 387.782 300.148C412.978 300.148 433.403 279.545 433.403 254.13C433.403 228.716 412.978 208.113 387.782 208.113C362.586 208.113 342.16 228.716 342.16 254.13Z" fill="#928A97" fill-opacity="0.27"/>
<path d="M387.782 318.043C374.397 318.043 361.355 313.768 350.528 305.83C339.701 297.892 331.644 286.7 327.513 273.858C323.381 261.016 323.388 247.184 327.531 234.346C331.674 221.508 339.742 210.323 350.577 202.395C361.411 194.468 374.457 190.205 387.842 190.217C401.227 190.23 414.264 194.518 425.084 202.466C435.903 210.415 443.95 221.615 448.069 234.461C452.189 247.307 452.169 261.138 448.014 273.973L431.149 268.417C434.141 259.176 434.155 249.217 431.189 239.968C428.223 230.719 422.429 222.655 414.639 216.932C406.849 211.21 397.462 208.122 387.825 208.113C378.188 208.104 368.795 211.173 360.994 216.881C353.193 222.589 347.384 230.642 344.401 239.885C341.418 249.129 341.413 259.088 344.388 268.334C347.362 277.58 353.164 285.639 360.959 291.354C368.755 297.069 378.144 300.148 387.782 300.148L387.782 318.043Z" fill="#000C24"/>
<path d="M375.996 255.375C376.64 255.375 377.22 255.251 377.736 255.003C378.252 254.751 378.66 254.407 378.96 253.971C379.264 253.535 379.416 253.041 379.416 252.489C379.416 251.905 379.252 251.381 378.924 250.917C378.6 250.449 378.164 250.105 377.616 249.885C378.044 249.673 378.384 249.369 378.636 248.973C378.892 248.573 379.02 248.133 379.02 247.653C379.02 247.257 378.934 246.903 378.762 246.591C378.594 246.275 378.364 246.007 378.072 245.787C377.784 245.567 377.46 245.399 377.1 245.283C376.744 245.163 376.376 245.103 375.996 245.103C375.436 245.103 374.928 245.215 374.472 245.439C374.016 245.663 373.652 245.967 373.38 246.351C373.112 246.735 372.978 247.171 372.978 247.659C372.978 248.123 373.102 248.555 373.35 248.955C373.598 249.355 373.94 249.665 374.376 249.885C373.84 250.101 373.406 250.443 373.074 250.911C372.746 251.375 372.582 251.899 372.582 252.483C372.582 253.039 372.732 253.535 373.032 253.971C373.336 254.407 373.746 254.751 374.262 255.003C374.778 255.251 375.356 255.375 375.996 255.375ZM375.996 249.297C375.568 249.297 375.21 249.157 374.922 248.877C374.638 248.593 374.496 248.237 374.496 247.809C374.496 247.381 374.64 247.023 374.928 246.735C375.216 246.447 375.572 246.303 375.996 246.303C376.428 246.303 376.786 246.447 377.07 246.735C377.358 247.023 377.502 247.381 377.502 247.809C377.502 248.237 377.36 248.593 377.076 248.877C376.792 249.157 376.432 249.297 375.996 249.297ZM375.996 254.007C375.492 254.007 375.082 253.847 374.766 253.527C374.45 253.207 374.292 252.805 374.292 252.321C374.292 251.989 374.366 251.697 374.514 251.445C374.666 251.189 374.87 250.989 375.126 250.845C375.386 250.701 375.676 250.629 375.996 250.629C376.488 250.629 376.896 250.789 377.22 251.109C377.544 251.429 377.706 251.835 377.706 252.327C377.706 252.807 377.548 253.207 377.232 253.527C376.916 253.847 376.504 254.007 375.996 254.007ZM385.047 255.375C385.855 255.375 386.563 255.161 387.171 254.733C387.779 254.301 388.253 253.699 388.593 252.927C388.933 252.155 389.103 251.259 389.103 250.239C389.103 249.219 388.933 248.323 388.593 247.551C388.253 246.779 387.779 246.179 387.171 245.751C386.563 245.319 385.855 245.103 385.047 245.103C384.239 245.103 383.531 245.319 382.923 245.751C382.315 246.179 381.841 246.779 381.501 247.551C381.161 248.323 380.991 249.219 380.991 250.239C380.991 251.259 381.161 252.155 381.501 252.927C381.841 253.699 382.315 254.301 382.923 254.733C383.531 255.161 384.239 255.375 385.047 255.375ZM385.047 253.983C384.559 253.983 384.135 253.831 383.775 253.527C383.415 253.223 383.137 252.791 382.941 252.231C382.745 251.667 382.647 251.003 382.647 250.239C382.647 249.471 382.745 248.807 382.941 248.247C383.137 247.687 383.415 247.255 383.775 246.951C384.135 246.647 384.559 246.495 385.047 246.495C385.535 246.495 385.959 246.647 386.319 246.951C386.679 247.255 386.957 247.687 387.153 248.247C387.349 248.807 387.447 249.471 387.447 250.239C387.447 251.003 387.349 251.667 387.153 252.231C386.957 252.791 386.679 253.223 386.319 253.527C385.959 253.831 385.535 253.983 385.047 253.983ZM393.238 249.831C393.722 249.831 394.156 249.731 394.54 249.531C394.928 249.331 395.234 249.053 395.458 248.697C395.686 248.341 395.8 247.931 395.8 247.467C395.8 247.003 395.686 246.593 395.458 246.237C395.234 245.881 394.928 245.603 394.54 245.403C394.156 245.203 393.722 245.103 393.238 245.103C392.754 245.103 392.318 245.203 391.93 245.403C391.542 245.603 391.234 245.881 391.006 246.237C390.782 246.593 390.67 247.003 390.67 247.467C390.67 247.931 390.782 248.341 391.006 248.697C391.234 249.053 391.542 249.331 391.93 249.531C392.318 249.731 392.754 249.831 393.238 249.831ZM392.794 255.183H393.838L399.598 245.283H398.554L392.794 255.183ZM393.238 248.901C392.834 248.901 392.494 248.767 392.218 248.499C391.942 248.231 391.804 247.887 391.804 247.467C391.804 247.047 391.942 246.703 392.218 246.435C392.494 246.167 392.834 246.033 393.238 246.033C393.642 246.033 393.982 246.167 394.258 246.435C394.534 246.699 394.672 247.043 394.672 247.467C394.672 247.887 394.534 248.231 394.258 248.499C393.982 248.767 393.642 248.901 393.238 248.901ZM399.154 255.369C399.638 255.369 400.074 255.269 400.462 255.069C400.85 254.869 401.156 254.591 401.38 254.235C401.608 253.879 401.722 253.469 401.722 253.005C401.722 252.541 401.608 252.131 401.38 251.775C401.156 251.419 400.85 251.141 400.462 250.941C400.074 250.741 399.638 250.641 399.154 250.641C398.67 250.641 398.234 250.741 397.846 250.941C397.458 251.141 397.15 251.419 396.922 251.775C396.698 252.131 396.586 252.541 396.586 253.005C396.586 253.469 396.698 253.879 396.922 254.235C397.15 254.591 397.458 254.869 397.846 255.069C398.234 255.269 398.67 255.369 399.154 255.369ZM399.154 254.439C398.754 254.439 398.414 254.305 398.134 254.037C397.858 253.769 397.72 253.425 397.72 253.005C397.72 252.585 397.858 252.241 398.134 251.973C398.414 251.705 398.754 251.571 399.154 251.571C399.558 251.571 399.898 251.705 400.174 251.973C400.45 252.241 400.588 252.585 400.588 253.005C400.588 253.425 400.45 253.769 400.174 254.037C399.898 254.305 399.558 254.439 399.154 254.439Z" fill="#928A97"/>
<path d="M364.371 340.27H366.205V335.286H370.314V333.676H366.205V330.33H370.622V328.72H364.371V340.27ZM373.653 331.632C373.943 331.632 374.19 331.529 374.395 331.324C374.601 331.114 374.703 330.864 374.703 330.575C374.703 330.281 374.601 330.031 374.395 329.826C374.19 329.62 373.943 329.518 373.653 329.518C373.364 329.518 373.114 329.62 372.904 329.826C372.699 330.031 372.596 330.281 372.596 330.575C372.596 330.864 372.699 331.114 372.904 331.324C373.114 331.529 373.364 331.632 373.653 331.632ZM372.778 340.27H374.521V333.102H372.778V340.27ZM380.575 344.12C381.914 344.12 382.929 343.786 383.62 343.119C384.31 342.451 384.656 341.567 384.656 340.466V333.102H382.913V334.201C382.628 333.785 382.255 333.461 381.793 333.228C381.335 332.994 380.829 332.878 380.274 332.878C379.583 332.878 378.967 333.043 378.426 333.375C377.889 333.706 377.464 334.159 377.152 334.733C376.844 335.307 376.69 335.958 376.69 336.686C376.69 337.428 376.848 338.086 377.166 338.66C377.483 339.229 377.91 339.677 378.447 340.004C378.983 340.33 379.578 340.494 380.232 340.494C380.782 340.494 381.289 340.372 381.751 340.13C382.217 339.887 382.605 339.551 382.913 339.122V340.396C382.913 341.072 382.693 341.611 382.255 342.013C381.816 342.419 381.256 342.622 380.575 342.622C380.057 342.622 379.583 342.505 379.154 342.272C378.724 342.043 378.407 341.735 378.202 341.348L376.774 342.034C377.077 342.715 377.551 343.233 378.195 343.588C378.839 343.942 379.632 344.12 380.575 344.12ZM380.729 339.003C380.299 339.003 379.917 338.905 379.581 338.709C379.249 338.508 378.988 338.233 378.797 337.883C378.61 337.533 378.517 337.136 378.517 336.693C378.517 336.24 378.612 335.841 378.804 335.496C378.995 335.146 379.259 334.87 379.595 334.67C379.931 334.469 380.313 334.369 380.743 334.369C381.172 334.369 381.552 334.469 381.884 334.67C382.22 334.87 382.483 335.146 382.675 335.496C382.871 335.841 382.969 336.24 382.969 336.693C382.969 337.141 382.873 337.54 382.682 337.89C382.49 338.235 382.227 338.508 381.891 338.709C381.555 338.905 381.167 339.003 380.729 339.003ZM387.36 340.27H389.103V335.734C389.103 335.477 389.175 335.239 389.32 335.02C389.469 334.796 389.672 334.616 389.929 334.481C390.185 334.345 390.472 334.278 390.79 334.278C391.256 334.278 391.625 334.429 391.896 334.733C392.166 335.031 392.302 335.433 392.302 335.937V340.27H394.045V335.741C394.045 335.353 394.201 335.013 394.514 334.719C394.831 334.425 395.23 334.278 395.711 334.278C396.177 334.278 396.548 334.434 396.824 334.747C397.104 335.055 397.244 335.475 397.244 336.007V340.27H398.987V335.531C398.987 334.98 398.872 334.506 398.644 334.11C398.415 333.713 398.1 333.41 397.699 333.2C397.297 332.985 396.84 332.878 396.327 332.878C395.785 332.878 395.309 333.001 394.899 333.249C394.488 333.491 394.122 333.841 393.8 334.299C393.613 333.865 393.3 333.519 392.862 333.263C392.423 333.006 391.921 332.878 391.357 332.878C390.503 332.878 389.751 333.239 389.103 333.963V333.102H387.36V340.27ZM404.582 340.494C405.123 340.494 405.622 340.375 406.08 340.137C406.542 339.894 406.931 339.556 407.249 339.122V340.27H408.992V333.102H407.249V334.201C406.973 333.785 406.598 333.461 406.122 333.228C405.65 332.994 405.137 332.878 404.582 332.878C403.891 332.878 403.277 333.043 402.741 333.375C402.209 333.706 401.789 334.159 401.481 334.733C401.177 335.307 401.026 335.955 401.026 336.679C401.026 337.416 401.182 338.072 401.495 338.646C401.812 339.22 402.239 339.672 402.776 340.004C403.317 340.33 403.919 340.494 404.582 340.494ZM405.079 339.003C404.649 339.003 404.267 338.902 403.931 338.702C403.595 338.501 403.331 338.228 403.14 337.883C402.948 337.533 402.853 337.134 402.853 336.686C402.853 336.238 402.948 335.839 403.14 335.489C403.331 335.139 403.595 334.866 403.931 334.67C404.267 334.469 404.649 334.369 405.079 334.369C405.513 334.369 405.895 334.469 406.227 334.67C406.563 334.866 406.824 335.139 407.011 335.489C407.202 335.834 407.298 336.233 407.298 336.686C407.298 337.134 407.202 337.533 407.011 337.883C406.824 338.233 406.563 338.508 406.227 338.709C405.895 338.905 405.513 339.003 405.079 339.003Z" fill="#000C24"/>
<path d="M133.062 63.4058C133.062 98.4239 104.694 126.812 69.6993 126.812C34.7049 126.812 6.3363 98.4239 6.3363 63.4058C6.3363 28.3877 34.7049 0 69.6993 0C104.694 0 133.062 28.3877 133.062 63.4058ZM24.0779 63.4058C24.0779 88.6188 44.5033 109.058 69.6993 109.058C94.8953 109.058 115.321 88.6188 115.321 63.4058C115.321 38.1928 94.8953 17.7536 69.6993 17.7536C44.5033 17.7536 24.0779 38.1928 24.0779 63.4058Z" fill="#928A97" fill-opacity="0.27"/>
<path d="M69.6993 126.812C53.755 126.812 38.3967 120.796 26.6885 109.966C14.9802 99.1358 7.78261 84.2865 6.53163 68.3806C5.28065 52.4746 10.0682 36.6815 19.9393 24.1516C29.8103 11.6218 44.0391 3.27655 59.7872 0.780629C75.5352 -1.7153 91.6447 1.82163 104.902 10.6858C118.159 19.55 127.59 33.0898 131.312 48.604C135.034 64.1183 132.774 80.4665 124.983 94.3872C117.193 108.308 104.444 118.778 89.2796 123.708L83.7971 106.824C94.7152 103.274 103.894 95.7354 109.504 85.7124C115.113 75.6895 116.74 63.9188 114.06 52.7485C111.38 41.5782 104.59 31.8296 95.0452 25.4474C85.5 19.0652 73.9012 16.5186 62.5626 18.3157C51.224 20.1127 40.9792 26.1213 33.8721 35.1428C26.7649 44.1643 23.3179 55.5354 24.2186 66.9876C25.1193 78.4399 30.3015 89.1314 38.7315 96.9292C47.1615 104.727 58.2194 109.058 69.6993 109.058L69.6993 126.812Z" fill="#000C24"/>
<path d="M52.5444 64.529H54.4524L57.2424 61.169C57.5264 60.825 57.7684 60.493 57.9684 60.173C58.1724 59.849 58.3264 59.507 58.4304 59.147C58.5384 58.783 58.5904 58.371 58.5864 57.911C58.5864 57.263 58.4304 56.677 58.1184 56.153C57.8064 55.629 57.3704 55.213 56.8104 54.905C56.2504 54.597 55.5984 54.443 54.8544 54.443C54.1184 54.443 53.4844 54.593 52.9524 54.893C52.4204 55.193 52.0084 55.599 51.7164 56.111C51.4284 56.623 51.2844 57.197 51.2844 57.833C51.2844 58.333 51.3704 58.791 51.5424 59.207C51.7184 59.623 51.9564 59.985 52.2564 60.293C52.5604 60.597 52.9064 60.833 53.2944 61.001C53.6824 61.165 54.0904 61.247 54.5184 61.247C54.9184 61.247 55.2644 61.151 55.5564 60.959L52.5444 64.529ZM54.9264 59.879C54.5344 59.879 54.1824 59.789 53.8704 59.609C53.5584 59.425 53.3124 59.177 53.1324 58.865C52.9524 58.553 52.8624 58.199 52.8624 57.803C52.8624 57.411 52.9524 57.063 53.1324 56.759C53.3124 56.455 53.5564 56.215 53.8644 56.039C54.1764 55.863 54.5304 55.775 54.9264 55.775C55.3184 55.775 55.6664 55.863 55.9704 56.039C56.2784 56.211 56.5184 56.449 56.6904 56.753C56.8664 57.057 56.9544 57.407 56.9544 57.803C56.9544 58.187 56.8624 58.537 56.6784 58.853C56.4984 59.165 56.2544 59.415 55.9464 59.603C55.6424 59.787 55.3024 59.879 54.9264 59.879ZM64.0874 64.721C64.8954 64.721 65.6034 64.507 66.2114 64.079C66.8194 63.647 67.2934 63.045 67.6334 62.273C67.9734 61.501 68.1434 60.605 68.1434 59.585C68.1434 58.565 67.9734 57.669 67.6334 56.897C67.2934 56.125 66.8194 55.525 66.2114 55.097C65.6034 54.665 64.8954 54.449 64.0874 54.449C63.2794 54.449 62.5714 54.665 61.9634 55.097C61.3554 55.525 60.8814 56.125 60.5414 56.897C60.2014 57.669 60.0314 58.565 60.0314 59.585C60.0314 60.605 60.2014 61.501 60.5414 62.273C60.8814 63.045 61.3554 63.647 61.9634 64.079C62.5714 64.507 63.2794 64.721 64.0874 64.721ZM64.0874 63.329C63.5994 63.329 63.1754 63.177 62.8154 62.873C62.4554 62.569 62.1774 62.137 61.9814 61.577C61.7854 61.013 61.6874 60.349 61.6874 59.585C61.6874 58.817 61.7854 58.153 61.9814 57.593C62.1774 57.033 62.4554 56.601 62.8154 56.297C63.1754 55.993 63.5994 55.841 64.0874 55.841C64.5754 55.841 64.9994 55.993 65.3594 56.297C65.7194 56.601 65.9974 57.033 66.1934 57.593C66.3894 58.153 66.4874 58.817 66.4874 59.585C66.4874 60.349 66.3894 61.013 66.1934 61.577C65.9974 62.137 65.7194 62.569 65.3594 62.873C64.9994 63.177 64.5754 63.329 64.0874 63.329ZM72.2785 59.177C72.7625 59.177 73.1965 59.077 73.5805 58.877C73.9685 58.677 74.2745 58.399 74.4985 58.043C74.7265 57.687 74.8405 57.277 74.8405 56.813C74.8405 56.349 74.7265 55.939 74.4985 55.583C74.2745 55.227 73.9685 54.949 73.5805 54.749C73.1965 54.549 72.7625 54.449 72.2785 54.449C71.7945 54.449 71.3585 54.549 70.9705 54.749C70.5825 54.949 70.2745 55.227 70.0465 55.583C69.8225 55.939 69.7105 56.349 69.7105 56.813C69.7105 57.277 69.8225 57.687 70.0465 58.043C70.2745 58.399 70.5825 58.677 70.9705 58.877C71.3585 59.077 71.7945 59.177 72.2785 59.177ZM71.8345 64.529H72.8785L78.6385 54.629H77.5945L71.8345 64.529ZM72.2785 58.247C71.8745 58.247 71.5345 58.113 71.2585 57.845C70.9825 57.577 70.8445 57.233 70.8445 56.813C70.8445 56.393 70.9825 56.049 71.2585 55.781C71.5345 55.513 71.8745 55.379 72.2785 55.379C72.6825 55.379 73.0225 55.513 73.2985 55.781C73.5745 56.045 73.7125 56.389 73.7125 56.813C73.7125 57.233 73.5745 57.577 73.2985 57.845C73.0225 58.113 72.6825 58.247 72.2785 58.247ZM78.1945 64.715C78.6785 64.715 79.1145 64.615 79.5025 64.415C79.8905 64.215 80.1965 63.937 80.4205 63.581C80.6485 63.225 80.7625 62.815 80.7625 62.351C80.7625 61.887 80.6485 61.477 80.4205 61.121C80.1965 60.765 79.8905 60.487 79.5025 60.287C79.1145 60.087 78.6785 59.987 78.1945 59.987C77.7105 59.987 77.2745 60.087 76.8865 60.287C76.4985 60.487 76.1905 60.765 75.9625 61.121C75.7385 61.477 75.6265 61.887 75.6265 62.351C75.6265 62.815 75.7385 63.225 75.9625 63.581C76.1905 63.937 76.4985 64.215 76.8865 64.415C77.2745 64.615 77.7105 64.715 78.1945 64.715ZM78.1945 63.785C77.7945 63.785 77.4545 63.651 77.1745 63.383C76.8985 63.115 76.7605 62.771 76.7605 62.351C76.7605 61.931 76.8985 61.587 77.1745 61.319C77.4545 61.051 77.7945 60.917 78.1945 60.917C78.5985 60.917 78.9385 61.051 79.2145 61.319C79.4905 61.587 79.6285 61.931 79.6285 62.351C79.6285 62.771 79.4905 63.115 79.2145 63.383C78.9385 63.651 78.5985 63.785 78.1945 63.785Z" fill="#928A97"/>
<path d="M43.5 148.957H45.334V143.973H50.367V148.957H52.194V137.407H50.367V142.363H45.334V137.407H43.5V148.957ZM56.8133 148.957H58.6403V139.038H61.7903V137.407H53.6703V139.038H56.8133V148.957ZM63.3447 148.957H65.1787L66.0957 140.725L68.9727 148.523H70.1417L73.0117 140.725L73.9357 148.957H75.7627L74.4887 137.407H72.5427L69.5537 145.282L66.5647 137.407H64.6187L63.3447 148.957ZM78.5546 148.957H84.7986V147.347H80.3886V137.407H78.5546V148.957ZM89.9315 149.174C90.7155 149.174 91.4248 149.02 92.0595 148.712C92.6988 148.399 93.2052 147.949 93.5785 147.361C93.9565 146.773 94.1455 146.059 94.1455 145.219C94.1455 144.313 93.9052 143.553 93.4245 142.937C92.9438 142.316 92.3092 141.919 91.5205 141.747C90.5918 141.457 89.6305 141.485 88.6365 141.831L89.0705 139.017H93.4035V137.407H87.5095L86.5435 143.616C87.2948 142.995 88.1535 142.685 89.1195 142.685C89.7542 142.685 90.3118 142.792 90.7925 143.007C91.2732 143.217 91.6488 143.52 91.9195 143.917C92.1902 144.309 92.3255 144.778 92.3255 145.324C92.3255 146.019 92.1062 146.579 91.6675 147.004C91.2288 147.428 90.6408 147.641 89.9035 147.641C89.2828 147.641 88.7392 147.489 88.2725 147.186C87.8058 146.878 87.4885 146.469 87.3205 145.961L85.8645 146.668C86.0605 147.2 86.3592 147.652 86.7605 148.026C87.1665 148.399 87.6425 148.684 88.1885 148.88C88.7345 149.076 89.3155 149.174 89.9315 149.174Z" fill="#000C24"/>
<path d="M351.031 63.4058C351.031 98.4239 322.663 126.812 287.668 126.812C252.674 126.812 224.305 98.4239 224.305 63.4058C224.305 28.3877 252.674 0 287.668 0C322.663 0 351.031 28.3877 351.031 63.4058ZM242.047 63.4058C242.047 88.6188 262.472 109.058 287.668 109.058C312.864 109.058 333.29 88.6188 333.29 63.4058C333.29 38.1928 312.864 17.7536 287.668 17.7536C262.472 17.7536 242.047 38.1928 242.047 63.4058Z" fill="#928A97" fill-opacity="0.27"/>
<path d="M287.668 126.812C275.989 126.812 264.537 123.581 254.577 117.478C244.617 111.374 236.537 102.635 231.228 92.2249C225.92 81.8148 223.59 70.1391 224.496 58.4872C225.402 46.8354 229.509 35.6608 236.362 26.1976C243.216 16.7345 252.55 9.35094 263.334 4.8625C274.117 0.374057 285.93 -1.04464 297.469 0.763093C309.008 2.57082 319.823 7.53464 328.719 15.1063C337.616 22.678 344.248 32.563 347.883 43.6694L331.023 49.1956C328.406 41.1989 323.63 34.0818 317.225 28.6302C310.819 23.1786 303.033 19.6046 294.725 18.303C286.417 17.0015 277.911 18.0229 270.147 21.2546C262.383 24.4863 255.663 29.8024 250.728 36.6159C245.793 43.4294 242.837 51.4751 242.184 59.8644C241.532 68.2538 243.209 76.6603 247.032 84.1556C250.854 91.6508 256.671 97.9432 263.843 102.338C271.014 106.732 279.259 109.058 287.668 109.058L287.668 126.812Z" fill="#000C24"/>
<path d="M269.103 64.529H270.963L276.195 55.103V54.629H269.301V56.009H273.873L269.103 64.529ZM281.306 64.721C282.114 64.721 282.822 64.507 283.43 64.079C284.038 63.647 284.512 63.045 284.852 62.273C285.192 61.501 285.362 60.605 285.362 59.585C285.362 58.565 285.192 57.669 284.852 56.897C284.512 56.125 284.038 55.525 283.43 55.097C282.822 54.665 282.114 54.449 281.306 54.449C280.498 54.449 279.79 54.665 279.182 55.097C278.574 55.525 278.1 56.125 277.76 56.897C277.42 57.669 277.25 58.565 277.25 59.585C277.25 60.605 277.42 61.501 277.76 62.273C278.1 63.045 278.574 63.647 279.182 64.079C279.79 64.507 280.498 64.721 281.306 64.721ZM281.306 63.329C280.818 63.329 280.394 63.177 280.034 62.873C279.674 62.569 279.396 62.137 279.2 61.577C279.004 61.013 278.906 60.349 278.906 59.585C278.906 58.817 279.004 58.153 279.2 57.593C279.396 57.033 279.674 56.601 280.034 56.297C280.394 55.993 280.818 55.841 281.306 55.841C281.794 55.841 282.218 55.993 282.578 56.297C282.938 56.601 283.216 57.033 283.412 57.593C283.608 58.153 283.706 58.817 283.706 59.585C283.706 60.349 283.608 61.013 283.412 61.577C283.216 62.137 282.938 62.569 282.578 62.873C282.218 63.177 281.794 63.329 281.306 63.329ZM289.497 59.177C289.981 59.177 290.415 59.077 290.799 58.877C291.187 58.677 291.493 58.399 291.717 58.043C291.945 57.687 292.059 57.277 292.059 56.813C292.059 56.349 291.945 55.939 291.717 55.583C291.493 55.227 291.187 54.949 290.799 54.749C290.415 54.549 289.981 54.449 289.497 54.449C289.013 54.449 288.577 54.549 288.189 54.749C287.801 54.949 287.493 55.227 287.265 55.583C287.041 55.939 286.929 56.349 286.929 56.813C286.929 57.277 287.041 57.687 287.265 58.043C287.493 58.399 287.801 58.677 288.189 58.877C288.577 59.077 289.013 59.177 289.497 59.177ZM289.053 64.529H290.097L295.857 54.629H294.813L289.053 64.529ZM289.497 58.247C289.093 58.247 288.753 58.113 288.477 57.845C288.201 57.577 288.063 57.233 288.063 56.813C288.063 56.393 288.201 56.049 288.477 55.781C288.753 55.513 289.093 55.379 289.497 55.379C289.901 55.379 290.241 55.513 290.517 55.781C290.793 56.045 290.931 56.389 290.931 56.813C290.931 57.233 290.793 57.577 290.517 57.845C290.241 58.113 289.901 58.247 289.497 58.247ZM295.413 64.715C295.897 64.715 296.333 64.615 296.721 64.415C297.109 64.215 297.415 63.937 297.639 63.581C297.867 63.225 297.981 62.815 297.981 62.351C297.981 61.887 297.867 61.477 297.639 61.121C297.415 60.765 297.109 60.487 296.721 60.287C296.333 60.087 295.897 59.987 295.413 59.987C294.929 59.987 294.493 60.087 294.105 60.287C293.717 60.487 293.409 60.765 293.181 61.121C292.957 61.477 292.845 61.887 292.845 62.351C292.845 62.815 292.957 63.225 293.181 63.581C293.409 63.937 293.717 64.215 294.105 64.415C294.493 64.615 294.929 64.715 295.413 64.715ZM295.413 63.785C295.013 63.785 294.673 63.651 294.393 63.383C294.117 63.115 293.979 62.771 293.979 62.351C293.979 61.931 294.117 61.587 294.393 61.319C294.673 61.051 295.013 60.917 295.413 60.917C295.817 60.917 296.157 61.051 296.433 61.319C296.709 61.587 296.847 61.931 296.847 62.351C296.847 62.771 296.709 63.115 296.433 63.383C296.157 63.651 295.817 63.785 295.413 63.785Z" fill="#928A97"/>
<path d="M273.648 149.181C274.371 149.181 275.05 149.076 275.685 148.866C276.324 148.656 276.87 148.385 277.323 148.054L276.518 146.5C276.168 146.78 275.753 146.997 275.272 147.151C274.791 147.305 274.285 147.382 273.753 147.382C272.913 147.382 272.164 147.197 271.506 146.829C270.848 146.455 270.33 145.954 269.952 145.324C269.574 144.689 269.385 143.977 269.385 143.189C269.385 142.4 269.574 141.691 269.952 141.061C270.33 140.426 270.848 139.924 271.506 139.556C272.164 139.182 272.913 138.996 273.753 138.996C274.285 138.996 274.791 139.073 275.272 139.227C275.753 139.381 276.168 139.598 276.518 139.878L277.323 138.324C276.856 137.983 276.303 137.71 275.664 137.505C275.025 137.299 274.348 137.197 273.634 137.197C272.766 137.197 271.954 137.351 271.198 137.659C270.447 137.962 269.784 138.387 269.21 138.933C268.641 139.479 268.195 140.116 267.873 140.844C267.551 141.567 267.39 142.349 267.39 143.189C267.39 144.029 267.551 144.813 267.873 145.541C268.195 146.264 268.641 146.899 269.21 147.445C269.784 147.991 270.449 148.418 271.205 148.726C271.961 149.029 272.775 149.181 273.648 149.181ZM282.374 149.181C283.163 149.181 283.858 149.048 284.46 148.782C285.067 148.511 285.54 148.121 285.881 147.613C286.226 147.099 286.399 146.481 286.399 145.758C286.399 145.072 286.245 144.514 285.937 144.085C285.634 143.651 285.216 143.287 284.684 142.993C284.152 142.694 283.545 142.409 282.864 142.139C282.519 142.003 282.199 141.87 281.905 141.74C281.616 141.604 281.385 141.439 281.212 141.243C281.039 141.042 280.953 140.778 280.953 140.452C280.953 140.032 281.109 139.663 281.422 139.346C281.735 139.024 282.178 138.863 282.752 138.863C283.242 138.863 283.697 138.97 284.117 139.185C284.537 139.395 284.878 139.637 285.139 139.913L285.937 138.52C285.718 138.291 285.438 138.076 285.097 137.876C284.761 137.675 284.388 137.512 283.977 137.386C283.571 137.26 283.151 137.197 282.717 137.197C282.012 137.197 281.394 137.351 280.862 137.659C280.33 137.967 279.915 138.37 279.616 138.87C279.322 139.369 279.175 139.908 279.175 140.487C279.175 141.019 279.296 141.471 279.539 141.845C279.782 142.213 280.09 142.524 280.463 142.776C280.841 143.023 281.228 143.231 281.625 143.399C282.18 143.627 282.668 143.844 283.088 144.05C283.508 144.25 283.835 144.486 284.068 144.757C284.301 145.023 284.418 145.37 284.418 145.8C284.418 146.355 284.227 146.775 283.844 147.06C283.461 147.34 282.988 147.48 282.423 147.48C281.891 147.48 281.417 147.379 281.002 147.179C280.587 146.973 280.232 146.74 279.938 146.479C279.644 146.217 279.411 145.998 279.238 145.821L278.272 147.305C278.393 147.445 278.571 147.62 278.804 147.83C279.037 148.035 279.324 148.243 279.665 148.453C280.01 148.658 280.407 148.831 280.855 148.971C281.308 149.111 281.814 149.181 282.374 149.181ZM291.657 149.181C292.446 149.181 293.141 149.048 293.743 148.782C294.35 148.511 294.824 148.121 295.164 147.613C295.51 147.099 295.682 146.481 295.682 145.758C295.682 145.072 295.528 144.514 295.22 144.085C294.917 143.651 294.499 143.287 293.967 142.993C293.435 142.694 292.829 142.409 292.147 142.139C291.802 142.003 291.482 141.87 291.188 141.74C290.899 141.604 290.668 141.439 290.495 141.243C290.323 141.042 290.236 140.778 290.236 140.452C290.236 140.032 290.393 139.663 290.705 139.346C291.018 139.024 291.461 138.863 292.035 138.863C292.525 138.863 292.98 138.97 293.4 139.185C293.82 139.395 294.161 139.637 294.422 139.913L295.22 138.52C295.001 138.291 294.721 138.076 294.38 137.876C294.044 137.675 293.671 137.512 293.26 137.386C292.854 137.26 292.434 137.197 292 137.197C291.296 137.197 290.677 137.351 290.145 137.659C289.613 137.967 289.198 138.37 288.899 138.87C288.605 139.369 288.458 139.908 288.458 140.487C288.458 141.019 288.58 141.471 288.822 141.845C289.065 142.213 289.373 142.524 289.746 142.776C290.124 143.023 290.512 143.231 290.908 143.399C291.464 143.627 291.951 143.844 292.371 144.05C292.791 144.25 293.118 144.486 293.351 144.757C293.585 145.023 293.701 145.37 293.701 145.8C293.701 146.355 293.51 146.775 293.127 147.06C292.745 147.34 292.271 147.48 291.706 147.48C291.174 147.48 290.701 147.379 290.285 147.179C289.87 146.973 289.515 146.74 289.221 146.479C288.927 146.217 288.694 145.998 288.521 145.821L287.555 147.305C287.677 147.445 287.854 147.62 288.087 147.83C288.321 148.035 288.608 148.243 288.948 148.453C289.294 148.658 289.69 148.831 290.138 148.971C290.591 149.111 291.097 149.181 291.657 149.181ZM301.067 149.181C301.856 149.181 302.544 149.029 303.132 148.726C303.72 148.418 304.177 147.998 304.504 147.466C304.831 146.934 304.994 146.332 304.994 145.66C304.994 144.997 304.833 144.425 304.511 143.945C304.189 143.464 303.771 143.107 303.258 142.874C303.697 142.636 304.042 142.302 304.294 141.873C304.546 141.439 304.672 140.958 304.672 140.431C304.672 139.815 304.518 139.264 304.21 138.779C303.907 138.289 303.489 137.904 302.957 137.624C302.43 137.339 301.83 137.197 301.158 137.197C300.57 137.197 300.029 137.311 299.534 137.54C299.039 137.768 298.626 138.086 298.295 138.492C297.964 138.893 297.747 139.36 297.644 139.892L299.121 140.536C299.154 140.186 299.263 139.873 299.45 139.598C299.637 139.318 299.877 139.098 300.171 138.94C300.465 138.776 300.785 138.695 301.13 138.695C301.475 138.695 301.788 138.774 302.068 138.933C302.348 139.087 302.57 139.299 302.733 139.57C302.901 139.836 302.985 140.134 302.985 140.466C302.985 140.802 302.899 141.114 302.726 141.404C302.558 141.688 302.332 141.919 302.047 142.097C301.762 142.274 301.443 142.363 301.088 142.363H300.612V143.616C300.738 143.569 300.899 143.546 301.095 143.546C301.473 143.546 301.816 143.639 302.124 143.826C302.432 144.012 302.677 144.267 302.859 144.589C303.046 144.911 303.139 145.272 303.139 145.674C303.139 146.243 302.95 146.703 302.572 147.053C302.199 147.398 301.699 147.571 301.074 147.571C300.407 147.571 299.863 147.379 299.443 146.997C299.023 146.609 298.799 146.11 298.771 145.499L297.049 146.262C297.175 146.845 297.422 147.356 297.791 147.795C298.164 148.233 298.631 148.574 299.191 148.817C299.751 149.059 300.376 149.181 301.067 149.181Z" fill="#000C24"/>
<path d="M569 63.4058C569 98.4239 540.631 126.812 505.637 126.812C470.643 126.812 442.274 98.4239 442.274 63.4058C442.274 28.3877 470.643 0 505.637 0C540.631 0 569 28.3877 569 63.4058ZM460.016 63.4058C460.016 88.6188 480.441 109.058 505.637 109.058C530.833 109.058 551.258 88.6188 551.258 63.4058C551.258 38.1928 530.833 17.7536 505.637 17.7536C480.441 17.7536 460.016 38.1928 460.016 63.4058Z" fill="#928A97" fill-opacity="0.27"/>
<path d="M505.637 126.812C495.637 126.812 485.778 124.443 476.868 119.899C467.958 115.356 460.249 108.766 454.371 100.67C448.494 92.5732 444.615 83.1995 443.053 73.3153C441.49 63.4312 442.287 53.3171 445.379 43.8004C448.471 34.2836 453.771 25.6344 460.844 18.56C467.917 11.4857 476.563 6.18704 486.075 3.09748C495.586 0.00792939 505.694 -0.784817 515.571 0.784072C525.448 2.35296 534.813 6.23893 542.901 12.1242L532.467 26.483C526.644 22.2456 519.901 19.4478 512.789 18.3182C505.678 17.1886 498.401 17.7593 491.552 19.9838C484.704 22.2083 478.478 26.0233 473.386 31.1168C468.293 36.2104 464.478 42.4378 462.251 49.2899C460.025 56.142 459.451 63.4241 460.576 70.5407C461.702 77.6573 464.494 84.4063 468.726 90.2358C472.957 96.0653 478.508 100.81 484.923 104.081C491.339 107.353 498.437 109.058 505.637 109.058L505.637 126.812Z" fill="#000C24"/>
<path d="M489.717 64.721C490.421 64.721 491.041 64.577 491.577 64.289C492.117 64.001 492.537 63.601 492.837 63.089C493.141 62.573 493.293 61.979 493.293 61.307C493.293 60.643 493.153 60.057 492.873 59.549C492.593 59.037 492.213 58.637 491.733 58.349C491.257 58.057 490.721 57.911 490.125 57.911C489.729 57.911 489.375 57.991 489.063 58.151L492.027 54.629H490.125L487.329 57.989C486.917 58.485 486.591 59.025 486.351 59.609C486.111 60.193 485.991 60.747 485.991 61.271C485.991 61.895 486.145 62.469 486.453 62.993C486.761 63.517 487.193 63.937 487.749 64.253C488.309 64.565 488.965 64.721 489.717 64.721ZM489.645 63.401C489.237 63.401 488.879 63.311 488.571 63.131C488.267 62.947 488.029 62.701 487.857 62.393C487.689 62.085 487.605 61.745 487.605 61.373C487.605 60.973 487.697 60.615 487.881 60.299C488.069 59.979 488.321 59.727 488.637 59.543C488.953 59.355 489.303 59.261 489.687 59.261C490.067 59.261 490.409 59.353 490.713 59.537C491.021 59.717 491.265 59.965 491.445 60.281C491.629 60.593 491.721 60.951 491.721 61.355C491.721 61.747 491.631 62.099 491.451 62.411C491.271 62.719 491.025 62.961 490.713 63.137C490.401 63.313 490.045 63.401 489.645 63.401ZM498.758 64.721C499.566 64.721 500.274 64.507 500.882 64.079C501.49 63.647 501.964 63.045 502.304 62.273C502.644 61.501 502.814 60.605 502.814 59.585C502.814 58.565 502.644 57.669 502.304 56.897C501.964 56.125 501.49 55.525 500.882 55.097C500.274 54.665 499.566 54.449 498.758 54.449C497.95 54.449 497.242 54.665 496.634 55.097C496.026 55.525 495.552 56.125 495.212 56.897C494.872 57.669 494.702 58.565 494.702 59.585C494.702 60.605 494.872 61.501 495.212 62.273C495.552 63.045 496.026 63.647 496.634 64.079C497.242 64.507 497.95 64.721 498.758 64.721ZM498.758 63.329C498.27 63.329 497.846 63.177 497.486 62.873C497.126 62.569 496.848 62.137 496.652 61.577C496.456 61.013 496.358 60.349 496.358 59.585C496.358 58.817 496.456 58.153 496.652 57.593C496.848 57.033 497.126 56.601 497.486 56.297C497.846 55.993 498.27 55.841 498.758 55.841C499.246 55.841 499.67 55.993 500.03 56.297C500.39 56.601 500.668 57.033 500.864 57.593C501.06 58.153 501.158 58.817 501.158 59.585C501.158 60.349 501.06 61.013 500.864 61.577C500.668 62.137 500.39 62.569 500.03 62.873C499.67 63.177 499.246 63.329 498.758 63.329ZM506.949 59.177C507.433 59.177 507.867 59.077 508.251 58.877C508.639 58.677 508.945 58.399 509.169 58.043C509.397 57.687 509.511 57.277 509.511 56.813C509.511 56.349 509.397 55.939 509.169 55.583C508.945 55.227 508.639 54.949 508.251 54.749C507.867 54.549 507.433 54.449 506.949 54.449C506.465 54.449 506.029 54.549 505.641 54.749C505.253 54.949 504.945 55.227 504.717 55.583C504.493 55.939 504.381 56.349 504.381 56.813C504.381 57.277 504.493 57.687 504.717 58.043C504.945 58.399 505.253 58.677 505.641 58.877C506.029 59.077 506.465 59.177 506.949 59.177ZM506.505 64.529H507.549L513.309 54.629H512.265L506.505 64.529ZM506.949 58.247C506.545 58.247 506.205 58.113 505.929 57.845C505.653 57.577 505.515 57.233 505.515 56.813C505.515 56.393 505.653 56.049 505.929 55.781C506.205 55.513 506.545 55.379 506.949 55.379C507.353 55.379 507.693 55.513 507.969 55.781C508.245 56.045 508.383 56.389 508.383 56.813C508.383 57.233 508.245 57.577 507.969 57.845C507.693 58.113 507.353 58.247 506.949 58.247ZM512.865 64.715C513.349 64.715 513.785 64.615 514.173 64.415C514.561 64.215 514.867 63.937 515.091 63.581C515.319 63.225 515.433 62.815 515.433 62.351C515.433 61.887 515.319 61.477 515.091 61.121C514.867 60.765 514.561 60.487 514.173 60.287C513.785 60.087 513.349 59.987 512.865 59.987C512.381 59.987 511.945 60.087 511.557 60.287C511.169 60.487 510.861 60.765 510.633 61.121C510.409 61.477 510.297 61.887 510.297 62.351C510.297 62.815 510.409 63.225 510.633 63.581C510.861 63.937 511.169 64.215 511.557 64.415C511.945 64.615 512.381 64.715 512.865 64.715ZM512.865 63.785C512.465 63.785 512.125 63.651 511.845 63.383C511.569 63.115 511.431 62.771 511.431 62.351C511.431 61.931 511.569 61.587 511.845 61.319C512.125 61.051 512.465 60.917 512.865 60.917C513.269 60.917 513.609 61.051 513.885 61.319C514.161 61.587 514.299 61.931 514.299 62.351C514.299 62.771 514.161 63.115 513.885 63.383C513.609 63.651 513.269 63.785 512.865 63.785Z" fill="#928A97"/>
<path d="M465.923 149.181C467.001 149.181 467.846 148.877 468.457 148.271C469.069 147.659 469.374 146.805 469.374 145.709V137.407H467.54V145.219C467.54 145.909 467.375 146.451 467.043 146.843C466.712 147.235 466.25 147.431 465.657 147.431C465.027 147.431 464.418 147.146 463.83 146.577L463.193 148.096C463.959 148.819 464.869 149.181 465.923 149.181ZM475.301 149.181C475.842 149.181 476.342 149.062 476.799 148.824C477.261 148.581 477.651 148.243 477.968 147.809V148.957H479.711V141.789H477.968V142.888C477.693 142.472 477.317 142.148 476.841 141.915C476.37 141.681 475.856 141.565 475.301 141.565C474.61 141.565 473.997 141.73 473.46 142.062C472.928 142.393 472.508 142.846 472.2 143.42C471.897 143.994 471.745 144.642 471.745 145.366C471.745 146.103 471.901 146.759 472.214 147.333C472.531 147.907 472.958 148.359 473.495 148.691C474.036 149.017 474.638 149.181 475.301 149.181ZM475.798 147.69C475.369 147.69 474.986 147.589 474.65 147.389C474.314 147.188 474.05 146.915 473.859 146.57C473.668 146.22 473.572 145.821 473.572 145.373C473.572 144.925 473.668 144.526 473.859 144.176C474.05 143.826 474.314 143.553 474.65 143.357C474.986 143.156 475.369 143.056 475.798 143.056C476.232 143.056 476.615 143.156 476.946 143.357C477.282 143.553 477.543 143.826 477.73 144.176C477.921 144.521 478.017 144.92 478.017 145.373C478.017 145.821 477.921 146.22 477.73 146.57C477.543 146.92 477.282 147.195 476.946 147.396C476.615 147.592 476.232 147.69 475.798 147.69ZM484.775 148.957H485.937L489.605 141.789H487.547L485.356 146.612L483.165 141.789H481.107L484.775 148.957ZM493.977 149.181C494.518 149.181 495.017 149.062 495.475 148.824C495.937 148.581 496.326 148.243 496.644 147.809V148.957H498.387V141.789H496.644V142.888C496.368 142.472 495.993 142.148 495.517 141.915C495.045 141.681 494.532 141.565 493.977 141.565C493.286 141.565 492.672 141.73 492.136 142.062C491.604 142.393 491.184 142.846 490.876 143.42C490.572 143.994 490.421 144.642 490.421 145.366C490.421 146.103 490.577 146.759 490.89 147.333C491.207 147.907 491.634 148.359 492.171 148.691C492.712 149.017 493.314 149.181 493.977 149.181ZM494.474 147.69C494.044 147.69 493.662 147.589 493.326 147.389C492.99 147.188 492.726 146.915 492.535 146.57C492.343 146.22 492.248 145.821 492.248 145.373C492.248 144.925 492.343 144.526 492.535 144.176C492.726 143.826 492.99 143.553 493.326 143.357C493.662 143.156 494.044 143.056 494.474 143.056C494.908 143.056 495.29 143.156 495.622 143.357C495.958 143.553 496.219 143.826 496.406 144.176C496.597 144.521 496.693 144.92 496.693 145.373C496.693 145.821 496.597 146.22 496.406 146.57C496.219 146.92 495.958 147.195 495.622 147.396C495.29 147.592 494.908 147.69 494.474 147.69ZM507.819 149.181C508.608 149.181 509.303 149.048 509.905 148.782C510.512 148.511 510.986 148.121 511.326 147.613C511.672 147.099 511.844 146.481 511.844 145.758C511.844 145.072 511.69 144.514 511.382 144.085C511.079 143.651 510.661 143.287 510.129 142.993C509.597 142.694 508.991 142.409 508.309 142.139C507.964 142.003 507.644 141.87 507.35 141.74C507.061 141.604 506.83 141.439 506.657 141.243C506.485 141.042 506.398 140.778 506.398 140.452C506.398 140.032 506.555 139.663 506.867 139.346C507.18 139.024 507.623 138.863 508.197 138.863C508.687 138.863 509.142 138.97 509.562 139.185C509.982 139.395 510.323 139.637 510.584 139.913L511.382 138.52C511.163 138.291 510.883 138.076 510.542 137.876C510.206 137.675 509.833 137.512 509.422 137.386C509.016 137.26 508.596 137.197 508.162 137.197C507.458 137.197 506.839 137.351 506.307 137.659C505.775 137.967 505.36 138.37 505.061 138.87C504.767 139.369 504.62 139.908 504.62 140.487C504.62 141.019 504.742 141.471 504.984 141.845C505.227 142.213 505.535 142.524 505.908 142.776C506.286 143.023 506.674 143.231 507.07 143.399C507.626 143.627 508.113 143.844 508.533 144.05C508.953 144.25 509.28 144.486 509.513 144.757C509.747 145.023 509.863 145.37 509.863 145.8C509.863 146.355 509.672 146.775 509.289 147.06C508.907 147.34 508.433 147.48 507.868 147.48C507.336 147.48 506.863 147.379 506.447 147.179C506.032 146.973 505.677 146.74 505.383 146.479C505.089 146.217 504.856 145.998 504.683 145.821L503.717 147.305C503.839 147.445 504.016 147.62 504.249 147.83C504.483 148.035 504.77 148.243 505.11 148.453C505.456 148.658 505.852 148.831 506.3 148.971C506.753 149.111 507.259 149.181 507.819 149.181ZM517.425 149.181C517.896 149.181 518.342 149.111 518.762 148.971C519.182 148.835 519.534 148.66 519.819 148.446L519.189 147.27C518.788 147.582 518.288 147.739 517.691 147.739C517.215 147.739 516.795 147.634 516.431 147.424C516.072 147.214 515.789 146.931 515.584 146.577C515.383 146.217 515.283 145.816 515.283 145.373C515.283 144.953 515.379 144.563 515.57 144.204C515.766 143.844 516.041 143.555 516.396 143.336C516.755 143.116 517.182 143.007 517.677 143.007C518.284 143.007 518.79 143.163 519.196 143.476L519.819 142.3C519.539 142.08 519.184 141.903 518.755 141.768C518.33 141.632 517.885 141.565 517.418 141.565C516.853 141.565 516.331 141.665 515.85 141.866C515.369 142.066 514.949 142.342 514.59 142.692C514.235 143.042 513.958 143.448 513.757 143.91C513.561 144.367 513.463 144.855 513.463 145.373C513.463 145.909 513.566 146.409 513.771 146.871C513.976 147.333 514.261 147.736 514.625 148.082C514.989 148.427 515.409 148.698 515.885 148.894C516.366 149.085 516.879 149.181 517.425 149.181ZM521.694 148.957H523.437V144.687C523.437 144.407 523.519 144.145 523.682 143.903C523.85 143.655 524.067 143.457 524.333 143.308C524.599 143.154 524.882 143.077 525.18 143.077C525.358 143.077 525.547 143.105 525.747 143.161C525.948 143.217 526.125 143.291 526.279 143.385L527 141.908C526.823 141.805 526.608 141.723 526.356 141.663C526.109 141.597 525.866 141.565 525.628 141.565C524.681 141.565 523.951 141.987 523.437 142.832V141.789H521.694V148.957ZM529.316 140.319C529.605 140.319 529.853 140.216 530.058 140.011C530.263 139.801 530.366 139.551 530.366 139.262C530.366 138.968 530.263 138.718 530.058 138.513C529.853 138.307 529.605 138.205 529.316 138.205C529.027 138.205 528.777 138.307 528.567 138.513C528.362 138.718 528.259 138.968 528.259 139.262C528.259 139.551 528.362 139.801 528.567 140.011C528.777 140.216 529.027 140.319 529.316 140.319ZM528.441 148.957H530.184V141.789H528.441V148.957ZM532.891 152.597H534.634V147.809C534.952 148.243 535.341 148.581 535.803 148.824C536.27 149.062 536.774 149.181 537.315 149.181C537.992 149.181 538.596 149.015 539.128 148.684C539.665 148.348 540.087 147.893 540.395 147.319C540.708 146.745 540.864 146.096 540.864 145.373C540.864 144.64 540.708 143.989 540.395 143.42C540.083 142.846 539.656 142.393 539.114 142.062C538.578 141.73 537.964 141.565 537.273 141.565C536.727 141.565 536.223 141.681 535.761 141.915C535.299 142.143 534.924 142.465 534.634 142.881V141.789H532.891V152.597ZM536.818 147.69C536.389 147.69 536.004 147.592 535.663 147.396C535.327 147.195 535.064 146.92 534.872 146.57C534.681 146.22 534.585 145.821 534.585 145.373C534.585 144.925 534.681 144.526 534.872 144.176C535.064 143.826 535.327 143.553 535.663 143.357C536.004 143.156 536.389 143.056 536.818 143.056C537.243 143.056 537.621 143.156 537.952 143.357C538.288 143.557 538.552 143.833 538.743 144.183C538.939 144.528 539.037 144.927 539.037 145.38C539.037 145.828 538.942 146.227 538.75 146.577C538.559 146.922 538.295 147.195 537.959 147.396C537.628 147.592 537.248 147.69 536.818 147.69ZM545.166 149.181C545.726 149.181 546.233 149.052 546.685 148.796L546.244 147.403C546.044 147.552 545.822 147.627 545.579 147.627C545.094 147.627 544.851 147.305 544.851 146.661V143.112H546.503V141.789H544.851V139.108H543.108V141.789H542.233V143.112H543.108V146.78C543.108 147.536 543.288 148.126 543.647 148.551C544.011 148.971 544.518 149.181 545.166 149.181Z" fill="#000C24"/>
</svg>
