<svg width="449" height="329" viewBox="0 0 449 329" fill="none" xmlns="http://www.w3.org/2000/svg">
<path d="M186 215C186 242.614 163.614 265 136 265C108.386 265 86 242.614 86 215C86 187.386 108.386 165 136 165C163.614 165 186 187.386 186 215ZM100 215C100 234.882 116.118 251 136 251C155.882 251 172 234.882 172 215C172 195.118 155.882 179 136 179C116.118 179 100 195.118 100 215Z" fill="#928A97" fill-opacity="0.27"/>
<path d="M136 265C126.779 265 117.737 262.45 109.875 257.632C102.013 252.814 95.6361 245.916 91.4498 237.7C87.2635 229.484 85.4307 220.27 86.1541 211.077C86.8775 201.885 90.1289 193.071 95.5489 185.611C100.969 178.151 108.346 172.335 116.865 168.806C125.384 165.277 134.713 164.173 143.821 165.615C152.929 167.058 161.46 170.991 168.472 176.979C175.484 182.968 180.703 190.779 183.553 199.548L170.238 203.875C168.186 197.561 164.428 191.937 159.38 187.625C154.331 183.313 148.189 180.482 141.631 179.443C135.074 178.405 128.357 179.2 122.223 181.741C116.089 184.281 110.778 188.469 106.875 193.84C102.973 199.211 100.632 205.557 100.111 212.176C99.5901 218.794 100.91 225.428 103.924 231.344C106.938 237.259 111.529 242.226 117.19 245.695C122.851 249.164 129.361 251 136 251L136 265Z" fill="#000C24"/>
<path d="M120.897 218H122.757L127.989 208.574V208.1H121.095V209.48H125.667L120.897 218ZM133.1 218.192C133.908 218.192 134.616 217.978 135.224 217.55C135.832 217.118 136.306 216.516 136.646 215.744C136.986 214.972 137.156 214.076 137.156 213.056C137.156 212.036 136.986 211.14 136.646 210.368C136.306 209.596 135.832 208.996 135.224 208.568C134.616 208.136 133.908 207.92 133.1 207.92C132.292 207.92 131.584 208.136 130.976 208.568C130.368 208.996 129.894 209.596 129.554 210.368C129.214 211.14 129.044 212.036 129.044 213.056C129.044 214.076 129.214 214.972 129.554 215.744C129.894 216.516 130.368 217.118 130.976 217.55C131.584 217.978 132.292 218.192 133.1 218.192ZM133.1 216.8C132.612 216.8 132.188 216.648 131.828 216.344C131.468 216.04 131.19 215.608 130.994 215.048C130.798 214.484 130.7 213.82 130.7 213.056C130.7 212.288 130.798 211.624 130.994 211.064C131.19 210.504 131.468 210.072 131.828 209.768C132.188 209.464 132.612 209.312 133.1 209.312C133.588 209.312 134.012 209.464 134.372 209.768C134.732 210.072 135.01 210.504 135.206 211.064C135.402 211.624 135.5 212.288 135.5 213.056C135.5 213.82 135.402 214.484 135.206 215.048C135.01 215.608 134.732 216.04 134.372 216.344C134.012 216.648 133.588 216.8 133.1 216.8ZM141.291 212.648C141.775 212.648 142.209 212.548 142.593 212.348C142.981 212.148 143.287 211.87 143.511 211.514C143.739 211.158 143.853 210.748 143.853 210.284C143.853 209.82 143.739 209.41 143.511 209.054C143.287 208.698 142.981 208.42 142.593 208.22C142.209 208.02 141.775 207.92 141.291 207.92C140.807 207.92 140.371 208.02 139.983 208.22C139.595 208.42 139.287 208.698 139.059 209.054C138.835 209.41 138.723 209.82 138.723 210.284C138.723 210.748 138.835 211.158 139.059 211.514C139.287 211.87 139.595 212.148 139.983 212.348C140.371 212.548 140.807 212.648 141.291 212.648ZM140.847 218H141.891L147.651 208.1H146.607L140.847 218ZM141.291 211.718C140.887 211.718 140.547 211.584 140.271 211.316C139.995 211.048 139.857 210.704 139.857 210.284C139.857 209.864 139.995 209.52 140.271 209.252C140.547 208.984 140.887 208.85 141.291 208.85C141.695 208.85 142.035 208.984 142.311 209.252C142.587 209.516 142.725 209.86 142.725 210.284C142.725 210.704 142.587 211.048 142.311 211.316C142.035 211.584 141.695 211.718 141.291 211.718ZM147.207 218.186C147.691 218.186 148.127 218.086 148.515 217.886C148.903 217.686 149.209 217.408 149.433 217.052C149.661 216.696 149.775 216.286 149.775 215.822C149.775 215.358 149.661 214.948 149.433 214.592C149.209 214.236 148.903 213.958 148.515 213.758C148.127 213.558 147.691 213.458 147.207 213.458C146.723 213.458 146.287 213.558 145.899 213.758C145.511 213.958 145.203 214.236 144.975 214.592C144.751 214.948 144.639 215.358 144.639 215.822C144.639 216.286 144.751 216.696 144.975 217.052C145.203 217.408 145.511 217.686 145.899 217.886C146.287 218.086 146.723 218.186 147.207 218.186ZM147.207 217.256C146.807 217.256 146.467 217.122 146.187 216.854C145.911 216.586 145.773 216.242 145.773 215.822C145.773 215.402 145.911 215.058 146.187 214.79C146.467 214.522 146.807 214.388 147.207 214.388C147.611 214.388 147.951 214.522 148.227 214.79C148.503 215.058 148.641 215.402 148.641 215.822C148.641 216.242 148.503 216.586 148.227 216.854C147.951 217.122 147.611 217.256 147.207 217.256Z" fill="#928A97"/>
<path d="M99.8269 285.224C100.494 285.224 101.143 285.114 101.773 284.895C102.403 284.671 102.97 284.351 103.474 283.936C103.983 283.516 104.386 283.01 104.685 282.417C104.984 281.82 105.133 281.15 105.133 280.408V278.917H99.7919V280.352H103.264V280.604C103.264 281.183 103.103 281.694 102.781 282.137C102.464 282.576 102.048 282.919 101.535 283.166C101.022 283.413 100.478 283.537 99.9039 283.537C99.1992 283.537 98.5622 283.35 97.9929 282.977C97.4236 282.599 96.9709 282.081 96.6349 281.423C96.3036 280.765 96.1379 280.009 96.1379 279.155C96.1379 278.366 96.2872 277.65 96.5859 277.006C96.8892 276.357 97.3256 275.842 97.8949 275.459C98.4689 275.072 99.1642 274.878 99.9809 274.878C100.616 274.878 101.236 274.999 101.843 275.242C102.45 275.48 102.963 275.809 103.383 276.229L104.265 274.815C103.714 274.316 103.061 273.928 102.305 273.653C101.554 273.378 100.774 273.24 99.9669 273.24C99.0709 273.24 98.2636 273.401 97.5449 273.723C96.8309 274.04 96.2219 274.479 95.7179 275.039C95.2139 275.599 94.8289 276.238 94.5629 276.957C94.2969 277.676 94.1639 278.434 94.1639 279.232C94.1639 280.072 94.3086 280.856 94.5979 281.584C94.8872 282.312 95.2886 282.949 95.8019 283.495C96.3152 284.036 96.9149 284.461 97.6009 284.769C98.2869 285.072 99.0289 285.224 99.8269 285.224ZM108.201 276.362C108.491 276.362 108.738 276.259 108.943 276.054C109.149 275.844 109.251 275.594 109.251 275.305C109.251 275.011 109.149 274.761 108.943 274.556C108.738 274.351 108.491 274.248 108.201 274.248C107.912 274.248 107.662 274.351 107.452 274.556C107.247 274.761 107.144 275.011 107.144 275.305C107.144 275.594 107.247 275.844 107.452 276.054C107.662 276.259 107.912 276.362 108.201 276.362ZM107.326 285H109.069V277.832H107.326V285ZM114.003 285.224C114.563 285.224 115.069 285.096 115.522 284.839L115.081 283.446C114.88 283.595 114.658 283.67 114.416 283.67C113.93 283.67 113.688 283.348 113.688 282.704V279.155H115.34V277.832H113.688V275.151H111.945V277.832H111.07V279.155H111.945V282.823C111.945 283.579 112.124 284.169 112.484 284.594C112.848 285.014 113.354 285.224 114.003 285.224ZM116.133 286.68H117.603L123.371 272.96H121.901L116.133 286.68ZM129.905 285.224C130.572 285.224 131.221 285.114 131.851 284.895C132.481 284.671 133.048 284.351 133.552 283.936C134.061 283.516 134.464 283.01 134.763 282.417C135.062 281.82 135.211 281.15 135.211 280.408V278.917H129.87V280.352H133.342V280.604C133.342 281.183 133.181 281.694 132.859 282.137C132.542 282.576 132.126 282.919 131.613 283.166C131.1 283.413 130.556 283.537 129.982 283.537C129.277 283.537 128.64 283.35 128.071 282.977C127.502 282.599 127.049 282.081 126.713 281.423C126.382 280.765 126.216 280.009 126.216 279.155C126.216 278.366 126.365 277.65 126.664 277.006C126.967 276.357 127.404 275.842 127.973 275.459C128.547 275.072 129.242 274.878 130.059 274.878C130.694 274.878 131.314 274.999 131.921 275.242C132.528 275.48 133.041 275.809 133.461 276.229L134.343 274.815C133.792 274.316 133.139 273.928 132.383 273.653C131.632 273.378 130.852 273.24 130.045 273.24C129.149 273.24 128.342 273.401 127.623 273.723C126.909 274.04 126.3 274.479 125.796 275.039C125.292 275.599 124.907 276.238 124.641 276.957C124.375 277.676 124.242 278.434 124.242 279.232C124.242 280.072 124.387 280.856 124.676 281.584C124.965 282.312 125.367 282.949 125.88 283.495C126.393 284.036 126.993 284.461 127.679 284.769C128.365 285.072 129.107 285.224 129.905 285.224ZM138.28 276.362C138.569 276.362 138.816 276.259 139.022 276.054C139.227 275.844 139.33 275.594 139.33 275.305C139.33 275.011 139.227 274.761 139.022 274.556C138.816 274.351 138.569 274.248 138.28 274.248C137.99 274.248 137.741 274.351 137.531 274.556C137.325 274.761 137.223 275.011 137.223 275.305C137.223 275.594 137.325 275.844 137.531 276.054C137.741 276.259 137.99 276.362 138.28 276.362ZM137.405 285H139.148V277.832H137.405V285ZM144.081 285.224C144.641 285.224 145.147 285.096 145.6 284.839L145.159 283.446C144.958 283.595 144.737 283.67 144.494 283.67C144.009 283.67 143.766 283.348 143.766 282.704V279.155H145.418V277.832H143.766V275.151H142.023V277.832H141.148V279.155H142.023V282.823C142.023 283.579 142.203 284.169 142.562 284.594C142.926 285.014 143.432 285.224 144.081 285.224ZM147.933 285H149.767V280.016H154.8V285H156.627V273.45H154.8V278.406H149.767V273.45H147.933V285ZM162.966 285.224C164.194 285.224 165.076 284.972 165.612 284.468C166.154 283.959 166.424 283.122 166.424 281.955V277.832H164.681V281.563C164.681 282.375 164.551 282.951 164.289 283.292C164.033 283.628 163.592 283.796 162.966 283.796C162.346 283.796 161.905 283.628 161.643 283.292C161.382 282.951 161.251 282.375 161.251 281.563V277.832H159.508V281.955C159.508 283.122 159.777 283.959 160.313 284.468C160.85 284.972 161.734 285.224 162.966 285.224ZM173.39 285.224C174.048 285.224 174.646 285.061 175.182 284.734C175.719 284.407 176.146 283.959 176.463 283.39C176.781 282.816 176.939 282.158 176.939 281.416C176.939 280.688 176.783 280.037 176.47 279.463C176.162 278.889 175.738 278.436 175.196 278.105C174.66 277.774 174.046 277.608 173.355 277.608C172.805 277.608 172.298 277.725 171.836 277.958C171.374 278.191 170.999 278.516 170.709 278.931V272.96H168.966V285H170.709V283.852C171.022 284.281 171.409 284.617 171.871 284.86C172.338 285.103 172.844 285.224 173.39 285.224ZM172.893 283.733C172.459 283.733 172.074 283.635 171.738 283.439C171.402 283.238 171.139 282.965 170.947 282.62C170.756 282.27 170.66 281.871 170.66 281.423C170.66 280.97 170.756 280.571 170.947 280.226C171.139 279.876 171.402 279.601 171.738 279.4C172.079 279.199 172.464 279.099 172.893 279.099C173.318 279.099 173.696 279.199 174.027 279.4C174.363 279.601 174.627 279.876 174.818 280.226C175.014 280.571 175.112 280.97 175.112 281.423C175.112 281.866 175.017 282.263 174.825 282.613C174.639 282.963 174.377 283.238 174.041 283.439C173.71 283.635 173.327 283.733 172.893 283.733Z" fill="#000C24"/>
<path d="M358 215C358 242.614 335.614 265 308 265C280.386 265 258 242.614 258 215C258 187.386 280.386 165 308 165C335.614 165 358 187.386 358 215ZM272 215C272 234.882 288.118 251 308 251C327.882 251 344 234.882 344 215C344 195.118 327.882 179 308 179C288.118 179 272 195.118 272 215Z" fill="#928A97" fill-opacity="0.27"/>
<path d="M308 265C297.438 265 287.147 261.655 278.603 255.445C270.059 249.235 263.701 240.479 260.441 230.433C257.181 220.386 257.186 209.566 260.456 199.522C263.726 189.479 270.092 180.729 278.641 174.527C287.191 168.325 297.485 164.99 308.047 165C318.609 165.01 328.897 168.365 337.435 174.582C345.973 180.8 352.323 189.563 355.573 199.612C358.824 209.662 358.808 220.482 355.529 230.523L342.221 226.176C344.582 218.947 344.593 211.156 342.253 203.921C339.912 196.685 335.341 190.376 329.193 185.899C323.046 181.422 315.639 179.007 308.034 179C300.429 178.993 293.018 181.394 286.862 185.859C280.706 190.325 276.122 196.625 273.768 203.856C271.414 211.087 271.41 218.878 273.758 226.112C276.105 233.345 280.683 239.649 286.834 244.121C292.986 248.592 300.395 251 308 251L308 265Z" fill="#000C24"/>
<path d="M296.348 218.192C296.992 218.192 297.572 218.068 298.088 217.82C298.604 217.568 299.012 217.224 299.312 216.788C299.616 216.352 299.768 215.858 299.768 215.306C299.768 214.722 299.604 214.198 299.276 213.734C298.952 213.266 298.516 212.922 297.968 212.702C298.396 212.49 298.736 212.186 298.988 211.79C299.244 211.39 299.372 210.95 299.372 210.47C299.372 210.074 299.286 209.72 299.114 209.408C298.946 209.092 298.716 208.824 298.424 208.604C298.136 208.384 297.812 208.216 297.452 208.1C297.096 207.98 296.728 207.92 296.348 207.92C295.788 207.92 295.28 208.032 294.824 208.256C294.368 208.48 294.004 208.784 293.732 209.168C293.464 209.552 293.33 209.988 293.33 210.476C293.33 210.94 293.454 211.372 293.702 211.772C293.95 212.172 294.292 212.482 294.728 212.702C294.192 212.918 293.758 213.26 293.426 213.728C293.098 214.192 292.934 214.716 292.934 215.3C292.934 215.856 293.084 216.352 293.384 216.788C293.688 217.224 294.098 217.568 294.614 217.82C295.13 218.068 295.708 218.192 296.348 218.192ZM296.348 212.114C295.92 212.114 295.562 211.974 295.274 211.694C294.99 211.41 294.848 211.054 294.848 210.626C294.848 210.198 294.992 209.84 295.28 209.552C295.568 209.264 295.924 209.12 296.348 209.12C296.78 209.12 297.138 209.264 297.422 209.552C297.71 209.84 297.854 210.198 297.854 210.626C297.854 211.054 297.712 211.41 297.428 211.694C297.144 211.974 296.784 212.114 296.348 212.114ZM296.348 216.824C295.844 216.824 295.434 216.664 295.118 216.344C294.802 216.024 294.644 215.622 294.644 215.138C294.644 214.806 294.718 214.514 294.866 214.262C295.018 214.006 295.222 213.806 295.478 213.662C295.738 213.518 296.028 213.446 296.348 213.446C296.84 213.446 297.248 213.606 297.572 213.926C297.896 214.246 298.058 214.652 298.058 215.144C298.058 215.624 297.9 216.024 297.584 216.344C297.268 216.664 296.856 216.824 296.348 216.824ZM305.399 218.192C306.207 218.192 306.915 217.978 307.523 217.55C308.131 217.118 308.605 216.516 308.945 215.744C309.285 214.972 309.455 214.076 309.455 213.056C309.455 212.036 309.285 211.14 308.945 210.368C308.605 209.596 308.131 208.996 307.523 208.568C306.915 208.136 306.207 207.92 305.399 207.92C304.591 207.92 303.883 208.136 303.275 208.568C302.667 208.996 302.193 209.596 301.853 210.368C301.513 211.14 301.343 212.036 301.343 213.056C301.343 214.076 301.513 214.972 301.853 215.744C302.193 216.516 302.667 217.118 303.275 217.55C303.883 217.978 304.591 218.192 305.399 218.192ZM305.399 216.8C304.911 216.8 304.487 216.648 304.127 216.344C303.767 216.04 303.489 215.608 303.293 215.048C303.097 214.484 302.999 213.82 302.999 213.056C302.999 212.288 303.097 211.624 303.293 211.064C303.489 210.504 303.767 210.072 304.127 209.768C304.487 209.464 304.911 209.312 305.399 209.312C305.887 209.312 306.311 209.464 306.671 209.768C307.031 210.072 307.309 210.504 307.505 211.064C307.701 211.624 307.799 212.288 307.799 213.056C307.799 213.82 307.701 214.484 307.505 215.048C307.309 215.608 307.031 216.04 306.671 216.344C306.311 216.648 305.887 216.8 305.399 216.8ZM313.59 212.648C314.074 212.648 314.508 212.548 314.892 212.348C315.28 212.148 315.586 211.87 315.81 211.514C316.038 211.158 316.152 210.748 316.152 210.284C316.152 209.82 316.038 209.41 315.81 209.054C315.586 208.698 315.28 208.42 314.892 208.22C314.508 208.02 314.074 207.92 313.59 207.92C313.106 207.92 312.67 208.02 312.282 208.22C311.894 208.42 311.586 208.698 311.358 209.054C311.134 209.41 311.022 209.82 311.022 210.284C311.022 210.748 311.134 211.158 311.358 211.514C311.586 211.87 311.894 212.148 312.282 212.348C312.67 212.548 313.106 212.648 313.59 212.648ZM313.146 218H314.19L319.95 208.1H318.906L313.146 218ZM313.59 211.718C313.186 211.718 312.846 211.584 312.57 211.316C312.294 211.048 312.156 210.704 312.156 210.284C312.156 209.864 312.294 209.52 312.57 209.252C312.846 208.984 313.186 208.85 313.59 208.85C313.994 208.85 314.334 208.984 314.61 209.252C314.886 209.516 315.024 209.86 315.024 210.284C315.024 210.704 314.886 211.048 314.61 211.316C314.334 211.584 313.994 211.718 313.59 211.718ZM319.506 218.186C319.99 218.186 320.426 218.086 320.814 217.886C321.202 217.686 321.508 217.408 321.732 217.052C321.96 216.696 322.074 216.286 322.074 215.822C322.074 215.358 321.96 214.948 321.732 214.592C321.508 214.236 321.202 213.958 320.814 213.758C320.426 213.558 319.99 213.458 319.506 213.458C319.022 213.458 318.586 213.558 318.198 213.758C317.81 213.958 317.502 214.236 317.274 214.592C317.05 214.948 316.938 215.358 316.938 215.822C316.938 216.286 317.05 216.696 317.274 217.052C317.502 217.408 317.81 217.686 318.198 217.886C318.586 218.086 319.022 218.186 319.506 218.186ZM319.506 217.256C319.106 217.256 318.766 217.122 318.486 216.854C318.21 216.586 318.072 216.242 318.072 215.822C318.072 215.402 318.21 215.058 318.486 214.79C318.766 214.522 319.106 214.388 319.506 214.388C319.91 214.388 320.25 214.522 320.526 214.79C320.802 215.058 320.94 215.402 320.94 215.822C320.94 216.242 320.802 216.586 320.526 216.854C320.25 217.122 319.91 217.256 319.506 217.256Z" fill="#928A97"/>
<path d="M284.857 285H286.691V280.016H290.8V278.406H286.691V275.06H291.108V273.45H284.857V285ZM294.139 276.362C294.428 276.362 294.676 276.259 294.881 276.054C295.086 275.844 295.189 275.594 295.189 275.305C295.189 275.011 295.086 274.761 294.881 274.556C294.676 274.351 294.428 274.248 294.139 274.248C293.85 274.248 293.6 274.351 293.39 274.556C293.185 274.761 293.082 275.011 293.082 275.305C293.082 275.594 293.185 275.844 293.39 276.054C293.6 276.259 293.85 276.362 294.139 276.362ZM293.264 285H295.007V277.832H293.264V285ZM301.06 288.85C302.4 288.85 303.415 288.516 304.105 287.849C304.796 287.182 305.141 286.297 305.141 285.196V277.832H303.398V278.931C303.114 278.516 302.74 278.191 302.278 277.958C301.821 277.725 301.315 277.608 300.759 277.608C300.069 277.608 299.453 277.774 298.911 278.105C298.375 278.436 297.95 278.889 297.637 279.463C297.329 280.037 297.175 280.688 297.175 281.416C297.175 282.158 297.334 282.816 297.651 283.39C297.969 283.959 298.396 284.407 298.932 284.734C299.469 285.061 300.064 285.224 300.717 285.224C301.268 285.224 301.774 285.103 302.236 284.86C302.703 284.617 303.09 284.281 303.398 283.852V285.126C303.398 285.803 303.179 286.342 302.74 286.743C302.302 287.149 301.742 287.352 301.06 287.352C300.542 287.352 300.069 287.235 299.639 287.002C299.21 286.773 298.893 286.465 298.687 286.078L297.259 286.764C297.563 287.445 298.036 287.963 298.68 288.318C299.324 288.673 300.118 288.85 301.06 288.85ZM301.214 283.733C300.785 283.733 300.402 283.635 300.066 283.439C299.735 283.238 299.474 282.963 299.282 282.613C299.096 282.263 299.002 281.866 299.002 281.423C299.002 280.97 299.098 280.571 299.289 280.226C299.481 279.876 299.744 279.601 300.08 279.4C300.416 279.199 300.799 279.099 301.228 279.099C301.658 279.099 302.038 279.199 302.369 279.4C302.705 279.601 302.969 279.876 303.16 280.226C303.356 280.571 303.454 280.97 303.454 281.423C303.454 281.871 303.359 282.27 303.167 282.62C302.976 282.965 302.712 283.238 302.376 283.439C302.04 283.635 301.653 283.733 301.214 283.733ZM307.845 285H309.588V280.464C309.588 280.207 309.66 279.969 309.805 279.75C309.954 279.526 310.157 279.346 310.414 279.211C310.671 279.076 310.958 279.008 311.275 279.008C311.742 279.008 312.11 279.16 312.381 279.463C312.652 279.762 312.787 280.163 312.787 280.667V285H314.53V280.471C314.53 280.084 314.686 279.743 314.999 279.449C315.316 279.155 315.715 279.008 316.196 279.008C316.663 279.008 317.034 279.164 317.309 279.477C317.589 279.785 317.729 280.205 317.729 280.737V285H319.472V280.261C319.472 279.71 319.358 279.237 319.129 278.84C318.9 278.443 318.585 278.14 318.184 277.93C317.783 277.715 317.325 277.608 316.812 277.608C316.271 277.608 315.795 277.732 315.384 277.979C314.973 278.222 314.607 278.572 314.285 279.029C314.098 278.595 313.786 278.25 313.347 277.993C312.908 277.736 312.407 277.608 311.842 277.608C310.988 277.608 310.237 277.97 309.588 278.693V277.832H307.845V285ZM325.067 285.224C325.609 285.224 326.108 285.105 326.565 284.867C327.027 284.624 327.417 284.286 327.734 283.852V285H329.477V277.832H327.734V278.931C327.459 278.516 327.083 278.191 326.607 277.958C326.136 277.725 325.623 277.608 325.067 277.608C324.377 277.608 323.763 277.774 323.226 278.105C322.694 278.436 322.274 278.889 321.966 279.463C321.663 280.037 321.511 280.686 321.511 281.409C321.511 282.146 321.668 282.802 321.98 283.376C322.298 283.95 322.725 284.403 323.261 284.734C323.803 285.061 324.405 285.224 325.067 285.224ZM325.564 283.733C325.135 283.733 324.752 283.633 324.416 283.432C324.08 283.231 323.817 282.958 323.625 282.613C323.434 282.263 323.338 281.864 323.338 281.416C323.338 280.968 323.434 280.569 323.625 280.219C323.817 279.869 324.08 279.596 324.416 279.4C324.752 279.199 325.135 279.099 325.564 279.099C325.998 279.099 326.381 279.199 326.712 279.4C327.048 279.596 327.31 279.869 327.496 280.219C327.688 280.564 327.783 280.963 327.783 281.416C327.783 281.864 327.688 282.263 327.496 282.613C327.31 282.963 327.048 283.238 326.712 283.439C326.381 283.635 325.998 283.733 325.564 283.733Z" fill="#000C24"/>
<path d="M105 50C105 77.6142 82.6142 100 55 100C27.3858 100 5 77.6142 5 50C5 22.3858 27.3858 0 55 0C82.6142 0 105 22.3858 105 50ZM19 50C19 69.8822 35.1177 86 55 86C74.8822 86 91 69.8822 91 50C91 30.1177 74.8822 14 55 14C35.1177 14 19 30.1177 19 50Z" fill="#928A97" fill-opacity="0.27"/>
<path d="M55 100C42.4183 100 30.299 95.2566 21.06 86.7161C11.8209 78.1756 6.14128 66.4659 5.15413 53.923C4.16698 41.38 7.94488 28.9259 15.7342 19.0453C23.5234 9.16465 34.7514 2.5838 47.1783 0.615582C59.6051 -1.35263 72.3172 1.43648 82.7785 8.42652C93.2398 15.4166 100.681 26.0936 103.618 38.3277C106.556 50.5618 104.772 63.4536 98.6248 74.4311C92.4771 85.4086 82.4168 93.6649 70.4508 97.5528L66.1246 84.238C74.7401 81.4387 81.9835 75.4942 86.4099 67.5904C90.8362 59.6866 92.1201 50.4045 90.0053 41.596C87.8906 32.7874 82.5327 25.0999 75.0005 20.0671C67.4684 15.0343 58.3157 13.0261 49.3684 14.4432C40.421 15.8603 32.3369 20.5985 26.7286 27.7126C21.1203 34.8267 18.4002 43.7936 19.111 52.8245C19.8217 61.8554 23.9111 70.2865 30.5632 76.4356C37.2153 82.5848 45.9412 86 55 86L55 100Z" fill="#000C24"/>
<path d="M41.854 53H43.762L46.552 49.64C46.836 49.296 47.078 48.964 47.278 48.644C47.482 48.32 47.636 47.978 47.74 47.618C47.848 47.254 47.9 46.842 47.896 46.382C47.896 45.734 47.74 45.148 47.428 44.624C47.116 44.1 46.68 43.684 46.12 43.376C45.56 43.068 44.908 42.914 44.164 42.914C43.428 42.914 42.794 43.064 42.262 43.364C41.73 43.664 41.318 44.07 41.026 44.582C40.738 45.094 40.594 45.668 40.594 46.304C40.594 46.804 40.68 47.262 40.852 47.678C41.028 48.094 41.266 48.456 41.566 48.764C41.87 49.068 42.216 49.304 42.604 49.472C42.992 49.636 43.4 49.718 43.828 49.718C44.228 49.718 44.574 49.622 44.866 49.43L41.854 53ZM44.236 48.35C43.844 48.35 43.492 48.26 43.18 48.08C42.868 47.896 42.622 47.648 42.442 47.336C42.262 47.024 42.172 46.67 42.172 46.274C42.172 45.882 42.262 45.534 42.442 45.23C42.622 44.926 42.866 44.686 43.174 44.51C43.486 44.334 43.84 44.246 44.236 44.246C44.628 44.246 44.976 44.334 45.28 44.51C45.588 44.682 45.828 44.92 46 45.224C46.176 45.528 46.264 45.878 46.264 46.274C46.264 46.658 46.172 47.008 45.988 47.324C45.808 47.636 45.564 47.886 45.256 48.074C44.952 48.258 44.612 48.35 44.236 48.35ZM53.397 53.192C54.205 53.192 54.913 52.978 55.521 52.55C56.129 52.118 56.603 51.516 56.943 50.744C57.283 49.972 57.453 49.076 57.453 48.056C57.453 47.036 57.283 46.14 56.943 45.368C56.603 44.596 56.129 43.996 55.521 43.568C54.913 43.136 54.205 42.92 53.397 42.92C52.589 42.92 51.881 43.136 51.273 43.568C50.665 43.996 50.191 44.596 49.851 45.368C49.511 46.14 49.341 47.036 49.341 48.056C49.341 49.076 49.511 49.972 49.851 50.744C50.191 51.516 50.665 52.118 51.273 52.55C51.881 52.978 52.589 53.192 53.397 53.192ZM53.397 51.8C52.909 51.8 52.485 51.648 52.125 51.344C51.765 51.04 51.487 50.608 51.291 50.048C51.095 49.484 50.997 48.82 50.997 48.056C50.997 47.288 51.095 46.624 51.291 46.064C51.487 45.504 51.765 45.072 52.125 44.768C52.485 44.464 52.909 44.312 53.397 44.312C53.885 44.312 54.309 44.464 54.669 44.768C55.029 45.072 55.307 45.504 55.503 46.064C55.699 46.624 55.797 47.288 55.797 48.056C55.797 48.82 55.699 49.484 55.503 50.048C55.307 50.608 55.029 51.04 54.669 51.344C54.309 51.648 53.885 51.8 53.397 51.8ZM61.5881 47.648C62.0721 47.648 62.5061 47.548 62.8901 47.348C63.2781 47.148 63.5841 46.87 63.8081 46.514C64.0361 46.158 64.1501 45.748 64.1501 45.284C64.1501 44.82 64.0361 44.41 63.8081 44.054C63.5841 43.698 63.2781 43.42 62.8901 43.22C62.5061 43.02 62.0721 42.92 61.5881 42.92C61.1041 42.92 60.6681 43.02 60.2801 43.22C59.8921 43.42 59.5841 43.698 59.3561 44.054C59.1321 44.41 59.0201 44.82 59.0201 45.284C59.0201 45.748 59.1321 46.158 59.3561 46.514C59.5841 46.87 59.8921 47.148 60.2801 47.348C60.6681 47.548 61.1041 47.648 61.5881 47.648ZM61.1441 53H62.1881L67.9481 43.1H66.9041L61.1441 53ZM61.5881 46.718C61.1841 46.718 60.8441 46.584 60.5681 46.316C60.2921 46.048 60.1541 45.704 60.1541 45.284C60.1541 44.864 60.2921 44.52 60.5681 44.252C60.8441 43.984 61.1841 43.85 61.5881 43.85C61.9921 43.85 62.3321 43.984 62.6081 44.252C62.8841 44.516 63.0221 44.86 63.0221 45.284C63.0221 45.704 62.8841 46.048 62.6081 46.316C62.3321 46.584 61.9921 46.718 61.5881 46.718ZM67.5041 53.186C67.9881 53.186 68.4241 53.086 68.8121 52.886C69.2001 52.686 69.5061 52.408 69.7301 52.052C69.9581 51.696 70.0721 51.286 70.0721 50.822C70.0721 50.358 69.9581 49.948 69.7301 49.592C69.5061 49.236 69.2001 48.958 68.8121 48.758C68.4241 48.558 67.9881 48.458 67.5041 48.458C67.0201 48.458 66.5841 48.558 66.1961 48.758C65.8081 48.958 65.5001 49.236 65.2721 49.592C65.0481 49.948 64.9361 50.358 64.9361 50.822C64.9361 51.286 65.0481 51.696 65.2721 52.052C65.5001 52.408 65.8081 52.686 66.1961 52.886C66.5841 53.086 67.0201 53.186 67.5041 53.186ZM67.5041 52.256C67.1041 52.256 66.7641 52.122 66.4841 51.854C66.2081 51.586 66.0701 51.242 66.0701 50.822C66.0701 50.402 66.2081 50.058 66.4841 49.79C66.7641 49.522 67.1041 49.388 67.5041 49.388C67.9081 49.388 68.2481 49.522 68.5241 49.79C68.8001 50.058 68.9381 50.402 68.9381 50.822C68.9381 51.242 68.8001 51.586 68.5241 51.854C68.2481 52.122 67.9081 52.256 67.5041 52.256Z" fill="#928A97"/>
<path d="M29.0679 120H30.9019V115.016H35.9349V120H37.7619V108.45H35.9349V113.406H30.9019V108.45H29.0679V120ZM42.3812 120H44.2082V110.081H47.3582V108.45H39.2382V110.081H42.3812V120ZM48.9126 120H50.7466L51.6636 111.768L54.5406 119.566H55.7096L58.5796 111.768L59.5036 120H61.3306L60.0566 108.45H58.1106L55.1216 116.325L52.1326 108.45H50.1866L48.9126 120ZM64.1225 120H70.3665V118.39H65.9565V108.45H64.1225V120ZM75.4994 120.217C76.2834 120.217 76.9927 120.063 77.6274 119.755C78.2667 119.442 78.7731 118.992 79.1464 118.404C79.5244 117.816 79.7134 117.102 79.7134 116.262C79.7134 115.357 79.4731 114.596 78.9924 113.98C78.5117 113.359 77.8771 112.963 77.0884 112.79C76.1597 112.501 75.1984 112.529 74.2044 112.874L74.6384 110.06H78.9714V108.45H73.0774L72.1114 114.659C72.8627 114.038 73.7214 113.728 74.6874 113.728C75.3221 113.728 75.8797 113.835 76.3604 114.05C76.8411 114.26 77.2167 114.563 77.4874 114.96C77.7581 115.352 77.8934 115.821 77.8934 116.367C77.8934 117.062 77.6741 117.622 77.2354 118.047C76.7967 118.472 76.2087 118.684 75.4714 118.684C74.8507 118.684 74.3071 118.532 73.8404 118.229C73.3737 117.921 73.0564 117.513 72.8884 117.004L71.4324 117.711C71.6284 118.243 71.9271 118.696 72.3284 119.069C72.7344 119.442 73.2104 119.727 73.7564 119.923C74.3024 120.119 74.8834 120.217 75.4994 120.217Z" fill="#000C24"/>
<path d="M277 50C277 77.6142 254.614 100 227 100C199.386 100 177 77.6142 177 50C177 22.3858 199.386 0 227 0C254.614 0 277 22.3858 277 50ZM191 50C191 69.8822 207.118 86 227 86C246.882 86 263 69.8822 263 50C263 30.1177 246.882 14 227 14C207.118 14 191 30.1177 191 50Z" fill="#928A97" fill-opacity="0.27"/>
<path d="M227 100C217.784 100 208.747 97.4528 200.888 92.6397C193.028 87.8267 186.652 80.935 182.463 72.7259C178.274 64.5168 176.436 55.3097 177.151 46.1214C177.866 36.933 181.106 28.1211 186.514 20.6587C191.923 13.1963 199.288 7.37388 207.797 3.83443C216.307 0.294971 225.629 -0.823772 234.734 0.601753C243.839 2.02728 252.373 5.9416 259.393 11.9124C266.414 17.8832 271.647 25.6782 274.516 34.4365L261.212 38.7942C259.146 32.4883 255.378 26.8759 250.323 22.5769C245.269 18.278 239.124 15.4596 232.568 14.4333C226.013 13.4069 219.301 14.2124 213.174 16.7608C207.047 19.3092 201.744 23.5014 197.85 28.8743C193.956 34.2472 191.623 40.5918 191.108 47.2074C190.594 53.823 191.917 60.4521 194.933 66.3627C197.949 72.2732 202.54 77.2352 208.199 80.7006C213.858 84.166 220.364 86 227 86L227 100Z" fill="#000C24"/>
<path d="M212.444 53H214.304L219.536 43.574V43.1H212.642V44.48H217.214L212.444 53ZM224.647 53.192C225.455 53.192 226.163 52.978 226.771 52.55C227.379 52.118 227.853 51.516 228.193 50.744C228.533 49.972 228.703 49.076 228.703 48.056C228.703 47.036 228.533 46.14 228.193 45.368C227.853 44.596 227.379 43.996 226.771 43.568C226.163 43.136 225.455 42.92 224.647 42.92C223.839 42.92 223.131 43.136 222.523 43.568C221.915 43.996 221.441 44.596 221.101 45.368C220.761 46.14 220.591 47.036 220.591 48.056C220.591 49.076 220.761 49.972 221.101 50.744C221.441 51.516 221.915 52.118 222.523 52.55C223.131 52.978 223.839 53.192 224.647 53.192ZM224.647 51.8C224.159 51.8 223.735 51.648 223.375 51.344C223.015 51.04 222.737 50.608 222.541 50.048C222.345 49.484 222.247 48.82 222.247 48.056C222.247 47.288 222.345 46.624 222.541 46.064C222.737 45.504 223.015 45.072 223.375 44.768C223.735 44.464 224.159 44.312 224.647 44.312C225.135 44.312 225.559 44.464 225.919 44.768C226.279 45.072 226.557 45.504 226.753 46.064C226.949 46.624 227.047 47.288 227.047 48.056C227.047 48.82 226.949 49.484 226.753 50.048C226.557 50.608 226.279 51.04 225.919 51.344C225.559 51.648 225.135 51.8 224.647 51.8ZM232.838 47.648C233.322 47.648 233.756 47.548 234.14 47.348C234.528 47.148 234.834 46.87 235.058 46.514C235.286 46.158 235.4 45.748 235.4 45.284C235.4 44.82 235.286 44.41 235.058 44.054C234.834 43.698 234.528 43.42 234.14 43.22C233.756 43.02 233.322 42.92 232.838 42.92C232.354 42.92 231.918 43.02 231.53 43.22C231.142 43.42 230.834 43.698 230.606 44.054C230.382 44.41 230.27 44.82 230.27 45.284C230.27 45.748 230.382 46.158 230.606 46.514C230.834 46.87 231.142 47.148 231.53 47.348C231.918 47.548 232.354 47.648 232.838 47.648ZM232.394 53H233.438L239.198 43.1H238.154L232.394 53ZM232.838 46.718C232.434 46.718 232.094 46.584 231.818 46.316C231.542 46.048 231.404 45.704 231.404 45.284C231.404 44.864 231.542 44.52 231.818 44.252C232.094 43.984 232.434 43.85 232.838 43.85C233.242 43.85 233.582 43.984 233.858 44.252C234.134 44.516 234.272 44.86 234.272 45.284C234.272 45.704 234.134 46.048 233.858 46.316C233.582 46.584 233.242 46.718 232.838 46.718ZM238.754 53.186C239.238 53.186 239.674 53.086 240.062 52.886C240.45 52.686 240.756 52.408 240.98 52.052C241.208 51.696 241.322 51.286 241.322 50.822C241.322 50.358 241.208 49.948 240.98 49.592C240.756 49.236 240.45 48.958 240.062 48.758C239.674 48.558 239.238 48.458 238.754 48.458C238.27 48.458 237.834 48.558 237.446 48.758C237.058 48.958 236.75 49.236 236.522 49.592C236.298 49.948 236.186 50.358 236.186 50.822C236.186 51.286 236.298 51.696 236.522 52.052C236.75 52.408 237.058 52.686 237.446 52.886C237.834 53.086 238.27 53.186 238.754 53.186ZM238.754 52.256C238.354 52.256 238.014 52.122 237.734 51.854C237.458 51.586 237.32 51.242 237.32 50.822C237.32 50.402 237.458 50.058 237.734 49.79C238.014 49.522 238.354 49.388 238.754 49.388C239.158 49.388 239.498 49.522 239.774 49.79C240.05 50.058 240.188 50.402 240.188 50.822C240.188 51.242 240.05 51.586 239.774 51.854C239.498 52.122 239.158 52.256 238.754 52.256Z" fill="#928A97"/>
<path d="M213.247 120.224C213.97 120.224 214.649 120.119 215.284 119.909C215.923 119.699 216.469 119.428 216.922 119.097L216.117 117.543C215.767 117.823 215.352 118.04 214.871 118.194C214.39 118.348 213.884 118.425 213.352 118.425C212.512 118.425 211.763 118.241 211.105 117.872C210.447 117.499 209.929 116.997 209.551 116.367C209.173 115.732 208.984 115.021 208.984 114.232C208.984 113.443 209.173 112.734 209.551 112.104C209.929 111.469 210.447 110.968 211.105 110.599C211.763 110.226 212.512 110.039 213.352 110.039C213.884 110.039 214.39 110.116 214.871 110.27C215.352 110.424 215.767 110.641 216.117 110.921L216.922 109.367C216.455 109.026 215.902 108.753 215.263 108.548C214.624 108.343 213.947 108.24 213.233 108.24C212.365 108.24 211.553 108.394 210.797 108.702C210.046 109.005 209.383 109.43 208.809 109.976C208.24 110.522 207.794 111.159 207.472 111.887C207.15 112.61 206.989 113.392 206.989 114.232C206.989 115.072 207.15 115.856 207.472 116.584C207.794 117.307 208.24 117.942 208.809 118.488C209.383 119.034 210.048 119.461 210.804 119.769C211.56 120.072 212.374 120.224 213.247 120.224ZM221.973 120.224C222.762 120.224 223.457 120.091 224.059 119.825C224.666 119.554 225.14 119.165 225.48 118.656C225.826 118.143 225.998 117.524 225.998 116.801C225.998 116.115 225.844 115.557 225.536 115.128C225.233 114.694 224.815 114.33 224.283 114.036C223.751 113.737 223.145 113.453 222.463 113.182C222.118 113.047 221.798 112.914 221.504 112.783C221.215 112.648 220.984 112.482 220.811 112.286C220.639 112.085 220.552 111.822 220.552 111.495C220.552 111.075 220.709 110.706 221.021 110.389C221.334 110.067 221.777 109.906 222.351 109.906C222.841 109.906 223.296 110.013 223.716 110.228C224.136 110.438 224.477 110.681 224.738 110.956L225.536 109.563C225.317 109.334 225.037 109.12 224.696 108.919C224.36 108.718 223.987 108.555 223.576 108.429C223.17 108.303 222.75 108.24 222.316 108.24C221.612 108.24 220.993 108.394 220.461 108.702C219.929 109.01 219.514 109.414 219.215 109.913C218.921 110.412 218.774 110.951 218.774 111.53C218.774 112.062 218.896 112.515 219.138 112.888C219.381 113.257 219.689 113.567 220.062 113.819C220.44 114.066 220.828 114.274 221.224 114.442C221.78 114.671 222.267 114.888 222.687 115.093C223.107 115.294 223.434 115.529 223.667 115.8C223.901 116.066 224.017 116.414 224.017 116.843C224.017 117.398 223.826 117.818 223.443 118.103C223.061 118.383 222.587 118.523 222.022 118.523C221.49 118.523 221.017 118.423 220.601 118.222C220.186 118.017 219.831 117.783 219.537 117.522C219.243 117.261 219.01 117.041 218.837 116.864L217.871 118.348C217.993 118.488 218.17 118.663 218.403 118.873C218.637 119.078 218.924 119.286 219.264 119.496C219.61 119.701 220.006 119.874 220.454 120.014C220.907 120.154 221.413 120.224 221.973 120.224ZM231.256 120.224C232.045 120.224 232.74 120.091 233.342 119.825C233.949 119.554 234.423 119.165 234.763 118.656C235.109 118.143 235.281 117.524 235.281 116.801C235.281 116.115 235.127 115.557 234.819 115.128C234.516 114.694 234.098 114.33 233.566 114.036C233.034 113.737 232.428 113.453 231.746 113.182C231.401 113.047 231.081 112.914 230.787 112.783C230.498 112.648 230.267 112.482 230.094 112.286C229.922 112.085 229.835 111.822 229.835 111.495C229.835 111.075 229.992 110.706 230.304 110.389C230.617 110.067 231.06 109.906 231.634 109.906C232.124 109.906 232.579 110.013 232.999 110.228C233.419 110.438 233.76 110.681 234.021 110.956L234.819 109.563C234.6 109.334 234.32 109.12 233.979 108.919C233.643 108.718 233.27 108.555 232.859 108.429C232.453 108.303 232.033 108.24 231.599 108.24C230.895 108.24 230.276 108.394 229.744 108.702C229.212 109.01 228.797 109.414 228.498 109.913C228.204 110.412 228.057 110.951 228.057 111.53C228.057 112.062 228.179 112.515 228.421 112.888C228.664 113.257 228.972 113.567 229.345 113.819C229.723 114.066 230.111 114.274 230.507 114.442C231.063 114.671 231.55 114.888 231.97 115.093C232.39 115.294 232.717 115.529 232.95 115.8C233.184 116.066 233.3 116.414 233.3 116.843C233.3 117.398 233.109 117.818 232.726 118.103C232.344 118.383 231.87 118.523 231.305 118.523C230.773 118.523 230.3 118.423 229.884 118.222C229.469 118.017 229.114 117.783 228.82 117.522C228.526 117.261 228.293 117.041 228.12 116.864L227.154 118.348C227.276 118.488 227.453 118.663 227.686 118.873C227.92 119.078 228.207 119.286 228.547 119.496C228.893 119.701 229.289 119.874 229.737 120.014C230.19 120.154 230.696 120.224 231.256 120.224ZM240.666 120.224C241.455 120.224 242.143 120.072 242.731 119.769C243.319 119.461 243.776 119.041 244.103 118.509C244.43 117.977 244.593 117.375 244.593 116.703C244.593 116.04 244.432 115.469 244.11 114.988C243.788 114.507 243.37 114.15 242.857 113.917C243.296 113.679 243.641 113.345 243.893 112.916C244.145 112.482 244.271 112.001 244.271 111.474C244.271 110.858 244.117 110.307 243.809 109.822C243.506 109.332 243.088 108.947 242.556 108.667C242.029 108.382 241.429 108.24 240.757 108.24C240.169 108.24 239.628 108.354 239.133 108.583C238.638 108.812 238.225 109.129 237.894 109.535C237.563 109.936 237.346 110.403 237.243 110.935L238.72 111.579C238.753 111.229 238.862 110.916 239.049 110.641C239.236 110.361 239.476 110.142 239.77 109.983C240.064 109.82 240.384 109.738 240.729 109.738C241.074 109.738 241.387 109.817 241.667 109.976C241.947 110.13 242.169 110.342 242.332 110.613C242.5 110.879 242.584 111.178 242.584 111.509C242.584 111.845 242.498 112.158 242.325 112.447C242.157 112.732 241.931 112.963 241.646 113.14C241.361 113.317 241.042 113.406 240.687 113.406H240.211V114.659C240.337 114.612 240.498 114.589 240.694 114.589C241.072 114.589 241.415 114.682 241.723 114.869C242.031 115.056 242.276 115.31 242.458 115.632C242.645 115.954 242.738 116.316 242.738 116.717C242.738 117.286 242.549 117.746 242.171 118.096C241.798 118.441 241.298 118.614 240.673 118.614C240.006 118.614 239.462 118.423 239.042 118.04C238.622 117.653 238.398 117.153 238.37 116.542L236.648 117.305C236.774 117.888 237.021 118.399 237.39 118.838C237.763 119.277 238.23 119.617 238.79 119.86C239.35 120.103 239.975 120.224 240.666 120.224Z" fill="#000C24"/>
<path d="M449 50C449 77.6142 426.614 100 399 100C371.386 100 349 77.6142 349 50C349 22.3858 371.386 0 399 0C426.614 0 449 22.3858 449 50ZM363 50C363 69.8822 379.118 86 399 86C418.882 86 435 69.8822 435 50C435 30.1177 418.882 14 399 14C379.118 14 363 30.1177 363 50Z" fill="#928A97" fill-opacity="0.27"/>
<path d="M399 100C391.109 100 383.329 98.1322 376.298 94.5492C369.267 90.9663 363.184 85.77 358.546 79.3853C353.908 73.0006 350.848 65.6088 349.614 57.8144C348.381 50.02 349.01 42.0444 351.45 34.5397C353.89 27.0351 358.072 20.2146 363.653 14.6359C369.235 9.05726 376.057 4.87892 383.563 2.44259C391.069 0.00625289 399.045 -0.618885 406.839 0.618296C414.633 1.85548 422.023 4.91984 428.405 9.56079L420.172 20.8838C415.576 17.5423 410.255 15.3359 404.644 14.4452C399.032 13.5544 393.29 14.0045 387.886 15.7587C382.481 17.5128 377.569 20.5212 373.55 24.5379C369.532 28.5545 366.521 33.4653 364.764 38.8686C363.007 44.272 362.554 50.0144 363.442 55.6264C364.33 61.2383 366.534 66.5604 369.873 71.1574C373.213 75.7544 377.592 79.4957 382.655 82.0754C387.717 84.6551 393.318 86 399 86L399 100Z" fill="#000C24"/>
<path d="M387.356 53.192C388.06 53.192 388.68 53.048 389.216 52.76C389.756 52.472 390.176 52.072 390.476 51.56C390.78 51.044 390.932 50.45 390.932 49.778C390.932 49.114 390.792 48.528 390.512 48.02C390.232 47.508 389.852 47.108 389.372 46.82C388.896 46.528 388.36 46.382 387.764 46.382C387.368 46.382 387.014 46.462 386.702 46.622L389.666 43.1H387.764L384.968 46.46C384.556 46.956 384.23 47.496 383.99 48.08C383.75 48.664 383.63 49.218 383.63 49.742C383.63 50.366 383.784 50.94 384.092 51.464C384.4 51.988 384.832 52.408 385.388 52.724C385.948 53.036 386.604 53.192 387.356 53.192ZM387.284 51.872C386.876 51.872 386.518 51.782 386.21 51.602C385.906 51.418 385.668 51.172 385.496 50.864C385.328 50.556 385.244 50.216 385.244 49.844C385.244 49.444 385.336 49.086 385.52 48.77C385.708 48.45 385.96 48.198 386.276 48.014C386.592 47.826 386.942 47.732 387.326 47.732C387.706 47.732 388.048 47.824 388.352 48.008C388.66 48.188 388.904 48.436 389.084 48.752C389.268 49.064 389.36 49.422 389.36 49.826C389.36 50.218 389.27 50.57 389.09 50.882C388.91 51.19 388.664 51.432 388.352 51.608C388.04 51.784 387.684 51.872 387.284 51.872ZM396.397 53.192C397.205 53.192 397.913 52.978 398.521 52.55C399.129 52.118 399.603 51.516 399.943 50.744C400.283 49.972 400.453 49.076 400.453 48.056C400.453 47.036 400.283 46.14 399.943 45.368C399.603 44.596 399.129 43.996 398.521 43.568C397.913 43.136 397.205 42.92 396.397 42.92C395.589 42.92 394.881 43.136 394.273 43.568C393.665 43.996 393.191 44.596 392.851 45.368C392.511 46.14 392.341 47.036 392.341 48.056C392.341 49.076 392.511 49.972 392.851 50.744C393.191 51.516 393.665 52.118 394.273 52.55C394.881 52.978 395.589 53.192 396.397 53.192ZM396.397 51.8C395.909 51.8 395.485 51.648 395.125 51.344C394.765 51.04 394.487 50.608 394.291 50.048C394.095 49.484 393.997 48.82 393.997 48.056C393.997 47.288 394.095 46.624 394.291 46.064C394.487 45.504 394.765 45.072 395.125 44.768C395.485 44.464 395.909 44.312 396.397 44.312C396.885 44.312 397.309 44.464 397.669 44.768C398.029 45.072 398.307 45.504 398.503 46.064C398.699 46.624 398.797 47.288 398.797 48.056C398.797 48.82 398.699 49.484 398.503 50.048C398.307 50.608 398.029 51.04 397.669 51.344C397.309 51.648 396.885 51.8 396.397 51.8ZM404.588 47.648C405.072 47.648 405.506 47.548 405.89 47.348C406.278 47.148 406.584 46.87 406.808 46.514C407.036 46.158 407.15 45.748 407.15 45.284C407.15 44.82 407.036 44.41 406.808 44.054C406.584 43.698 406.278 43.42 405.89 43.22C405.506 43.02 405.072 42.92 404.588 42.92C404.104 42.92 403.668 43.02 403.28 43.22C402.892 43.42 402.584 43.698 402.356 44.054C402.132 44.41 402.02 44.82 402.02 45.284C402.02 45.748 402.132 46.158 402.356 46.514C402.584 46.87 402.892 47.148 403.28 47.348C403.668 47.548 404.104 47.648 404.588 47.648ZM404.144 53H405.188L410.948 43.1H409.904L404.144 53ZM404.588 46.718C404.184 46.718 403.844 46.584 403.568 46.316C403.292 46.048 403.154 45.704 403.154 45.284C403.154 44.864 403.292 44.52 403.568 44.252C403.844 43.984 404.184 43.85 404.588 43.85C404.992 43.85 405.332 43.984 405.608 44.252C405.884 44.516 406.022 44.86 406.022 45.284C406.022 45.704 405.884 46.048 405.608 46.316C405.332 46.584 404.992 46.718 404.588 46.718ZM410.504 53.186C410.988 53.186 411.424 53.086 411.812 52.886C412.2 52.686 412.506 52.408 412.73 52.052C412.958 51.696 413.072 51.286 413.072 50.822C413.072 50.358 412.958 49.948 412.73 49.592C412.506 49.236 412.2 48.958 411.812 48.758C411.424 48.558 410.988 48.458 410.504 48.458C410.02 48.458 409.584 48.558 409.196 48.758C408.808 48.958 408.5 49.236 408.272 49.592C408.048 49.948 407.936 50.358 407.936 50.822C407.936 51.286 408.048 51.696 408.272 52.052C408.5 52.408 408.808 52.686 409.196 52.886C409.584 53.086 410.02 53.186 410.504 53.186ZM410.504 52.256C410.104 52.256 409.764 52.122 409.484 51.854C409.208 51.586 409.07 51.242 409.07 50.822C409.07 50.402 409.208 50.058 409.484 49.79C409.764 49.522 410.104 49.388 410.504 49.388C410.908 49.388 411.248 49.522 411.524 49.79C411.8 50.058 411.938 50.402 411.938 50.822C411.938 51.242 411.8 51.586 411.524 51.854C411.248 52.122 410.908 52.256 410.504 52.256Z" fill="#928A97"/>
<path d="M359.42 120.224C360.498 120.224 361.343 119.921 361.954 119.314C362.565 118.703 362.871 117.849 362.871 116.752V108.45H361.037V116.262C361.037 116.953 360.871 117.494 360.54 117.886C360.209 118.278 359.747 118.474 359.154 118.474C358.524 118.474 357.915 118.189 357.327 117.62L356.69 119.139C357.455 119.862 358.365 120.224 359.42 120.224ZM368.798 120.224C369.339 120.224 369.838 120.105 370.296 119.867C370.758 119.624 371.147 119.286 371.465 118.852V120H373.208V112.832H371.465V113.931C371.189 113.516 370.814 113.191 370.338 112.958C369.866 112.725 369.353 112.608 368.798 112.608C368.107 112.608 367.493 112.774 366.957 113.105C366.425 113.436 366.005 113.889 365.697 114.463C365.393 115.037 365.242 115.686 365.242 116.409C365.242 117.146 365.398 117.802 365.711 118.376C366.028 118.95 366.455 119.403 366.992 119.734C367.533 120.061 368.135 120.224 368.798 120.224ZM369.295 118.733C368.865 118.733 368.483 118.633 368.147 118.432C367.811 118.231 367.547 117.958 367.356 117.613C367.164 117.263 367.069 116.864 367.069 116.416C367.069 115.968 367.164 115.569 367.356 115.219C367.547 114.869 367.811 114.596 368.147 114.4C368.483 114.199 368.865 114.099 369.295 114.099C369.729 114.099 370.111 114.199 370.443 114.4C370.779 114.596 371.04 114.869 371.227 115.219C371.418 115.564 371.514 115.963 371.514 116.416C371.514 116.864 371.418 117.263 371.227 117.613C371.04 117.963 370.779 118.238 370.443 118.439C370.111 118.635 369.729 118.733 369.295 118.733ZM378.272 120H379.434L383.102 112.832H381.044L378.853 117.655L376.662 112.832H374.604L378.272 120ZM387.473 120.224C388.015 120.224 388.514 120.105 388.971 119.867C389.433 119.624 389.823 119.286 390.14 118.852V120H391.883V112.832H390.14V113.931C389.865 113.516 389.489 113.191 389.013 112.958C388.542 112.725 388.029 112.608 387.473 112.608C386.783 112.608 386.169 112.774 385.632 113.105C385.1 113.436 384.68 113.889 384.372 114.463C384.069 115.037 383.917 115.686 383.917 116.409C383.917 117.146 384.074 117.802 384.386 118.376C384.704 118.95 385.131 119.403 385.667 119.734C386.209 120.061 386.811 120.224 387.473 120.224ZM387.97 118.733C387.541 118.733 387.158 118.633 386.822 118.432C386.486 118.231 386.223 117.958 386.031 117.613C385.84 117.263 385.744 116.864 385.744 116.416C385.744 115.968 385.84 115.569 386.031 115.219C386.223 114.869 386.486 114.596 386.822 114.4C387.158 114.199 387.541 114.099 387.97 114.099C388.404 114.099 388.787 114.199 389.118 114.4C389.454 114.596 389.716 114.869 389.902 115.219C390.094 115.564 390.189 115.963 390.189 116.416C390.189 116.864 390.094 117.263 389.902 117.613C389.716 117.963 389.454 118.238 389.118 118.439C388.787 118.635 388.404 118.733 387.97 118.733ZM401.316 120.224C402.105 120.224 402.8 120.091 403.402 119.825C404.009 119.554 404.482 119.165 404.823 118.656C405.168 118.143 405.341 117.524 405.341 116.801C405.341 116.115 405.187 115.557 404.879 115.128C404.576 114.694 404.158 114.33 403.626 114.036C403.094 113.737 402.487 113.453 401.806 113.182C401.461 113.047 401.141 112.914 400.847 112.783C400.558 112.648 400.327 112.482 400.154 112.286C399.981 112.085 399.895 111.822 399.895 111.495C399.895 111.075 400.051 110.706 400.364 110.389C400.677 110.067 401.12 109.906 401.694 109.906C402.184 109.906 402.639 110.013 403.059 110.228C403.479 110.438 403.82 110.681 404.081 110.956L404.879 109.563C404.66 109.334 404.38 109.12 404.039 108.919C403.703 108.718 403.33 108.555 402.919 108.429C402.513 108.303 402.093 108.24 401.659 108.24C400.954 108.24 400.336 108.394 399.804 108.702C399.272 109.01 398.857 109.414 398.558 109.913C398.264 110.412 398.117 110.951 398.117 111.53C398.117 112.062 398.238 112.515 398.481 112.888C398.724 113.257 399.032 113.567 399.405 113.819C399.783 114.066 400.17 114.274 400.567 114.442C401.122 114.671 401.61 114.888 402.03 115.093C402.45 115.294 402.777 115.529 403.01 115.8C403.243 116.066 403.36 116.414 403.36 116.843C403.36 117.398 403.169 117.818 402.786 118.103C402.403 118.383 401.93 118.523 401.365 118.523C400.833 118.523 400.359 118.423 399.944 118.222C399.529 118.017 399.174 117.783 398.88 117.522C398.586 117.261 398.353 117.041 398.18 116.864L397.214 118.348C397.335 118.488 397.513 118.663 397.746 118.873C397.979 119.078 398.266 119.286 398.607 119.496C398.952 119.701 399.349 119.874 399.797 120.014C400.25 120.154 400.756 120.224 401.316 120.224ZM410.922 120.224C411.393 120.224 411.839 120.154 412.259 120.014C412.679 119.879 413.031 119.704 413.316 119.489L412.686 118.313C412.284 118.626 411.785 118.782 411.188 118.782C410.712 118.782 410.292 118.677 409.928 118.467C409.568 118.257 409.286 117.975 409.081 117.62C408.88 117.261 408.78 116.859 408.78 116.416C408.78 115.996 408.875 115.606 409.067 115.247C409.263 114.888 409.538 114.598 409.893 114.379C410.252 114.16 410.679 114.05 411.174 114.05C411.78 114.05 412.287 114.206 412.693 114.519L413.316 113.343C413.036 113.124 412.681 112.946 412.252 112.811C411.827 112.676 411.381 112.608 410.915 112.608C410.35 112.608 409.827 112.708 409.347 112.909C408.866 113.11 408.446 113.385 408.087 113.735C407.732 114.085 407.454 114.491 407.254 114.953C407.058 115.41 406.96 115.898 406.96 116.416C406.96 116.953 407.062 117.452 407.268 117.914C407.473 118.376 407.758 118.78 408.122 119.125C408.486 119.47 408.906 119.741 409.382 119.937C409.862 120.128 410.376 120.224 410.922 120.224ZM415.191 120H416.934V115.73C416.934 115.45 417.016 115.189 417.179 114.946C417.347 114.699 417.564 114.5 417.83 114.351C418.096 114.197 418.378 114.12 418.677 114.12C418.854 114.12 419.043 114.148 419.244 114.204C419.445 114.26 419.622 114.335 419.776 114.428L420.497 112.951C420.32 112.848 420.105 112.767 419.853 112.706C419.606 112.641 419.363 112.608 419.125 112.608C418.178 112.608 417.447 113.03 416.934 113.875V112.832H415.191V120ZM422.813 111.362C423.102 111.362 423.349 111.259 423.555 111.054C423.76 110.844 423.863 110.594 423.863 110.305C423.863 110.011 423.76 109.761 423.555 109.556C423.349 109.351 423.102 109.248 422.813 109.248C422.523 109.248 422.274 109.351 422.064 109.556C421.858 109.761 421.756 110.011 421.756 110.305C421.756 110.594 421.858 110.844 422.064 111.054C422.274 111.259 422.523 111.362 422.813 111.362ZM421.938 120H423.681V112.832H421.938V120ZM426.388 123.64H428.131V118.852C428.448 119.286 428.838 119.624 429.3 119.867C429.767 120.105 430.271 120.224 430.812 120.224C431.489 120.224 432.093 120.058 432.625 119.727C433.162 119.391 433.584 118.936 433.892 118.362C434.205 117.788 434.361 117.139 434.361 116.416C434.361 115.683 434.205 115.032 433.892 114.463C433.579 113.889 433.152 113.436 432.611 113.105C432.074 112.774 431.461 112.608 430.77 112.608C430.224 112.608 429.72 112.725 429.258 112.958C428.796 113.187 428.42 113.509 428.131 113.924V112.832H426.388V123.64ZM430.315 118.733C429.886 118.733 429.501 118.635 429.16 118.439C428.824 118.238 428.56 117.963 428.369 117.613C428.178 117.263 428.082 116.864 428.082 116.416C428.082 115.968 428.178 115.569 428.369 115.219C428.56 114.869 428.824 114.596 429.16 114.4C429.501 114.199 429.886 114.099 430.315 114.099C430.74 114.099 431.118 114.199 431.449 114.4C431.785 114.601 432.049 114.876 432.24 115.226C432.436 115.571 432.534 115.97 432.534 116.423C432.534 116.871 432.438 117.27 432.247 117.62C432.056 117.965 431.792 118.238 431.456 118.439C431.125 118.635 430.744 118.733 430.315 118.733ZM438.663 120.224C439.223 120.224 439.729 120.096 440.182 119.839L439.741 118.446C439.54 118.595 439.319 118.67 439.076 118.67C438.591 118.67 438.348 118.348 438.348 117.704V114.155H440V112.832H438.348V110.151H436.605V112.832H435.73V114.155H436.605V117.823C436.605 118.579 436.785 119.169 437.144 119.594C437.508 120.014 438.014 120.224 438.663 120.224Z" fill="#000C24"/>
</svg>
