<svg width="152" height="110" viewBox="0 0 152 110" fill="none" xmlns="http://www.w3.org/2000/svg">
<path d="M76.976 19.3881C77.8294 19.4382 78.6776 19.5532 79.513 19.732C80.9423 20.1321 82.3716 20.2023 82.9434 18.7494C83.2507 18.0054 82.636 16.8964 82.3573 15.5909C82.7861 15.5909 83.6509 15.2821 84.2869 15.5418C86.6381 16.5034 87.4814 15.5418 87.4886 13.1765C89.5254 13.0221 91.212 12.4746 91.4764 10.0812C91.5193 9.66708 92.5913 9.08452 93.213 9.05644C97.8654 8.81078 98.2156 8.50195 98.3371 4.42403L100.653 5.67337L100.903 2.79566C102.461 2.09378 103.461 6.10152 105.555 3.7783C107.449 5.72251 109 5.58915 113.688 3.01325C113.216 3.7783 112.873 4.33278 112.487 4.94342C114.46 6.5788 115.232 3.99588 117.147 3.75724C113.231 7.53336 115.56 10.5164 117.383 13.752C117.962 14.7697 117.547 16.4823 117.226 17.7878C116.861 19.2477 115.925 20.5954 115.539 22.0342C114.939 24.2802 114.603 26.5894 114.017 29.5654L111.873 27.186C110.553 28.3077 109.303 29.5054 108.128 30.7726C107.699 31.278 107.885 32.2817 107.835 32.6537L117.276 33.3555L117.347 32.9204C117.073 32.8359 116.808 32.7278 116.554 32.5975C116.283 32.3854 116.032 32.1506 115.803 31.8956L118.069 30.555C119.034 33.3626 118.784 37.0545 122.871 37.7142C123.272 37.7774 123.743 37.4124 124.165 37.251C126.831 39.2162 129.375 41.6869 132.955 43.0415C131.969 44.2908 130.725 45.1471 132.669 46.3684C133.255 46.7264 133.055 48.3267 133.22 49.3654L134.313 49.8778C134.631 49.353 134.895 48.7981 135.099 48.2214C135.864 45.1682 138.401 43.5468 140.516 41.5675C141.66 40.5007 142.517 40.4235 143.647 41.6307C144.64 42.6976 146.162 43.3293 146.998 44.4382C148.606 46.6281 150.943 49.0075 151.043 51.3798C151.179 54.5664 149.085 57.5845 145.969 59.3813C143.318 60.9044 140.831 60.4201 138.601 58.546C136.571 56.8405 134.635 55.0366 132.548 53.1416C133.527 55.6403 131.119 56.5106 129.768 58.0547C129.453 58.4197 129.475 59.0654 129.053 59.1286L125.165 61.4588C124.722 61.536 123.858 61.7115 122.979 61.8098C122.1 61.908 121.006 62.2099 120.156 61.9642C118.606 61.4909 117.113 60.8531 115.703 60.0621C114.91 59.634 114.381 58.7496 113.617 58.2583C111.701 57.03 110.901 55.0647 109.836 53.2468C109.672 52.9661 109.007 52.9591 109.236 53.0293C108.521 51.3939 108.042 50.2217 107.513 48.9794L105.612 49.9129L105.055 48.3617L100.695 45.9894L97.3294 48.6636H99.5235C99.5235 50.9026 99.5235 53.0573 99.5235 55.2121C99.5968 55.7946 99.5556 56.3855 99.402 56.9528C98.623 58.6022 97.7725 60.2235 96.8363 61.7887C95.9001 63.3539 95.164 65.2981 92.9129 65.6842C92.7628 65.6842 92.5269 65.7684 92.4983 65.8666C91.5621 68.5619 88.6249 68.3162 86.7382 69.6077C86.3308 69.8884 85.4804 69.5305 84.7229 69.4603L83.4365 74.3734C81.7713 73.2575 79.5559 73.2925 79.5201 70.864C78.8499 70.7642 78.1748 70.6986 77.4977 70.6675C77.4048 70.464 77.0974 69.741 76.7115 68.8426C74.3603 70.1622 71.7947 70.8219 71.3373 73.0539L65.4342 77.2652L63.8048 76.8581C63.0901 77.8548 62.6113 79.0409 61.7251 79.7428C59.5097 81.4975 60.6317 82.8662 61.7823 84.5858C62.7185 85.9896 63.1401 87.6881 63.7905 89.2533L62.7328 89.6744L60.21 84.3191C58.7807 83.5681 57.5944 82.9153 56.4009 82.3819C55.7792 82.1012 54.8287 81.6028 54.4713 81.8415C51.87 83.5751 48.2038 83.5962 46.46 86.7546C45.8934 87.7598 45.17 88.6716 44.316 89.4568C42.9869 90.6049 42.1431 92.1997 41.9505 93.9278C41.3788 98.083 40.3211 102.175 39.392 106.274C39.1798 106.907 38.8476 107.495 38.4129 108.008C38.3486 108.099 37.634 107.923 37.6268 107.839C37.4797 107.13 37.4797 106.4 37.6268 105.691C39.0133 101.936 40.364 98.2093 39.4706 94.0893C39.4335 93.7926 39.4635 93.4915 39.5587 93.2076C39.6538 92.9237 39.8117 92.6639 40.0209 92.4469C42.3007 90.3833 42.3221 87.4775 43.0439 84.8455C43.1654 84.3893 42.5723 83.7435 41.9862 83.3084C42.8152 79.6446 39.3063 79.2936 37.4553 77.56L34.9111 79.2936C35.1612 77.6793 37.248 76.3176 35.197 74.963C33.9249 74.1208 32.5813 73.3838 30.9662 72.4152C31.3521 71.1378 30.5017 70.3446 28.4577 70.5903C28.0146 67.502 27.1999 64.6594 24.1698 63.5715C25.0384 62.6959 25.8387 61.7575 26.5639 60.764C26.7068 60.5324 25.9564 59.7603 25.3418 58.8127C25.7349 55.8508 25.2918 54.2224 22.3188 54.3769C23.8911 52.8117 23.7982 51.9062 21.4183 49.8357C21.011 51.8852 20.6608 53.6329 20.3321 55.2963H9.56929V55.163L16.6373 54.0329C19.2458 53.6048 20.425 51.1552 19.9461 48.6285C19.6102 46.8738 19.1171 45.6735 17.3233 45.5823C15.9181 45.523 14.5141 45.7255 13.1855 46.1789C8.80461 47.702 4.48806 49.3795 0 50.7692C1.09301 50.3026 2.16158 49.7825 3.20168 49.211C5.6744 47.6739 8.20429 46.1789 10.4841 44.4172C11.8062 43.3995 14.4719 42.9081 15.8297 43.9539C17.9737 45.5893 18.9528 45.2314 19.646 42.7678C19.7961 42.2484 20.6179 41.8343 21.2111 41.5184C22.6404 40.7674 24.1626 40.2129 25.499 39.3496C26.0922 38.9706 26.3066 38.0301 26.8212 37.1176L22.1687 36.7105V36.2052H25.6634C24.9834 35.055 24.2365 33.9442 23.4265 32.8783C22.5118 31.8254 22.6333 31.1165 23.8625 30.548C25.7563 29.6637 26.5139 28.302 26.0065 26.2315C25.9064 25.8244 26.4281 25.2629 26.6711 24.7715C26.8569 24.3855 27.1999 24.0205 27.2285 23.6275C27.1712 22.6688 27.3324 21.7097 27.7002 20.82C27.2571 20.1953 26.814 19.5706 25.9636 18.3915L28.9294 18.8898C29.2224 17.2474 30.0086 15.5418 27.5501 14.7697C27.414 14.6975 27.3079 14.5808 27.25 14.4399C26.4996 12.98 25.7492 11.513 24.8487 9.73726C26.328 10.5514 27.9217 11.141 29.1795 12.1868C30.7446 13.4432 32.224 12.636 33.5461 12.1868C34.1965 11.9552 34.418 10.5444 34.7467 9.84255C35.6544 10.1303 36.8407 10.8322 37.9984 10.7901C39.8137 10.7199 41.5717 10.2496 43.3941 11.0147C43.6657 11.127 44.4018 10.3479 44.8234 9.89869C45.4952 9.19681 46.0884 8.43878 46.7173 7.70181C47.2747 8.69146 47.8822 9.66006 48.3538 10.6848C48.4466 11.1908 48.4466 11.7089 48.3538 12.2149C50.5907 12.3202 50.1548 13.9696 50.1191 14.875C51.9271 16.7912 54.1069 18.1949 54.7215 20.09C55.1074 21.2481 55.3647 22.715 56.2222 23.3116C57.3586 24.1048 58.988 24.3294 60.4387 24.4697C60.7532 24.4697 61.3392 23.1993 61.575 22.4413C62.0396 20.9182 63.1687 20.848 65.863 22.4975L62.7828 24.2943C63.0187 24.8558 63.2688 25.4243 63.426 25.7823C62.7181 25.9088 62.0353 26.1457 61.4035 26.4841C61.2392 26.6245 61.6822 27.5019 61.8466 28.0353C62.4684 27.7686 63.2759 27.6563 63.6833 27.2071C64.8911 25.9016 65.9488 24.4627 67.1065 22.9958C67.8855 24.189 68.1571 26.6245 70.2582 26.0139C70.9728 28.1195 71.5874 29.9795 72.2521 31.8605C72.4522 32.422 73.0525 32.9976 72.9667 33.4819C72.5308 36.0016 74.7605 35.763 76.0469 36.4438C76.2899 36.5702 77.0045 36.2683 77.1975 35.9736C78.1694 34.4505 78.8198 32.6537 80.0561 31.3903C80.6779 30.7516 82.2859 31.0464 83.9868 30.8569C83.8081 30.155 83.8724 28.5898 83.1935 28.1546C82.3716 27.6212 80.9209 28.0283 79.3986 28.0283C80.6707 27.2632 82.1429 26.8491 82.5289 25.9788C82.8004 25.3541 81.6856 24.0556 81.0352 23.1713C80.2943 22.1977 79.4771 21.2825 78.5911 20.4339C78.091 20.0051 77.5555 19.6177 76.9902 19.2758L76.976 19.3881Z" fill="white"/>
<path d="M108.571 65.696C110.422 65.696 112.223 65.6469 114.024 65.696C116.311 65.7803 120.849 69.4722 120.356 71.5146C119.898 73.4027 118.033 75.1363 116.411 76.505C115.167 77.5578 113.745 76.898 112.123 76.0768C108.4 74.2169 107.47 71.9217 108.986 68.2368C109.264 67.4928 108.693 66.3909 108.571 65.696Z" fill="white"/>
<path d="M17.066 43.0113C16.2156 44.8011 15.0793 46.0645 12.7781 46.2189C11.5346 46.3031 10.334 47.1032 9.11189 47.6226C8.31862 47.9385 7.53249 48.2824 6.73922 48.6193C6.64631 48.4158 6.55341 48.2192 6.46765 48.0227L16.6587 42.4708L17.066 43.0113Z" fill="white"/>
<path d="M69.0148 91.834C68.4954 96.8268 67.9833 101.829 67.4783 106.84L66.5492 106.756C67.078 101.777 67.6093 96.801 68.1429 91.827L69.0148 91.834Z" fill="white"/>
<path d="M84.0655 102.131C83.9298 104.278 83.8726 106.433 83.601 108.56C83.5367 109.037 82.7291 109.423 82.2718 109.851C82.0502 109.269 81.5571 108.609 81.6572 108.118C82.186 106.061 82.9007 104.047 83.5439 102.025L84.0655 102.131Z" fill="white"/>
<path d="M31.0735 0C31.924 1.46693 32.6529 2.3513 32.8959 3.34797C32.9745 3.67083 31.7882 4.29551 31.1736 4.75173C30.5347 3.9749 30.008 3.11517 29.6085 2.19689C29.4655 1.80383 30.2803 1.12301 31.0735 0Z" fill="white"/>
<path d="M77.026 23.2674C73.5599 23.2674 70.8299 21.4846 68.057 19.8141L68.4143 19.035L76.9902 23.3235L77.026 23.2674Z" fill="white"/>
<path d="M50.7766 2.6109L49.4688 11.0335L48.6898 10.9141L50.2978 2.53369L50.7766 2.6109Z" fill="white"/>
<path d="M65.8345 23.1481L68.9504 22.1865C69.0361 22.5936 69.2863 23.3095 69.1934 23.3587C68.2643 23.8219 67.2781 24.1658 66.3347 24.5519L65.8345 23.1481Z" fill="white"/>
<path d="M9.63361 64.229L4.30225 67.977C4.19505 67.8296 4.08071 67.6893 3.97351 67.5489L9.14764 63.5973L9.63361 64.229Z" fill="white"/>
<path d="M19.3889 31.8583L22.4477 32.9462C21.49 33.6481 20.6968 34.4552 20.4895 34.35C19.8338 33.8416 19.2583 33.2409 18.7815 32.5672L19.3889 31.8583Z" fill="white"/>
</svg>
