<svg width="382" height="34" viewBox="0 0 382 34" fill="none" xmlns="http://www.w3.org/2000/svg">
<path d="M8.081 32.5H7.331C7.331 32.9142 7.66679 33.25 8.081 33.25V32.5ZM15.415 32.5V33.25C15.8292 33.25 16.165 32.9142 16.165 32.5H15.415ZM15.415 7.591V6.841C15.0008 6.841 14.665 7.17678 14.665 7.591H15.415ZM22.768 7.591V8.341C23.1822 8.341 23.518 8.00521 23.518 7.591H22.768ZM22.768 1.15H23.518C23.518 0.735785 23.1822 0.399998 22.768 0.399998V1.15ZM0.728 1.15V0.399998C0.313786 0.399998 -0.022 0.735785 -0.022 1.15H0.728ZM0.728 7.591H-0.022C-0.022 8.00521 0.313786 8.341 0.728 8.341L0.728 7.591ZM8.081 7.591H8.831C8.831 7.17678 8.49521 6.841 8.081 6.841V7.591ZM8.081 33.25H15.415V31.75H8.081V33.25ZM16.165 32.5V7.591H14.665V32.5H16.165ZM15.415 8.341H22.768V6.841H15.415V8.341ZM23.518 7.591V1.15H22.018V7.591H23.518ZM22.768 0.399998H0.728V1.9H22.768V0.399998ZM-0.022 1.15V7.591H1.478V1.15H-0.022ZM0.728 8.341H8.081V6.841H0.728V8.341ZM7.331 7.591V32.5H8.831V7.591H7.331ZM48.3257 31.854L48.0253 31.1668L48.0253 31.1668L48.3257 31.854ZM53.3607 28.377L53.8979 28.9004L53.9001 28.8981L53.3607 28.377ZM56.7427 23.19L56.0504 22.9015L56.0494 22.9038L56.7427 23.19ZM56.7427 10.517L56.0488 10.8017L56.051 10.807L56.7427 10.517ZM53.3607 5.33L52.8213 5.85111L52.8235 5.8534L53.3607 5.33ZM30.9787 5.33L31.5159 5.8534L31.5181 5.85111L30.9787 5.33ZM27.5777 10.517L26.8854 10.2285L26.8844 10.2308L27.5777 10.517ZM27.5777 23.19L26.8838 23.4747L26.886 23.48L27.5777 23.19ZM30.9787 28.377L30.4393 28.8981L30.4415 28.9004L30.9787 28.377ZM36.0137 31.854L36.314 31.1668L36.314 31.1668L36.0137 31.854ZM38.0467 24.881L38.4549 24.2519L38.4549 24.2519L38.0467 24.881ZM35.2537 21.651L34.578 21.9765L34.5792 21.979L35.2537 21.651ZM35.2537 12.037L35.9282 12.365L35.9282 12.365L35.2537 12.037ZM46.2927 8.807L45.8813 9.43414L45.8844 9.43614L46.2927 8.807ZM49.0857 12.037L49.7602 11.709L49.7602 11.709L49.0857 12.037ZM49.0857 21.651L49.7602 21.979L49.7613 21.9765L49.0857 21.651ZM46.2927 24.881L45.8844 24.2519L45.8813 24.2539L46.2927 24.881ZM42.1697 33.858C44.4591 33.858 46.614 33.4207 48.626 32.5412L48.0253 31.1668C46.2121 31.9593 44.2629 32.358 42.1697 32.358V33.858ZM48.626 32.5412C50.6267 31.6668 52.3856 30.4524 53.8978 28.9004L52.8235 27.8536C51.4477 29.2656 49.85 30.3692 48.0253 31.1668L48.626 32.5412ZM53.9001 28.8981C55.4111 27.334 56.59 25.5249 57.4359 23.4762L56.0494 22.9038C55.274 24.7818 54.1982 26.4306 52.8213 27.8559L53.9001 28.8981ZM57.435 23.4785C58.2984 21.4062 58.7277 19.1923 58.7277 16.844H57.2277C57.2277 19.005 56.8336 21.0218 56.0504 22.9015L57.435 23.4785ZM58.7277 16.844C58.7277 14.4957 58.2984 12.2875 57.4343 10.227L56.051 10.807C56.8336 12.6732 57.2277 14.683 57.2277 16.844H58.7277ZM57.4366 10.2323C56.5906 8.17037 55.4111 6.35963 53.8978 4.8066L52.8235 5.8534C54.1983 7.26437 55.2734 8.91162 56.0488 10.8017L57.4366 10.2323ZM53.9001 4.80889C52.3877 3.24346 50.6281 2.02183 48.626 1.14678L48.0253 2.52122C49.8486 3.31817 51.4456 4.42721 52.8213 5.85111L53.9001 4.80889ZM48.626 1.14678C46.614 0.26732 44.4591 -0.170001 42.1697 -0.170001V1.33C44.2629 1.33 46.2121 1.72868 48.0253 2.52122L48.626 1.14678ZM42.1697 -0.170001C39.8802 -0.170001 37.7254 0.26732 35.7133 1.14678L36.314 2.52122C38.1273 1.72868 40.0765 1.33 42.1697 1.33V-0.170001ZM35.7133 1.14678C33.7113 2.02183 31.9516 3.24346 30.4393 4.80889L31.5181 5.85111C32.8937 4.42721 34.4907 3.31817 36.314 2.52122L35.7133 1.14678ZM30.4415 4.8066C28.9291 6.35876 27.7438 8.16821 26.8854 10.2285L28.27 10.8055C29.0582 8.91379 30.1402 7.26523 31.5158 5.8534L30.4415 4.8066ZM26.8844 10.2308C26.034 12.2904 25.6117 14.4972 25.6117 16.844H27.1117C27.1117 14.6814 27.5 12.6703 28.2709 10.8032L26.8844 10.2308ZM25.6117 16.844C25.6117 19.1908 26.034 21.4034 26.8838 23.4747L28.2715 22.9053C27.5 21.0246 27.1117 19.0065 27.1117 16.844H25.6117ZM26.886 23.48C27.7444 25.527 28.929 27.3349 30.4393 28.8981L31.5181 27.8559C30.1403 26.4298 29.0576 24.7796 28.2693 22.9L26.886 23.48ZM30.4415 28.9004C31.9537 30.4524 33.7127 31.6668 35.7133 32.5412L36.314 31.1668C34.4894 30.3692 32.8916 29.2656 31.5158 27.8536L30.4415 28.9004ZM35.7133 32.5412C37.7254 33.4207 39.8802 33.858 42.1697 33.858V32.358C40.0765 32.358 38.1273 31.9593 36.314 31.1668L35.7133 32.5412ZM42.1697 25.29C40.7419 25.29 39.5123 24.938 38.4549 24.2519L37.6384 25.5101C38.9624 26.3693 40.4815 26.79 42.1697 26.79V25.29ZM38.4549 24.2519C37.3881 23.5595 36.5449 22.5913 35.9282 21.323L34.5792 21.979C35.3052 23.472 36.3239 24.6571 37.6384 25.5101L38.4549 24.2519ZM35.9293 21.3255C35.3146 20.0496 34.9967 18.5618 34.9967 16.844H33.4967C33.4967 18.7489 33.8501 20.4657 34.578 21.9765L35.9293 21.3255ZM34.9967 16.844C34.9967 15.1125 35.315 13.626 35.9282 12.365L34.5792 11.709C33.8497 13.2094 33.4967 14.9275 33.4967 16.844H34.9967ZM35.9282 12.365C36.5449 11.0967 37.3881 10.1285 38.4549 9.43614L37.6384 8.17786C36.3239 9.03086 35.3052 10.216 34.5792 11.709L35.9282 12.365ZM38.4549 9.43614C39.5123 8.74999 40.7419 8.398 42.1697 8.398V6.898C40.4815 6.898 38.9624 7.31867 37.6384 8.17786L38.4549 9.43614ZM42.1697 8.398C43.6116 8.398 44.8393 8.75066 45.8813 9.43413L46.704 8.17987C45.39 7.318 43.8691 6.898 42.1697 6.898V8.398ZM45.8844 9.43614C46.9513 10.1285 47.7945 11.0967 48.4112 12.365L49.7602 11.709C49.0342 10.216 48.0154 9.03086 46.7009 8.17786L45.8844 9.43614ZM48.4112 12.365C49.0243 13.626 49.3427 15.1125 49.3427 16.844H50.8427C50.8427 14.9275 50.4897 13.2094 49.7602 11.709L48.4112 12.365ZM49.3427 16.844C49.3427 18.5618 49.0247 20.0496 48.41 21.3255L49.7613 21.9765C50.4893 20.4657 50.8427 18.7489 50.8427 16.844H49.3427ZM48.4112 21.323C47.7945 22.5913 46.9513 23.5595 45.8844 24.2519L46.7009 25.5101C48.0154 24.6571 49.0342 23.472 49.7602 21.979L48.4112 21.323ZM45.8813 24.2539C44.8393 24.9373 43.6116 25.29 42.1697 25.29V26.79C43.8691 26.79 45.39 26.37 46.704 25.5081L45.8813 24.2539ZM66.568 32.5H65.818C65.818 32.9142 66.1538 33.25 66.568 33.25V32.5ZM84.561 32.5V33.25C84.9753 33.25 85.311 32.9142 85.311 32.5H84.561ZM84.561 26.078H85.311C85.311 25.6638 84.9753 25.328 84.561 25.328V26.078ZM73.883 26.078H73.133C73.133 26.4922 73.4688 26.828 73.883 26.828V26.078ZM73.883 1.15H74.633C74.633 0.735785 74.2973 0.399998 73.883 0.399998V1.15ZM66.568 1.15V0.399998C66.1538 0.399998 65.818 0.735785 65.818 1.15H66.568ZM66.568 33.25H84.561V31.75H66.568V33.25ZM85.311 32.5V26.078H83.811V32.5H85.311ZM84.561 25.328H73.883V26.828H84.561V25.328ZM74.633 26.078V1.15H73.133V26.078H74.633ZM73.883 0.399998H66.568V1.9H73.883V0.399998ZM65.818 1.15V32.5H67.318V1.15H65.818ZM91.8366 32.5H91.0866C91.0866 32.9142 91.4224 33.25 91.8366 33.25V32.5ZM109.849 32.5V33.25C110.263 33.25 110.599 32.9142 110.599 32.5H109.849ZM109.849 26.078H110.599C110.599 25.6638 110.263 25.328 109.849 25.328V26.078ZM99.1516 26.078H98.4016C98.4016 26.4922 98.7374 26.828 99.1516 26.828V26.078ZM99.1516 19.998V19.248C98.7374 19.248 98.4016 19.5838 98.4016 19.998H99.1516ZM109.393 19.998V20.748C109.807 20.748 110.143 20.4122 110.143 19.998H109.393ZM109.393 13.576H110.143C110.143 13.1618 109.807 12.826 109.393 12.826V13.576ZM99.1516 13.576H98.4016C98.4016 13.9902 98.7374 14.326 99.1516 14.326V13.576ZM99.1516 7.572V6.822C98.7374 6.822 98.4016 7.15779 98.4016 7.572H99.1516ZM109.849 7.572V8.322C110.263 8.322 110.599 7.98621 110.599 7.572H109.849ZM109.849 1.15H110.599C110.599 0.735785 110.263 0.399998 109.849 0.399998V1.15ZM91.8366 1.15V0.399998C91.4224 0.399998 91.0866 0.735785 91.0866 1.15H91.8366ZM91.8366 33.25H109.849V31.75H91.8366V33.25ZM110.599 32.5V26.078H109.099V32.5H110.599ZM109.849 25.328H99.1516V26.828H109.849V25.328ZM99.9016 26.078V19.998H98.4016V26.078H99.9016ZM99.1516 20.748H109.393V19.248H99.1516V20.748ZM110.143 19.998V13.576H108.643V19.998H110.143ZM109.393 12.826H99.1516V14.326H109.393V12.826ZM99.9016 13.576V7.572H98.4016V13.576H99.9016ZM99.1516 8.322H109.849V6.822H99.1516V8.322ZM110.599 7.572V1.15H109.099V7.572H110.599ZM109.849 0.399998H91.8366V1.9H109.849V0.399998ZM91.0866 1.15V32.5H92.5866V1.15H91.0866ZM138.484 32.139L138.222 31.4361L138.484 32.139ZM143.12 29.441L143.606 30.0123L143.609 30.0097L143.12 29.441ZM146.312 25.375L145.643 25.0352L145.641 25.0396L146.312 25.375ZM147.49 14.887H148.24C148.24 14.4728 147.904 14.137 147.49 14.137V14.887ZM133.012 14.887V14.137C132.598 14.137 132.262 14.4728 132.262 14.887H133.012ZM133.012 20.549H132.262C132.262 20.9632 132.598 21.299 133.012 21.299V20.549ZM140.023 20.549H140.773C140.773 20.1348 140.437 19.799 140.023 19.799V20.549ZM139.111 23.589L139.721 24.0258L139.111 23.589ZM136.698 25.622L137.033 26.2928L137.037 26.2911L136.698 25.622ZM129.478 25.166L129.053 25.7839L129.057 25.7869L129.478 25.166ZM126.685 21.727L127.366 21.4127L127.366 21.4127L126.685 21.727ZM126.571 11.6L125.885 11.2971L125.883 11.3023L126.571 11.6ZM129.307 8.313L129.717 8.94109L129.721 8.93805L129.307 8.313ZM137.914 7.838L137.68 8.55077L137.688 8.55309L137.914 7.838ZM141.752 9.89L141.271 10.4656C141.439 10.6062 141.661 10.6661 141.877 10.6295C142.093 10.5929 142.283 10.4634 142.395 10.2752L141.752 9.89ZM145.153 4.209L145.796 4.59424C145.994 4.26472 145.91 3.83943 145.603 3.609L145.153 4.209ZM139.605 1.492L139.394 2.21181L139.398 2.21298L139.605 1.492ZM127.084 1.853L127.379 2.54237L127.383 2.54073L127.084 1.853ZM122.068 5.349L122.614 5.86274L122.617 5.86041L122.068 5.349ZM118.857 10.517L119.557 10.7853L119.558 10.7838L118.857 10.517ZM118.895 23.266L118.196 23.5376L118.198 23.543L118.895 23.266ZM122.163 28.434L122.707 27.9179L122.707 27.9179L122.163 28.434ZM127.027 31.873L126.722 32.5582L126.724 32.5589L127.027 31.873ZM133.031 33.858C135.018 33.858 136.924 33.5199 138.746 32.8419L138.222 31.4361C136.573 32.0501 134.844 32.358 133.031 32.358V33.858ZM138.746 32.8419C140.559 32.1667 142.181 31.2238 143.606 30.0123L142.634 28.8697C141.348 29.9635 139.879 30.8193 138.222 31.4361L138.746 32.8419ZM143.609 30.0097C145.037 28.7817 146.164 27.3479 146.983 25.7104L145.641 25.0396C144.915 26.4928 143.913 27.7696 142.631 28.8723L143.609 30.0097ZM146.981 25.7148C147.821 24.0602 148.24 22.2712 148.24 20.359H146.74C146.74 22.0442 146.373 23.5992 145.643 25.0352L146.981 25.7148ZM148.24 20.359V14.887H146.74V20.359H148.24ZM147.49 14.137H133.012V15.637H147.49V14.137ZM132.262 14.887V20.549H133.762V14.887H132.262ZM133.012 21.299H140.023V19.799H133.012V21.299ZM139.273 20.549V20.777H140.773V20.549H139.273ZM139.273 20.777C139.273 21.6434 139.02 22.4285 138.501 23.1522L139.721 24.0258C140.418 23.0521 140.773 21.9626 140.773 20.777H139.273ZM138.501 23.1522C137.969 23.8955 137.26 24.4966 136.359 24.9529L137.037 26.2911C138.137 25.7341 139.037 24.9798 139.721 24.0258L138.501 23.1522ZM136.363 24.9512C135.487 25.3891 134.513 25.613 133.43 25.613V27.113C134.728 27.113 135.933 26.8429 137.033 26.2928L136.363 24.9512ZM133.43 25.613C132.119 25.613 130.949 25.2569 129.899 24.5451L129.057 25.7869C130.363 26.6711 131.827 27.113 133.43 27.113V25.613ZM129.903 24.5482C128.851 23.8242 128.002 22.79 127.366 21.4127L126.004 22.0413C126.736 23.628 127.749 24.8865 129.053 25.7838L129.903 24.5482ZM127.366 21.4127C126.737 20.0495 126.409 18.4132 126.409 16.483H124.909C124.909 18.5808 125.265 20.4405 126.004 22.0413L127.366 21.4127ZM126.409 16.483C126.409 14.7153 126.699 13.1923 127.259 11.8977L125.883 11.3023C125.226 12.8197 124.909 14.552 124.909 16.483H126.409ZM127.257 11.9029C127.823 10.6201 128.644 9.64145 129.717 8.94108L128.897 7.68492C127.564 8.55522 126.56 9.76794 125.885 11.2971L127.257 11.9029ZM129.721 8.93805C130.779 8.23675 132.097 7.866 133.715 7.866V6.366C131.862 6.366 130.242 6.79325 128.892 7.68795L129.721 8.93805ZM133.715 7.866C134.954 7.866 136.275 8.09016 137.68 8.55073L138.147 7.12527C136.615 6.62317 135.136 6.366 133.715 6.366V7.866ZM137.688 8.55309C139.087 8.99548 140.277 9.63535 141.271 10.4656L142.233 9.31439C141.073 8.34598 139.705 7.61785 138.14 7.1229L137.688 8.55309ZM142.395 10.2752L145.796 4.59424L144.509 3.82376L141.108 9.50476L142.395 10.2752ZM145.603 3.609C143.904 2.33464 141.971 1.38984 139.812 0.771022L139.398 2.21298C141.394 2.78482 143.159 3.65136 144.703 4.809L145.603 3.609ZM139.816 0.772195C137.678 0.146614 135.606 -0.170001 133.601 -0.170001V1.33C135.447 1.33 137.377 1.62138 139.394 2.2118L139.816 0.772195ZM133.601 -0.170001C131.117 -0.170001 128.841 0.270674 126.785 1.16527L127.383 2.54073C129.228 1.73799 131.297 1.33 133.601 1.33V-0.170001ZM126.789 1.16364C124.746 2.03909 122.987 3.2637 121.519 4.83759L122.617 5.86041C123.936 4.44497 125.521 3.33891 127.379 2.54236L126.789 1.16364ZM121.522 4.83527C120.059 6.39104 118.937 8.19831 118.156 10.2502L119.558 10.7838C120.272 8.90903 121.29 7.27096 122.614 5.86273L121.522 4.83527ZM118.157 10.2487C117.374 12.2911 116.986 14.479 116.986 16.806H118.486C118.486 14.649 118.845 12.6442 119.557 10.7853L118.157 10.2487ZM116.986 16.806C116.986 19.2088 117.387 21.4551 118.196 23.5376L119.594 22.9944C118.858 21.0995 118.486 19.0392 118.486 16.806H116.986ZM118.198 23.543C119.017 25.6032 120.156 27.4081 121.619 28.9501L122.707 27.9179C121.383 26.5213 120.344 24.8808 119.592 22.989L118.198 23.543ZM121.619 28.9501C123.08 30.4909 124.782 31.6947 126.722 32.5582L127.332 31.1878C125.573 30.4046 124.033 29.3157 122.707 27.9179L121.619 28.9501ZM126.724 32.5589C128.686 33.4267 130.791 33.858 133.031 33.858V32.358C130.989 32.358 129.092 31.966 127.33 31.1871L126.724 32.5589ZM156.104 32.5H155.354C155.354 32.9142 155.69 33.25 156.104 33.25V32.5ZM174.116 32.5V33.25C174.53 33.25 174.866 32.9142 174.866 32.5H174.116ZM174.116 26.078H174.866C174.866 25.6638 174.53 25.328 174.116 25.328V26.078ZM163.419 26.078H162.669C162.669 26.4922 163.005 26.828 163.419 26.828V26.078ZM163.419 19.998V19.248C163.005 19.248 162.669 19.5838 162.669 19.998H163.419ZM173.66 19.998V20.748C174.074 20.748 174.41 20.4122 174.41 19.998H173.66ZM173.66 13.576H174.41C174.41 13.1618 174.074 12.826 173.66 12.826V13.576ZM163.419 13.576H162.669C162.669 13.9902 163.005 14.326 163.419 14.326V13.576ZM163.419 7.572V6.822C163.005 6.822 162.669 7.15779 162.669 7.572H163.419ZM174.116 7.572V8.322C174.53 8.322 174.866 7.98621 174.866 7.572H174.116ZM174.116 1.15H174.866C174.866 0.735785 174.53 0.399998 174.116 0.399998V1.15ZM156.104 1.15V0.399998C155.69 0.399998 155.354 0.735785 155.354 1.15H156.104ZM156.104 33.25H174.116V31.75H156.104V33.25ZM174.866 32.5V26.078H173.366V32.5H174.866ZM174.116 25.328H163.419V26.828H174.116V25.328ZM164.169 26.078V19.998H162.669V26.078H164.169ZM163.419 20.748H173.66V19.248H163.419V20.748ZM174.41 19.998V13.576H172.91V19.998H174.41ZM173.66 12.826H163.419V14.326H173.66V12.826ZM164.169 13.576V7.572H162.669V13.576H164.169ZM163.419 8.322H174.116V6.822H163.419V8.322ZM174.866 7.572V1.15H173.366V7.572H174.866ZM174.116 0.399998H156.104V1.9H174.116V0.399998ZM155.354 1.15V32.5H156.854V1.15H155.354ZM184.378 32.5H183.628C183.628 32.9142 183.964 33.25 184.378 33.25V32.5ZM191.693 32.5V33.25C192.108 33.25 192.443 32.9142 192.443 32.5H191.693ZM191.693 13.329L192.325 12.9237C192.145 12.6436 191.802 12.5156 191.482 12.6093C191.163 12.7031 190.943 12.9961 190.943 13.329H191.693ZM204.005 32.5L203.374 32.9053C203.512 33.1201 203.75 33.25 204.005 33.25V32.5ZM211.32 32.5V33.25C211.735 33.25 212.07 32.9142 212.07 32.5H211.32ZM211.32 1.15H212.07C212.07 0.735785 211.735 0.399998 211.32 0.399998V1.15ZM204.005 1.15V0.399998C203.591 0.399998 203.255 0.735785 203.255 1.15H204.005ZM204.005 20.321L203.374 20.7263C203.554 21.0064 203.897 21.1344 204.217 21.0407C204.536 20.9469 204.755 20.6539 204.755 20.321H204.005ZM191.693 1.15L192.325 0.744715C192.187 0.529884 191.949 0.399998 191.693 0.399998V1.15ZM184.378 1.15V0.399998C183.964 0.399998 183.628 0.735785 183.628 1.15H184.378ZM184.378 33.25H191.693V31.75H184.378V33.25ZM192.443 32.5V13.329H190.943V32.5H192.443ZM191.062 13.7343L203.374 32.9053L204.637 32.0947L192.325 12.9237L191.062 13.7343ZM204.005 33.25H211.32V31.75H204.005V33.25ZM212.07 32.5V1.15H210.57V32.5H212.07ZM211.32 0.399998H204.005V1.9H211.32V0.399998ZM203.255 1.15V20.321H204.755V1.15H203.255ZM204.637 19.9157L192.325 0.744715L191.062 1.55528L203.374 20.7263L204.637 19.9157ZM191.693 0.399998H184.378V1.9H191.693V0.399998ZM183.628 1.15V32.5H185.128V1.15H183.628ZM237.579 32.5H236.829C236.829 32.9142 237.165 33.25 237.579 33.25V32.5ZM244.913 32.5V33.25C245.327 33.25 245.663 32.9142 245.663 32.5H244.913ZM244.913 7.591V6.841C244.499 6.841 244.163 7.17678 244.163 7.591H244.913ZM252.266 7.591V8.341C252.68 8.341 253.016 8.00521 253.016 7.591H252.266ZM252.266 1.15H253.016C253.016 0.735785 252.68 0.399998 252.266 0.399998V1.15ZM230.226 1.15V0.399998C229.812 0.399998 229.476 0.735785 229.476 1.15H230.226ZM230.226 7.591H229.476C229.476 8.00521 229.812 8.341 230.226 8.341V7.591ZM237.579 7.591H238.329C238.329 7.17678 237.993 6.841 237.579 6.841V7.591ZM237.579 33.25H244.913V31.75H237.579V33.25ZM245.663 32.5V7.591H244.163V32.5H245.663ZM244.913 8.341H252.266V6.841H244.913V8.341ZM253.016 7.591V1.15H251.516V7.591H253.016ZM252.266 0.399998H230.226V1.9H252.266V0.399998ZM229.476 1.15V7.591H230.976V1.15H229.476ZM230.226 8.341H237.579V6.841H230.226V8.341ZM236.829 7.591V32.5H238.329V7.591H236.829ZM259.516 32.5H258.766C258.766 32.9142 259.102 33.25 259.516 33.25V32.5ZM266.831 32.5V33.25C267.245 33.25 267.581 32.9142 267.581 32.5H266.831ZM266.831 1.15H267.581C267.581 0.735785 267.245 0.399998 266.831 0.399998V1.15ZM259.516 1.15V0.399998C259.102 0.399998 258.766 0.735785 258.766 1.15H259.516ZM259.516 33.25H266.831V31.75H259.516V33.25ZM267.581 32.5V1.15H266.081V32.5H267.581ZM266.831 0.399998H259.516V1.9H266.831V0.399998ZM258.766 1.15V32.5H260.266V1.15H258.766ZM276.496 32.5L275.749 32.4339C275.73 32.6435 275.801 32.8512 275.943 33.0064C276.085 33.1616 276.286 33.25 276.496 33.25V32.5ZM283.83 32.5V33.25C284.222 33.25 284.548 32.9479 284.578 32.5568L283.83 32.5ZM285.217 14.241L285.922 13.9851C285.801 13.6529 285.465 13.45 285.115 13.4979C284.765 13.5459 284.496 13.8318 284.469 14.1842L285.217 14.241ZM291.715 32.139L291.01 32.3949C291.118 32.6915 291.4 32.889 291.715 32.889V32.139ZM296.123 32.139V32.889C296.439 32.889 296.72 32.6915 296.828 32.3949L296.123 32.139ZM302.621 14.241L303.369 14.1834C303.342 13.8312 303.073 13.5457 302.723 13.4979C302.373 13.4501 302.037 13.653 301.916 13.9851L302.621 14.241ZM304.027 32.5L303.279 32.5576C303.309 32.9483 303.635 33.25 304.027 33.25V32.5ZM311.342 32.5V33.25C311.552 33.25 311.753 33.1616 311.895 33.0064C312.037 32.8512 312.108 32.6435 312.089 32.4339L311.342 32.5ZM308.568 1.15L309.315 1.08389C309.281 0.696811 308.957 0.399998 308.568 0.399998V1.15ZM300.778 1.15V0.399998C300.468 0.399998 300.19 0.591049 300.078 0.880614L300.778 1.15ZM293.919 18.972L293.219 19.2414C293.331 19.5309 293.609 19.722 293.919 19.722C294.229 19.722 294.508 19.5309 294.619 19.2414L293.919 18.972ZM287.06 1.15L287.76 0.880614C287.649 0.591049 287.37 0.399998 287.06 0.399998V1.15ZM279.27 1.15V0.399998C278.881 0.399998 278.557 0.696811 278.523 1.08389L279.27 1.15ZM276.496 33.25H283.83V31.75H276.496V33.25ZM284.578 32.5568L285.965 14.2978L284.469 14.1842L283.082 32.4432L284.578 32.5568ZM284.512 14.4969L291.01 32.3949L292.42 31.8831L285.922 13.9851L284.512 14.4969ZM291.715 32.889H296.123V31.389H291.715V32.889ZM296.828 32.3949L303.326 14.4969L301.916 13.9851L295.418 31.8831L296.828 32.3949ZM301.873 14.2986L303.279 32.5576L304.775 32.4424L303.369 14.1834L301.873 14.2986ZM304.027 33.25H311.342V31.75H304.027V33.25ZM312.089 32.4339L309.315 1.08389L307.821 1.2161L310.595 32.5661L312.089 32.4339ZM308.568 0.399998H300.778V1.9H308.568V0.399998ZM300.078 0.880614L293.219 18.7026L294.619 19.2414L301.478 1.41938L300.078 0.880614ZM294.619 18.7026L287.76 0.880614L286.36 1.41938L293.219 19.2414L294.619 18.7026ZM287.06 0.399998H279.27V1.9H287.06V0.399998ZM278.523 1.08389L275.749 32.4339L277.243 32.5661L280.017 1.2161L278.523 1.08389ZM341.938 30.144L341.423 29.599L341.421 29.6006L341.938 30.144ZM345.073 1.15H345.823C345.823 0.735785 345.488 0.399998 345.073 0.399998V1.15ZM337.739 1.15V0.399998C337.325 0.399998 336.989 0.735785 336.989 1.15H337.739ZM336.599 24.425L336.002 23.9714L336.001 23.9725L336.599 24.425ZM328.885 24.425L328.284 24.8738L328.291 24.8823L328.885 24.425ZM327.764 1.15H328.514C328.514 0.735785 328.179 0.399998 327.764 0.399998V1.15ZM320.43 1.15V0.399998C320.016 0.399998 319.68 0.735785 319.68 1.15H320.43ZM323.546 30.144L324.063 29.6006L324.063 29.6006L323.546 30.144ZM332.742 33.858C336.908 33.858 340.19 32.8424 342.455 30.6874L341.421 29.6006C339.532 31.3976 336.683 32.358 332.742 32.358V33.858ZM342.454 30.689C344.739 28.5281 345.823 25.3882 345.823 21.404H344.323C344.323 25.1212 343.318 27.8079 341.423 29.599L342.454 30.689ZM345.823 21.404V1.15H344.323V21.404H345.823ZM345.073 0.399998H337.739V1.9H345.073V0.399998ZM336.989 1.15V19.257H338.489V1.15H336.989ZM336.989 19.257C336.989 21.6694 336.605 23.177 336.002 23.9714L337.197 24.8786C338.113 23.6716 338.489 21.734 338.489 19.257H336.989ZM336.001 23.9725C335.453 24.6969 334.447 25.157 332.742 25.157V26.657C334.686 26.657 336.251 26.1291 337.197 24.8774L336.001 23.9725ZM332.742 25.157C331.054 25.157 330.042 24.6985 329.48 23.9677L328.291 24.8823C329.249 26.1275 330.808 26.657 332.742 26.657V25.157ZM329.486 23.9762C328.892 23.1809 328.514 21.6708 328.514 19.257H327.014C327.014 21.7326 327.384 23.6678 328.284 24.8738L329.486 23.9762ZM328.514 19.257V1.15H327.014V19.257H328.514ZM327.764 0.399998H320.43V1.9H327.764V0.399998ZM319.68 1.15V21.404H321.18V1.15H319.68ZM319.68 21.404C319.68 25.3869 320.757 28.5263 323.029 30.6874L324.063 29.6006C322.181 27.8097 321.18 25.1224 321.18 21.404H319.68ZM323.029 30.6874C325.295 32.8424 328.576 33.858 332.742 33.858V32.358C328.802 32.358 325.952 31.3976 324.063 29.6006L323.029 30.6874ZM355.509 32.5H354.759C354.759 32.9142 355.095 33.25 355.509 33.25V32.5ZM362.824 32.5V33.25C363.238 33.25 363.574 32.9142 363.574 32.5H362.824ZM362.824 21.195V20.445C362.41 20.445 362.074 20.7808 362.074 21.195H362.824ZM363.527 21.195L364.121 20.7375C363.979 20.5531 363.76 20.445 363.527 20.445V21.195ZM372.229 32.5L371.635 32.9575C371.777 33.1419 371.996 33.25 372.229 33.25V32.5ZM381.52 32.5V33.25C381.811 33.25 382.076 33.0815 382.199 32.8178C382.323 32.5541 382.282 32.2428 382.096 32.0193L381.52 32.5ZM371.336 20.302L371.09 19.5936C370.857 19.6744 370.679 19.8644 370.613 20.1017C370.548 20.3391 370.602 20.5936 370.76 20.7827L371.336 20.302ZM376.143 16.768L376.76 17.1939L376.762 17.1917L376.143 16.768ZM376.504 5.615L375.863 6.00496L375.865 6.00745L376.504 5.615ZM372.761 2.29L372.439 2.96715L372.441 2.96813L372.761 2.29ZM355.509 1.15V0.399998C355.095 0.399998 354.759 0.735785 354.759 1.15H355.509ZM362.824 15.115H362.074C362.074 15.5292 362.41 15.865 362.824 15.865V15.115ZM362.824 6.983V6.233C362.41 6.233 362.074 6.56879 362.074 6.983H362.824ZM368.733 8.047L368.277 8.64209L368.282 8.64601L368.733 8.047ZM368.733 14.07L368.282 13.471L368.278 13.474L368.733 14.07ZM355.509 33.25H362.824V31.75H355.509V33.25ZM363.574 32.5V21.195H362.074V32.5H363.574ZM362.824 21.945H363.527V20.445H362.824V21.945ZM362.933 21.6525L371.635 32.9575L372.823 32.0425L364.121 20.7375L362.933 21.6525ZM372.229 33.25H381.52V31.75H372.229V33.25ZM382.096 32.0193L371.912 19.8213L370.76 20.7827L380.944 32.9807L382.096 32.0193ZM371.582 21.0104C373.793 20.242 375.533 18.9733 376.76 17.1939L375.526 16.3421C374.499 17.8307 373.034 18.918 371.09 19.5936L371.582 21.0104ZM376.762 17.1917C377.987 15.4024 378.584 13.2797 378.584 10.859H377.084C377.084 13.0237 376.554 14.8403 375.524 16.3443L376.762 17.1917ZM378.584 10.859C378.584 8.69779 378.116 6.80734 377.143 5.22255L375.865 6.00745C376.665 7.31066 377.084 8.9162 377.084 10.859H378.584ZM377.145 5.22504C376.178 3.63745 374.817 2.43167 373.081 1.61187L372.441 2.96813C373.923 3.66833 375.056 4.67921 375.863 6.00496L377.145 5.22504ZM373.084 1.61285C371.366 0.79506 369.364 0.399998 367.099 0.399998V1.9C369.192 1.9 370.964 2.26494 372.439 2.96714L373.084 1.61285ZM367.099 0.399998H355.509V1.9H367.099V0.399998ZM354.759 1.15V32.5H356.259V1.15H354.759ZM363.574 15.115V6.983H362.074V15.115H363.574ZM362.824 7.733H364.743V6.233H362.824V7.733ZM364.743 7.733C366.39 7.733 367.533 8.07178 368.277 8.64207L369.19 7.45193C368.084 6.60355 366.566 6.233 364.743 6.233V7.733ZM368.282 8.64601C368.991 9.18006 369.37 9.94909 369.37 11.068H370.87C370.87 9.55224 370.325 8.30727 369.184 7.44798L368.282 8.64601ZM369.37 11.068C369.37 12.1714 368.993 12.9354 368.282 13.471L369.184 14.669C370.323 13.8112 370.87 12.5739 370.87 11.068H369.37ZM368.278 13.474C367.549 14.0306 366.408 14.365 364.743 14.365V15.865C366.574 15.865 368.093 15.5027 369.188 14.666L368.278 13.474ZM364.743 14.365H362.824V15.865H364.743V14.365Z" fill="white"/>
</svg>
